<svg width="27" height="27" viewBox="0 0 27 27" fill="none" xmlns="http://www.w3.org/2000/svg">
<path d="M8.68524 12.7579H5.55987C4.95629 12.7579 4.6545 12.7579 4.42397 12.8754C4.22119 12.9787 4.05632 13.1435 3.95299 13.3463C3.83553 13.5769 3.83553 13.8786 3.83553 14.4822V23.535M18.3847 12.7579H21.51C22.1137 12.7579 22.4154 12.7579 22.6459 12.8754C22.8488 12.9787 23.0135 13.1435 23.1169 13.3463C23.2344 13.5769 23.2344 13.8786 23.2344 14.4822V23.535M18.3847 23.535V7.58488C18.3847 6.37774 18.3847 5.77415 18.1497 5.31308C17.9431 4.90751 17.6133 4.57777 17.2078 4.37113C16.7467 4.1362 16.1431 4.1362 14.936 4.1362H12.1339C10.9268 4.1362 10.3232 4.1362 9.86212 4.37113C9.45654 4.57777 9.12681 4.90751 8.92017 5.31308C8.68524 5.77415 8.68524 6.37774 8.68524 7.58488V23.535M24.3121 23.535H2.75781M12.4572 8.44705H14.6127M12.4572 12.7579H14.6127M12.4572 17.0688H14.6127" stroke="white" stroke-width="2.06921" stroke-linecap="round" stroke-linejoin="round"/>
</svg>
