<svg width="208" height="208" viewBox="0 0 208 208" fill="none" xmlns="http://www.w3.org/2000/svg">
<g id="Simplification" clip-path="url(#clip0_157_11244)">
<path id="Vector" d="M77.9479 0.391227C78.4425 0.387779 78.9371 0.384332 79.4467 0.38078C79.9915 0.381063 80.5363 0.381436 81.0812 0.38189C81.6576 0.37947 82.2339 0.37672 82.8103 0.373664C84.3735 0.366532 85.9366 0.364629 87.4998 0.364113C88.4774 0.363538 89.4549 0.361811 90.4324 0.35967C93.8453 0.352195 97.2582 0.348891 100.671 0.349527C103.848 0.350012 107.025 0.341487 110.202 0.328719C112.933 0.318135 115.664 0.313815 118.395 0.314331C120.025 0.314536 121.654 0.312255 123.284 0.303679C124.818 0.295829 126.351 0.295807 127.885 0.301672C128.446 0.302514 129.007 0.300626 129.568 0.295722C133.374 0.264629 135.879 0.521844 138.836 3.07571C140.755 5.31405 141.794 7.0281 141.844 9.96686C141.854 10.4933 141.854 10.4933 141.864 11.0303C141.882 12.6362 141.898 14.2421 141.908 15.848C141.914 16.6915 141.925 17.5349 141.941 18.3783C141.963 19.6017 141.972 20.8247 141.978 22.0483C141.987 22.4202 141.996 22.7921 142.005 23.1752C141.995 26.2381 141.133 28.8878 139.036 31.1823C135.786 34.2257 132.502 34.2117 128.241 34.1615C127.675 34.1593 127.108 34.1575 126.541 34.1563C125.057 34.1517 123.574 34.1398 122.09 34.1264C120.573 34.1139 119.056 34.1084 117.539 34.1023C114.568 34.09 111.597 34.0663 108.626 34.0431C108.626 38.3109 108.626 42.5786 108.626 46.9757C112.32 46.9121 112.32 46.9121 116.013 46.8301C119.7 46.7982 122.359 47.3053 125.322 49.5268C126.409 50.613 126.409 50.613 126.973 52.0746C127.367 52.8546 127.367 52.8546 128.025 53.442C129.676 53.8775 131.312 53.806 133.011 53.7746C133.522 53.7763 134.032 53.7781 134.559 53.7799C135.669 53.7836 136.779 53.7785 137.89 53.7665C139.648 53.7477 141.406 53.7491 143.164 53.7533C146.265 53.758 149.366 53.7455 152.466 53.7293C157.127 53.7052 161.787 53.6953 166.448 53.7003C168.193 53.7016 169.938 53.6942 171.683 53.6797C172.509 53.674 173.336 53.672 174.162 53.6715C175.166 53.6708 176.17 53.6643 177.173 53.6508C180.413 53.6619 182.958 54.159 185.537 56.1999C185.851 56.5727 185.851 56.5727 186.171 56.953C186.387 57.1963 186.603 57.4395 186.825 57.6902C188.497 60.4494 188.819 63.2175 188.764 66.3854C188.762 66.773 188.76 67.1605 188.758 67.5599C188.754 68.3954 188.747 69.2309 188.738 70.0664C188.725 71.3921 188.722 72.7176 188.721 74.0434C188.719 77.8107 188.707 81.5778 188.67 85.345C188.648 87.6553 188.644 89.9651 188.651 92.2755C188.65 93.1517 188.643 94.0279 188.628 94.904C188.411 100.555 188.411 100.555 190.819 105.453C191.427 106.048 192.049 106.631 192.688 107.193C193.097 107.661 193.498 108.136 193.888 108.62C194.394 109.214 194.394 109.214 194.911 109.82C196.574 111.776 198.208 113.753 199.827 115.746C200.525 116.593 201.228 117.432 201.942 118.266C202.142 118.499 202.342 118.733 202.548 118.974C202.935 119.426 203.324 119.877 203.714 120.327C204.758 121.545 205.648 122.765 206.429 124.167C206.15 124.495 205.871 124.822 205.584 125.16C203.761 127.307 201.943 129.458 200.165 131.644C198.836 133.276 197.486 134.889 196.123 136.493C194.141 138.827 192.178 141.176 190.263 143.566C190.052 143.81 189.84 144.055 189.622 144.307C188.944 145.346 188.881 145.965 188.844 147.197C188.83 147.574 188.815 147.952 188.8 148.341C188.791 148.733 188.782 149.124 188.773 149.527C188.759 149.924 188.745 150.322 188.731 150.731C188.698 151.711 188.67 152.69 188.647 153.669C188.914 153.664 189.182 153.659 189.458 153.654C193.41 153.611 196.338 154.131 199.279 156.942C202.083 160.096 202.076 163.226 202.11 167.259C202.121 167.719 202.133 168.179 202.145 168.653C202.171 172.133 201.743 175.031 199.484 177.779C199.184 178.025 198.883 178.271 198.573 178.524C198.274 178.778 197.974 179.033 197.666 179.294C195.656 180.677 193.95 180.857 191.551 180.797C191.271 180.794 190.991 180.79 190.703 180.786C190.017 180.777 189.332 180.762 188.647 180.747C188.661 181.055 188.675 181.363 188.689 181.68C188.798 185.834 188.234 188.554 185.497 191.73C182.957 193.83 180.605 194.32 177.369 194.267C176.982 194.267 176.596 194.268 176.197 194.268C174.929 194.267 173.661 194.254 172.392 194.241C171.509 194.238 170.626 194.236 169.742 194.235C167.425 194.228 165.108 194.212 162.79 194.195C160.422 194.178 158.055 194.171 155.687 194.163C151.046 194.145 146.406 194.118 141.766 194.084C141.772 194.471 141.778 194.858 141.784 195.256C141.788 195.765 141.793 196.273 141.798 196.797C141.803 197.301 141.809 197.805 141.815 198.324C141.723 200.983 140.839 203.093 138.937 204.995C136.681 206.607 134.945 207.468 132.133 207.482C131.394 207.488 131.394 207.488 130.641 207.493C130.094 207.495 129.548 207.497 129.001 207.498C128.427 207.501 127.852 207.505 127.277 207.508C125.387 207.519 123.497 207.525 121.608 207.531C120.956 207.533 120.305 207.535 119.654 207.537C116.943 207.546 114.232 207.554 111.521 207.558C107.642 207.565 103.762 207.578 99.883 207.601C97.1526 207.617 94.4222 207.625 91.6918 207.627C90.0626 207.628 88.4335 207.633 86.8043 207.646C85.2694 207.659 83.7347 207.661 82.1998 207.656C81.639 207.656 81.0783 207.659 80.5176 207.667C77.0905 207.708 74.2862 207.459 71.4452 205.4C69.0284 202.842 68.0737 200.52 68.1616 196.988C68.1652 196.708 68.1688 196.428 68.1726 196.14C68.1821 195.454 68.1966 194.769 68.2121 194.084C67.7231 194.087 67.2341 194.091 66.7302 194.094C62.1161 194.127 57.5019 194.151 52.8877 194.167C50.5156 194.176 48.1436 194.187 45.7715 194.206C43.4813 194.223 41.1911 194.233 38.9008 194.237C38.0281 194.24 37.1554 194.246 36.2828 194.254C35.058 194.266 33.8337 194.268 32.6089 194.267C32.2501 194.273 31.8914 194.279 31.5218 194.285C28.7197 194.266 26.6192 193.537 24.481 191.701C24.1598 191.318 24.1598 191.318 23.8322 190.926C23.5032 190.547 23.5032 190.547 23.1675 190.161C21.0701 187.044 21.1699 184.228 21.2131 180.559C21.2154 179.992 21.2171 179.425 21.2183 178.859C21.2229 177.375 21.2348 175.891 21.2483 174.408C21.2607 172.891 21.2662 171.374 21.2723 169.856C21.2853 166.885 21.306 163.915 21.3315 160.944C20.9056 160.95 20.4797 160.957 20.0409 160.963C18.4509 160.985 16.861 160.999 15.2709 161.01C14.5845 161.017 13.8982 161.025 13.2119 161.035C12.2216 161.05 11.2316 161.057 10.2413 161.062C9.78583 161.072 9.78583 161.072 9.32117 161.081C7.2343 161.082 5.80649 160.709 3.95341 159.731C1.70396 157.482 1.02484 155.401 1.01905 152.264C1.01619 151.746 1.01333 151.227 1.01038 150.692C1.0113 150.122 1.01232 149.552 1.01341 148.982C1.01165 148.377 1.00956 147.773 1.00715 147.169C1.00175 145.531 1.0015 143.894 1.00253 142.256C1.00296 140.887 1.00099 139.519 0.999053 138.15C0.994572 134.919 0.994388 131.689 0.996833 128.458C0.999274 125.13 0.994298 121.802 0.98569 118.473C0.978562 115.612 0.976149 112.75 0.977464 109.889C0.978195 108.182 0.977139 106.474 0.971513 104.767C0.966417 103.161 0.967226 101.555 0.972487 99.9485C0.973441 99.3607 0.972349 98.7729 0.969003 98.1851C0.933117 91.3877 0.93312 91.3877 2.8807 89.2054C5.14771 87.1788 7.21708 86.867 10.1624 86.9069C10.4824 86.908 10.8025 86.9092 11.1323 86.9103C12.1493 86.9148 13.1663 86.925 14.1833 86.9353C14.875 86.9393 15.5667 86.943 16.2584 86.9463C17.9495 86.9552 19.6405 86.9692 21.3315 86.9858C21.3271 86.6758 21.3226 86.3658 21.3179 86.0464C21.2773 83.1097 21.2466 80.173 21.2268 77.2361C21.2163 75.7265 21.2021 74.2172 21.1791 72.7078C21.157 71.2482 21.145 69.7888 21.1398 68.3291C21.1361 67.7751 21.1289 67.2212 21.1179 66.6674C21.0412 62.6399 21.5368 59.6289 24.1858 56.4983C24.5734 56.1857 24.5734 56.1857 24.9688 55.8668C25.3564 55.5417 25.3564 55.5417 25.7518 55.2101C27.4225 54.0963 28.868 53.7452 30.8635 53.7526C31.3128 53.7522 31.7621 53.7518 32.225 53.7513C32.714 53.7549 33.2031 53.7585 33.7069 53.7621C34.5021 53.7629 35.2972 53.7636 36.0923 53.7642C36.9449 53.7655 37.7974 53.7687 38.65 53.7723C40.428 53.7792 42.206 53.7779 43.9841 53.7748C49.0393 53.7671 54.0945 53.7644 59.1497 53.7837C61.9435 53.7942 64.7372 53.7948 67.531 53.784C69.0088 53.7788 70.4863 53.7788 71.9641 53.7912C73.6112 53.8051 75.2574 53.7971 76.9044 53.7874C77.3942 53.7951 77.8841 53.8027 78.3888 53.8106C80.6908 53.8778 80.6908 53.8778 82.5986 52.816C83.1117 51.9687 83.1117 51.9687 83.5695 50.613C84.2325 49.8489 84.2325 49.8489 84.8829 49.2995C85.1987 49.0213 85.1987 49.0213 85.5207 48.7375C88.8079 46.6801 91.915 46.8283 95.6938 46.8999C97.5609 46.9249 99.428 46.9499 101.352 46.9757C101.352 42.708 101.352 38.4402 101.352 34.0431C98.6581 34.0713 98.6581 34.0713 95.91 34.1C94.47 34.1104 93.03 34.1191 91.59 34.1268C90.0744 34.1353 88.5589 34.1466 87.0433 34.1651C85.5811 34.1828 84.119 34.1923 82.6567 34.1965C82.1013 34.1995 81.5459 34.2053 80.9906 34.2141C77.244 34.2709 74.3952 33.9838 71.3221 31.7493C71.1126 31.531 70.9032 31.3127 70.6874 31.0878C70.4718 30.8727 70.2561 30.6575 70.0339 30.4358C68.1791 27.8844 68.0233 25.5416 68.0226 22.4793C68.0196 22.0713 68.0165 21.6633 68.0133 21.2429C68.0089 20.3825 68.0078 19.5221 68.0096 18.6617C68.01 17.3551 67.9932 16.0494 67.9753 14.743C67.9732 13.9034 67.9721 13.0638 67.9721 12.2242C67.9655 11.8384 67.9589 11.4527 67.952 11.0552C67.9805 8.25273 68.6417 6.06138 70.2328 3.73244C72.5209 1.55525 74.7546 0.401308 77.9479 0.391227ZM75.4866 8.9863C74.8442 10.2711 74.9995 11.6617 74.9862 13.0735C74.9829 13.3995 74.9797 13.7254 74.9763 14.0613C74.9707 14.7519 74.9664 15.4426 74.9632 16.1333C74.9563 17.1872 74.9385 18.2405 74.9207 19.2943C74.9166 19.9655 74.9131 20.6367 74.9104 21.3079C74.9033 21.622 74.8963 21.9361 74.889 22.2598C74.895 23.7658 75.0258 24.6563 75.8258 25.948C77.178 27.2186 78.3016 27.224 80.0816 27.2295C80.532 27.2318 80.9824 27.2341 81.4465 27.2365C81.941 27.2369 82.4354 27.2374 82.9448 27.2378C83.4654 27.2398 83.9859 27.2418 84.5222 27.2439C85.951 27.2492 87.3797 27.2518 88.8085 27.2536C89.7013 27.2548 90.5942 27.2565 91.4871 27.2583C94.2816 27.2638 97.076 27.2677 99.8704 27.2693C103.095 27.2711 106.319 27.2782 109.543 27.2899C112.036 27.2986 114.53 27.3027 117.023 27.3032C118.511 27.3036 120 27.306 121.489 27.3133C123.15 27.3212 124.811 27.3194 126.472 27.3168C126.964 27.3205 127.456 27.3242 127.963 27.3281C131.197 27.3252 131.197 27.3252 134.087 25.9603C135.216 24.5583 135.026 22.7968 135.031 21.0743C135.034 20.7584 135.037 20.4426 135.04 20.1171C135.044 19.4503 135.045 18.7835 135.045 18.1167C135.047 17.0992 135.062 16.0824 135.077 15.065C135.079 14.4159 135.081 13.7668 135.082 13.1177C135.091 12.6636 135.091 12.6636 135.099 12.2003C135.086 10.7054 134.944 9.8701 134.126 8.60179C132.817 7.32253 132.071 7.31787 130.282 7.31025C129.818 7.30736 129.353 7.30447 128.874 7.30149C128.362 7.3004 127.85 7.29931 127.322 7.29819C126.779 7.29566 126.236 7.29298 125.693 7.29015C124.216 7.28311 122.739 7.27885 121.262 7.27551C120.339 7.27343 119.417 7.27098 118.494 7.26844C115.609 7.26074 112.724 7.25499 109.839 7.25162C106.507 7.24767 103.174 7.23703 99.8417 7.2207C97.2672 7.20852 94.6927 7.20253 92.1181 7.20119C90.5798 7.20024 89.0416 7.1966 87.5033 7.18645C86.0563 7.17706 84.6095 7.17533 83.1625 7.17949C82.378 7.17978 81.5935 7.17206 80.8091 7.1641C80.1087 7.16831 80.1087 7.16831 79.3941 7.17261C78.9884 7.17164 78.5826 7.17068 78.1646 7.16968C76.813 7.42442 76.3438 7.93531 75.4866 8.9863ZM88.4192 56.271C88.3165 57.7413 88.3165 57.7413 88.8233 59.1C89.7812 60.0895 90.3476 60.3008 91.7254 60.4745C92.2326 60.4791 92.7399 60.4838 93.2625 60.4885C93.5433 60.4926 93.8241 60.4967 94.1134 60.5009C95.0397 60.5124 95.9657 60.5147 96.892 60.516C97.5372 60.5199 98.1825 60.524 98.8277 60.5283C100.179 60.5355 101.531 60.5378 102.883 60.5371C104.614 60.5369 106.344 60.5535 108.074 60.5744C109.407 60.5879 110.739 60.5903 112.071 60.5897C112.709 60.5911 113.347 60.5965 113.985 60.6058C114.878 60.6177 115.77 60.6142 116.663 60.6069C117.171 60.6086 117.678 60.6104 118.201 60.6122C120.081 60.1907 120.51 59.4763 121.559 57.8875C121.59 56.5647 121.298 56.0522 120.496 55.012C119.197 53.9787 118.365 54.0428 116.716 54.0347C116.435 54.0312 116.154 54.0277 115.865 54.0241C114.938 54.015 114.012 54.0177 113.086 54.0214C112.441 54.0192 111.796 54.0167 111.15 54.0138C109.799 54.0096 108.447 54.0114 107.095 54.0173C105.365 54.0242 103.634 54.0148 101.904 54.0005C100.572 53.9917 99.2392 53.9922 97.9067 53.9956C97.2688 53.9959 96.6309 53.9932 95.993 53.9872C95.0999 53.9801 94.2078 53.986 93.3148 53.9952C92.8072 53.9956 92.2997 53.996 91.7767 53.9964C90.0735 54.3198 89.4625 54.9096 88.4192 56.271ZM28.6061 62.3331C28.0705 63.593 28.1531 64.8909 28.1561 66.2478C28.1561 66.7089 28.1561 67.17 28.1562 67.6451C28.1583 68.1406 28.1603 68.6361 28.1625 69.1467C28.1631 69.6557 28.1636 70.1647 28.1642 70.6892C28.1661 72.0393 28.1697 73.3893 28.1742 74.7393C28.1784 76.1183 28.1802 77.4972 28.1822 78.8761C28.1867 81.5794 28.1934 84.2826 28.202 86.9858C28.8408 86.9946 28.8408 86.9946 29.4926 87.0037C31.0828 87.0272 32.6727 87.0584 34.2626 87.0919C34.9489 87.1053 35.6353 87.1166 36.3216 87.1258C37.312 87.1395 38.302 87.1606 39.2922 87.1831C39.5958 87.1857 39.8995 87.1883 40.2123 87.191C42.4981 87.2538 44.4959 87.6689 46.2842 89.2086C47.7483 91.1473 48.0555 92.3758 48.0644 94.7725C48.0673 95.3034 48.0702 95.8343 48.0732 96.3812C48.0743 96.971 48.0754 97.5608 48.0765 98.1505C48.079 98.7706 48.0817 99.3906 48.0845 100.011C48.093 102.049 48.0972 104.086 48.1012 106.124C48.1029 106.826 48.1045 107.528 48.1062 108.23C48.1139 111.528 48.1197 114.826 48.1231 118.124C48.127 121.929 48.1376 125.734 48.154 129.538C48.1662 132.481 48.1721 135.423 48.1735 138.365C48.1744 140.121 48.178 141.878 48.1882 143.635C48.1976 145.288 48.1993 146.942 48.1952 148.595C48.195 149.201 48.1975 149.806 48.2031 150.411C48.2307 153.593 48.2475 156.221 46.3884 158.923C44.259 160.504 42.1616 160.782 39.5685 160.786C39.2411 160.793 38.9138 160.799 38.5766 160.806C37.5432 160.826 36.51 160.834 35.4765 160.843C34.7708 160.854 34.0652 160.866 33.3595 160.879C31.6403 160.909 29.9213 160.929 28.202 160.944C28.1832 163.913 28.1689 166.881 28.1601 169.85C28.1559 171.228 28.1502 172.607 28.141 173.985C28.1305 175.571 28.1266 177.157 28.123 178.744C28.1189 179.237 28.1147 179.73 28.1104 180.239C28.1103 180.7 28.1103 181.161 28.1102 181.636C28.1084 182.041 28.1066 182.445 28.1048 182.862C28.2422 184.443 28.5931 185.523 29.6419 186.725C31.1568 187.476 32.5922 187.372 34.2605 187.351C34.6274 187.351 34.9942 187.351 35.3721 187.351C36.5837 187.35 37.795 187.341 39.0065 187.332C39.8468 187.329 40.6872 187.328 41.5275 187.326C43.7387 187.322 45.9498 187.31 48.1609 187.296C50.4175 187.284 52.674 187.278 54.9306 187.272C59.3578 187.259 63.7849 187.239 68.2121 187.213C68.2339 186.797 68.2558 186.38 68.2783 185.951C68.3103 185.399 68.3424 184.847 68.3747 184.296C68.3887 184.022 68.4026 183.748 68.4171 183.466C68.6102 180.275 69.4927 178.512 71.7988 176.352C73.805 174.606 75.8877 174.183 78.5033 174.152C79.2676 174.14 79.2676 174.14 80.0474 174.127C80.5973 174.123 81.1473 174.118 81.6972 174.113C82.2645 174.106 82.8319 174.098 83.3993 174.09C84.8862 174.069 86.3731 174.053 87.86 174.038C89.3799 174.022 90.8997 174.001 92.4196 173.981C95.3969 173.942 98.3743 173.908 101.352 173.876C101.352 171.743 101.352 169.609 101.352 167.41C98.2843 167.41 95.2169 167.41 92.0565 167.41C91.2563 163.809 91.2563 163.809 90.4399 160.136C88.5754 160.136 87.1968 161.307 85.6636 162.29C84.9224 162.74 84.9224 162.74 83.5695 163.369C82.1657 162.897 81.2781 161.984 80.2483 160.948C79.9167 160.616 79.5851 160.284 79.2434 159.943C78.8893 159.584 78.5352 159.226 78.1704 158.857C77.8049 158.49 77.4394 158.124 77.0628 157.746C76.0937 156.774 75.127 155.799 74.1608 154.824C73.1734 153.828 72.1837 152.835 71.1942 151.841C69.255 149.893 67.3182 147.943 65.3831 145.991C65.6992 145.346 66.0168 144.702 66.335 144.058C66.5117 143.7 66.6884 143.341 66.8705 142.971C67.3184 142.113 67.7875 141.329 68.3384 140.535C69.0957 139.616 69.0957 139.616 69.0204 138.716C65.4194 137.716 65.4194 137.716 61.7458 136.695C61.6124 128.293 61.4791 119.891 61.3416 111.234C63.6089 110.701 65.8761 110.167 68.2121 109.618C68.4788 109.484 68.7455 109.351 69.0204 109.214C68.4201 107.58 67.6346 106.138 66.7471 104.642C66.4918 104.21 66.2365 103.778 65.9735 103.333C65.7787 103.006 65.5838 102.68 65.3831 102.343C67.2522 100.098 69.2441 98.0249 71.3158 95.9669C71.6442 95.639 71.9727 95.3111 72.3111 94.9733C73.3518 93.9348 74.394 92.8978 75.4361 91.8608C76.1456 91.1534 76.8549 90.4458 77.5642 89.7382C79.2955 88.0114 81.0279 86.2857 82.7612 84.561C84.5865 85.1426 86.1168 85.8469 87.7625 86.8343C88.1907 87.0895 88.6189 87.3448 89.0601 87.6078C89.3821 87.8026 89.7041 87.9975 90.0358 88.1982C90.2245 87.6775 90.4087 87.1551 90.5915 86.6322C90.6946 86.3415 90.7978 86.0508 90.904 85.7513C91.4 84.0358 91.7063 82.2706 92.0565 80.5195C95.1239 80.5195 98.1914 80.5195 101.352 80.5195C101.352 76.2518 101.352 71.984 101.352 67.587C97.9428 67.5024 97.9428 67.5024 94.5336 67.4302C90.6445 67.31 87.2134 66.9408 84.2041 64.3096C83.2847 63.2027 82.6582 61.9706 81.9529 60.7165C75.2957 60.6788 68.6386 60.6503 61.9813 60.6328C58.8902 60.6244 55.7992 60.6131 52.7081 60.5946C50.0139 60.5785 47.3197 60.568 44.6254 60.5644C43.1988 60.5623 41.7724 60.5574 40.3458 60.5456C38.7531 60.5326 37.1606 60.5323 35.5678 60.533C35.0951 60.5272 34.6224 60.5214 34.1355 60.5154C31.0008 60.4754 31.0008 60.4754 28.6061 62.3331ZM125.823 63.7694C124.667 65.5931 122.717 66.5031 120.654 66.994C119.412 67.2042 118.213 67.2689 116.954 67.3107C116.516 67.3261 116.078 67.3415 115.626 67.3574C114.8 67.3835 114.8 67.3835 113.956 67.4101C112.197 67.4685 110.438 67.5268 108.626 67.587C108.626 71.8547 108.626 76.1225 108.626 80.5195C111.694 80.5195 114.761 80.5195 117.922 80.5195C118.322 82.7201 118.322 82.7201 118.73 84.9651C118.989 86.0453 119.254 87.1242 119.538 88.1982C121.632 87.4425 123.394 86.2682 125.261 85.0724C126.409 84.561 126.409 84.561 127.184 84.8366C128.143 85.4435 128.889 86.1182 129.699 86.9129C130.024 87.23 130.349 87.547 130.683 87.8737C131.03 88.2168 131.376 88.5599 131.733 88.9134C132.091 89.2663 132.448 89.6191 132.817 89.9827C133.571 90.7293 134.324 91.4771 135.076 92.2259C135.848 92.9945 136.624 93.759 137.403 94.5202C138.525 95.6175 139.639 96.7225 140.751 97.8298C141.102 98.1704 141.452 98.511 141.813 98.862C142.132 99.1829 142.45 99.5038 142.778 99.8344C143.062 100.115 143.345 100.395 143.637 100.684C144.191 101.535 144.191 101.535 144.119 102.576C143.533 104.303 142.491 105.762 141.523 107.297C141.336 107.663 141.15 108.029 140.958 108.405C141.091 108.805 141.224 109.206 141.362 109.618C142.095 109.936 142.095 109.936 142.993 110.09C143.287 110.152 143.581 110.215 143.885 110.28C144.261 110.353 144.637 110.426 145.024 110.502C146.216 110.744 147.408 110.985 148.636 111.234C148.636 114.302 148.636 117.369 148.636 120.53C151.148 120.651 153.65 120.755 156.162 120.818C157.014 120.845 157.866 120.88 158.717 120.926C163.842 121.389 163.842 121.389 168.337 119.415C169.508 118.145 170.375 116.75 171.268 115.276C171.863 114.526 172.468 113.783 173.087 113.053C173.377 112.697 173.666 112.341 173.965 111.975C175.394 110.236 176.852 108.521 178.309 106.806C178.653 106.4 178.997 105.994 179.351 105.576C179.876 105.061 179.876 105.061 180.411 104.535C181.767 102.893 181.651 101.244 181.621 99.192C181.624 98.6041 181.624 98.6041 181.627 98.0043C181.632 96.713 181.622 95.4222 181.612 94.1309C181.611 93.2322 181.611 92.3334 181.612 91.4346C181.611 89.5532 181.604 87.6719 181.591 85.7905C181.575 83.3778 181.573 80.9653 181.576 78.5525C181.577 76.6976 181.573 74.8428 181.566 72.988C181.563 72.0982 181.562 71.2084 181.562 70.3186C181.561 69.0764 181.553 67.8344 181.542 66.5922C181.543 66.2239 181.544 65.8556 181.545 65.4762C181.522 63.5171 181.522 63.5171 180.831 61.7133C179.622 60.6459 178.428 60.661 176.887 60.6407C176.461 60.6343 176.035 60.628 175.596 60.6214C174.895 60.614 174.895 60.614 174.18 60.6065C173.688 60.6 173.195 60.5934 172.688 60.5867C168.151 60.5301 163.613 60.4979 159.076 60.474C155.723 60.4559 152.371 60.4247 149.019 60.3763C146.66 60.3434 144.301 60.326 141.942 60.3199C140.533 60.3158 139.126 60.3048 137.718 60.2769C136.146 60.2461 134.574 60.2474 133.002 60.2513C132.537 60.2374 132.073 60.2235 131.595 60.2092C128.456 60.254 127.339 61.0114 125.823 63.7694ZM97.7145 87.3899C97.2143 89.1529 97.2143 89.1529 96.7041 90.9515C96.5459 91.5046 96.5459 91.5046 96.3844 92.0689C96.3024 92.3612 96.2203 92.6536 96.1358 92.9548C96.0511 93.2532 95.9665 93.5516 95.8793 93.8591C95.6484 94.7237 95.6484 94.7237 95.6938 95.8769C95.4104 95.9269 95.127 95.977 94.835 96.0285C93.6554 96.233 93.6554 96.233 92.6122 96.8242C90.5317 97.2287 89.3762 96.2323 87.6614 95.1192C87.3447 94.9228 87.0279 94.7264 86.7016 94.524C85.9221 94.0392 85.1481 93.5472 84.3778 93.0479C82.0628 94.9865 79.8692 97.0257 77.7094 99.1353C77.203 99.614 77.203 99.614 76.6864 100.102C76.3697 100.413 76.0529 100.724 75.7266 101.044C75.4377 101.323 75.1488 101.601 74.8512 101.889C74.1668 102.72 74.1668 102.72 74.3362 103.791C74.7997 105.115 75.5714 106.087 76.396 107.218C77.3582 108.633 77.9252 109.678 77.8547 111.443C77.5442 112.634 77.1873 113.743 76.6991 114.872C76.2656 114.913 75.8322 114.955 75.3856 114.998C73.0989 115.329 70.8577 115.928 68.6162 116.488C68.6162 121.423 68.6162 126.357 68.6162 131.441C72.6166 132.583 72.6166 132.583 76.6991 133.058C76.7491 133.333 76.7991 133.608 76.8506 133.892C77.0749 135.12 77.0749 135.12 77.6352 136.373C77.9682 138.223 77.6575 138.726 76.6699 140.232C76.3967 140.62 76.3967 140.62 76.1181 141.015C74.7944 142.727 74.7944 142.727 74.2977 144.728C74.8556 145.986 75.7775 146.834 76.7512 147.778C76.9569 147.982 77.1627 148.186 77.3746 148.396C78.0307 149.045 78.6909 149.69 79.3512 150.335C79.7975 150.775 80.2435 151.216 80.6892 151.656C81.7809 152.735 82.8762 153.809 83.9736 154.882C84.6211 154.567 85.2677 154.249 85.9138 153.931C86.274 153.755 86.6341 153.579 87.0052 153.397C88.0988 152.849 88.0988 152.849 89.3033 151.901C90.8172 151.026 91.6009 151.224 93.2689 151.649C93.6034 151.705 93.9378 151.761 94.2824 151.819C95.9714 152.889 96.1432 154.69 96.6283 156.549C96.9868 157.866 97.3452 159.183 97.7145 160.54C102.516 160.54 107.317 160.54 112.264 160.54C112.764 158.664 112.764 158.664 113.274 156.751C113.432 156.161 113.432 156.161 113.594 155.558C113.676 155.249 113.758 154.939 113.842 154.62C113.927 154.302 114.012 153.985 114.099 153.658C114.315 152.866 114.315 152.866 114.284 152.053C114.956 151.91 115.63 151.778 116.305 151.649C116.943 151.486 116.943 151.486 117.593 151.32C119.653 151.219 120.67 151.924 122.342 153.038C122.618 153.213 122.895 153.388 123.179 153.569C123.856 154 124.527 154.44 125.196 154.882C127.619 152.876 129.829 150.7 132.041 148.466C132.395 148.111 132.748 147.755 133.112 147.389C133.977 146.52 134.841 145.649 135.704 144.778C134.911 142.714 133.803 140.958 132.618 139.095C131.99 137.742 132.016 137.276 132.471 135.887C132.612 135.379 132.754 134.87 132.9 134.346C133.025 133.921 133.15 133.496 133.279 133.058C133.712 133.016 134.146 132.975 134.592 132.932C136.879 132.601 139.12 132.002 141.362 131.441C141.362 126.64 141.362 121.839 141.362 116.892C138.321 115.864 138.321 115.864 135.274 115.2C134.895 115.136 134.515 115.072 134.124 115.006C133.845 114.962 133.566 114.917 133.279 114.872C133.062 114.31 132.853 113.745 132.648 113.179C132.53 112.865 132.413 112.551 132.292 112.227C131.888 110.45 132.316 109.472 133.246 107.924C133.704 107.233 134.171 106.55 134.645 105.871C135.156 105.124 135.156 105.124 135.704 103.96C135.204 102.359 133.952 101.297 132.783 100.152C132.476 99.846 132.476 99.846 132.162 99.5337C131.509 98.8854 130.853 98.24 130.197 97.5945C129.753 97.1543 129.309 96.7138 128.865 96.2732C127.779 95.196 126.69 94.1213 125.6 93.0479C125.211 93.272 124.821 93.496 124.419 93.7268C123.904 94.0225 123.388 94.3183 122.872 94.614C122.616 94.7614 122.36 94.9089 122.096 95.0608C121.38 95.4709 120.661 95.8761 119.942 96.2811C119.645 96.4603 119.347 96.6395 119.041 96.8242C118.326 97.0894 118.326 97.0894 116.886 96.5337C116.428 96.3169 115.969 96.1002 115.497 95.8769C115.097 95.8769 114.697 95.8769 114.284 95.8769C114.172 95.3659 114.06 94.8548 113.945 94.3283C113.797 93.6573 113.649 92.9864 113.501 92.3154C113.391 91.8102 113.391 91.8102 113.278 91.2948C113.17 90.8084 113.17 90.8084 113.061 90.3121C112.995 90.0137 112.93 89.7153 112.862 89.4078C112.661 88.5263 112.661 88.5263 112.264 87.3899C107.462 87.3899 102.661 87.3899 97.7145 87.3899ZM8.39898 94.2604C8.39898 96.2609 8.39898 98.2614 8.39898 100.323C19.2017 100.323 30.0044 100.323 41.1345 100.323C41.1345 98.322 41.1345 96.3215 41.1345 94.2604C30.3318 94.2604 19.5291 94.2604 8.39898 94.2604ZM8.39898 107.597C8.39898 122.801 8.39898 138.005 8.39898 153.669C19.2017 153.669 30.0044 153.669 41.1345 153.669C41.1345 138.465 41.1345 123.262 41.1345 107.597C30.3318 107.597 19.5291 107.597 8.39898 107.597ZM185.009 109.618C182.685 112.126 180.442 114.665 178.294 117.326C177.172 118.703 176.029 120.06 174.88 121.414C174.682 121.647 174.485 121.88 174.281 122.121C173.816 122.668 173.35 123.216 172.885 123.763C174.637 126.216 176.569 128.476 178.553 130.742C180.245 132.677 181.875 134.65 183.472 136.665C184.206 137.584 184.206 137.584 185.413 138.312C185.624 138.052 185.835 137.792 186.053 137.524C187.956 135.188 189.883 132.876 191.834 130.58C193.628 128.465 195.386 126.321 197.134 124.167C195.444 121.821 193.614 119.631 191.725 117.447C190.101 115.567 188.523 113.657 186.965 111.722C186.343 110.976 185.71 110.288 185.009 109.618ZM148.636 127.4C148.503 130.467 148.37 133.535 148.232 136.695C145.698 137.362 143.164 138.029 140.554 138.716C141.596 140.489 141.596 140.489 142.645 142.258C142.776 142.483 142.906 142.708 143.04 142.939C143.173 143.165 143.307 143.392 143.444 143.625C143.885 144.588 144.104 145.333 144.191 146.395C143.606 147.285 143.606 147.285 142.704 148.189C142.37 148.53 142.035 148.871 141.69 149.222C141.322 149.584 140.954 149.946 140.574 150.319C140.201 150.694 139.827 151.069 139.442 151.455C138.651 152.248 137.856 153.036 137.058 153.821C136.034 154.829 135.021 155.846 134.01 156.867C133.046 157.839 132.074 158.802 131.102 159.766C130.738 160.133 130.374 160.5 129.998 160.878C129.657 161.212 129.316 161.545 128.965 161.889C128.516 162.333 128.516 162.333 128.058 162.787C127.217 163.369 127.217 163.369 126.387 163.306C125.092 162.744 123.884 162.037 122.67 161.323C122.408 161.17 122.145 161.018 121.875 160.861C121.229 160.486 120.586 160.109 119.942 159.731C119.213 161.048 118.835 162.34 118.477 163.798C118.372 164.22 118.267 164.641 118.158 165.075C117.88 166.204 117.88 166.204 117.922 167.41C114.854 167.41 111.787 167.41 108.626 167.41C108.626 169.544 108.626 171.678 108.626 173.876C109.752 173.879 109.752 173.879 110.899 173.881C113.392 173.889 115.884 173.906 118.376 173.93C119.885 173.944 121.395 173.954 122.904 173.955C124.364 173.957 125.823 173.969 127.283 173.987C127.837 173.992 128.391 173.994 128.945 173.992C132.686 173.982 135.869 174.322 138.778 176.87C140.915 179.227 141.404 181.413 141.596 184.485C141.628 184.996 141.661 185.506 141.695 186.032C141.719 186.422 141.742 186.812 141.766 187.213C146.632 187.26 151.497 187.296 156.363 187.318C158.622 187.328 160.881 187.343 163.141 187.366C165.321 187.388 167.501 187.4 169.681 187.405C170.513 187.409 171.345 187.416 172.177 187.427C173.342 187.441 174.507 187.443 175.672 187.443C176.016 187.45 176.36 187.457 176.715 187.465C178.468 187.449 179.147 187.372 180.579 186.262C181.518 184.996 181.592 184.396 181.498 182.843C181.48 182.449 181.462 182.055 181.443 181.648C181.408 181.202 181.408 181.202 181.372 180.747C181.01 180.741 180.649 180.735 180.276 180.73C176.653 180.587 173.578 180.215 170.915 177.569C168.414 174.473 168.293 171.357 168.288 167.511C168.278 167.099 168.268 166.686 168.258 166.261C168.246 163.035 168.678 159.789 170.791 157.222C173.743 154.296 177.428 154.021 181.372 153.669C182.027 147.87 182.027 147.87 179.831 142.757C179.142 142.074 178.443 141.401 177.735 140.737C176.971 139.88 176.243 138.995 175.512 138.11C175.136 137.665 174.759 137.221 174.382 136.777C170.007 131.607 170.007 131.607 169.093 130.143C167.825 128.197 167.825 128.197 165.868 127.079C164.751 126.98 163.688 126.99 162.568 127.045C161.969 127.053 161.969 127.053 161.357 127.06C160.088 127.081 158.821 127.126 157.553 127.173C156.69 127.191 155.826 127.208 154.963 127.222C152.852 127.259 150.747 127.33 148.636 127.4ZM175.31 162.965C175.005 163.974 175.005 163.974 175.041 165.036C175.039 165.421 175.036 165.807 175.034 166.204C175.041 166.602 175.049 167 175.057 167.41C175.049 167.808 175.042 168.206 175.034 168.616C175.036 169.002 175.039 169.387 175.041 169.785C175.044 170.134 175.046 170.483 175.048 170.842C175.441 172.365 176.074 172.945 177.331 173.876C178.496 174.162 179.62 174.16 180.816 174.145C181.316 174.148 181.316 174.148 181.826 174.151C182.529 174.152 183.231 174.148 183.933 174.14C185.006 174.129 186.077 174.14 187.15 174.153C187.834 174.151 188.518 174.149 189.202 174.145C189.521 174.149 189.841 174.153 190.169 174.157C191.83 174.122 192.521 173.999 193.899 172.985C194.786 171.747 194.968 171.183 194.977 169.682C194.98 169.276 194.982 168.871 194.985 168.453C194.977 168.034 194.969 167.615 194.961 167.183C194.969 166.762 194.977 166.341 194.985 165.908C194.981 165.3 194.981 165.3 194.977 164.681C194.975 164.313 194.972 163.944 194.97 163.565C194.771 162.492 194.771 162.492 193.899 161.634C192.286 160.715 191.029 160.704 189.202 160.715C188.869 160.712 188.536 160.71 188.192 160.707C187.49 160.705 186.788 160.706 186.085 160.711C185.012 160.717 183.941 160.703 182.869 160.687C182.184 160.687 181.5 160.688 180.816 160.69C180.497 160.684 180.178 160.679 179.849 160.673C177.678 160.71 176.641 161.115 175.31 162.965ZM75.8908 181.959C74.8681 183.493 74.9659 184.727 74.9751 186.504C74.9744 186.831 74.9736 187.157 74.9728 187.493C74.9723 188.183 74.9737 188.873 74.9771 189.563C74.9814 190.618 74.9772 191.672 74.972 192.727C74.9725 193.397 74.9736 194.068 74.9751 194.739C74.9735 195.054 74.9719 195.369 74.9702 195.693C74.9609 197.859 74.9609 197.859 75.8908 199.742C77.2032 200.565 78.2404 200.653 79.7748 200.658C80.2365 200.661 80.6983 200.665 81.1741 200.668C81.679 200.668 82.184 200.668 82.7043 200.667C83.2374 200.67 83.7704 200.673 84.3197 200.675C85.7809 200.683 87.2421 200.685 88.7034 200.685C89.6166 200.686 90.5297 200.687 91.4428 200.689C94.6289 200.697 97.8151 200.7 101.001 200.7C103.97 200.699 106.94 200.708 109.909 200.72C112.459 200.731 115.009 200.735 117.559 200.735C119.082 200.735 120.605 200.737 122.128 200.745C123.56 200.753 124.991 200.753 126.424 200.747C127.199 200.746 127.974 200.753 128.749 200.76C129.212 200.757 129.675 200.753 130.152 200.75C130.553 200.75 130.955 200.751 131.368 200.751C132.78 200.493 133.462 199.911 134.491 198.933C135.123 197.67 134.97 196.322 134.978 194.934C134.98 194.617 134.982 194.3 134.985 193.974C134.988 193.302 134.991 192.631 134.993 191.959C134.997 190.934 135.009 189.91 135.022 188.886C135.025 188.233 135.027 187.58 135.028 186.927C135.036 186.469 135.036 186.469 135.043 186.002C135.036 184.183 134.878 182.96 133.683 181.555C132.213 180.83 131.022 180.645 129.392 180.642C128.94 180.639 128.488 180.636 128.022 180.633C127.53 180.634 127.038 180.635 126.531 180.636C126.01 180.634 125.488 180.632 124.951 180.63C123.524 180.624 122.097 180.624 120.67 180.625C119.478 180.625 118.286 180.623 117.094 180.622C114.281 180.617 111.469 180.617 108.656 180.619C105.756 180.622 102.856 180.617 99.9557 180.608C97.4639 180.601 94.9721 180.599 92.4802 180.6C90.9927 180.601 89.5053 180.6 88.0178 180.594C86.3595 180.588 84.7013 180.592 83.043 180.596C82.5508 180.593 82.0587 180.59 81.5516 180.587C81.0994 180.59 80.6473 180.593 80.1815 180.596C79.5937 180.596 79.5937 180.596 78.9939 180.595C77.694 180.777 76.9455 181.187 75.8908 181.959Z" fill="url(#paint0_linear_157_11244)"/>
<path id="Vector_2" d="M119.493 105.257C120.496 106.137 121.439 107.044 122.367 108.001C122.598 108.229 122.829 108.456 123.068 108.691C127.199 113.067 128.633 119.008 128.571 124.858C128.371 131.028 125.885 136.718 121.558 141.141C115.819 145.983 109.667 148.064 102.159 147.607C95.3984 146.665 89.6468 143.243 85.517 137.818C81.5952 131.834 80.5855 125.142 81.826 118.157C83.7018 111.646 87.5129 106.607 93.3384 103.14C101.714 98.6886 111.959 99.4948 119.493 105.257ZM91.5933 114.283C88.9276 117.813 87.9721 121.809 88.4186 126.188C89.3112 130.826 91.4008 134.624 95.2133 137.478C99.3156 140.068 103.419 140.972 108.222 140.333C112.849 139.277 116.196 136.677 118.906 132.831C121.324 128.862 122.131 124.656 121.129 120.05C119.778 115.417 116.907 111.659 112.724 109.24C104.911 105.348 97.0145 107.854 91.5933 114.283Z" fill="url(#paint1_linear_157_11244)"/>
<path id="Vector_3" d="M110.732 115.392C113.075 117.021 114.528 118.886 115.092 121.742C115.379 125.297 115.01 128.085 112.794 130.936C110.742 133.177 108.098 134.169 105.115 134.371C101.955 134.307 99.4787 133.219 97.201 131.037C95.0312 128.529 94.5906 125.903 94.7051 122.638C95.1201 119.639 96.5423 117.194 98.9454 115.349C102.789 113.02 106.888 113.151 110.732 115.392ZM102.16 122.146C101.677 123.624 101.623 124.288 102.286 125.707C102.893 126.627 102.893 126.627 103.776 126.995C105.231 127.153 105.936 127.189 107.136 126.313C107.899 125.268 108.157 124.648 108.222 123.358C107.761 122.014 107.427 121.75 106.201 120.933C104.45 120.747 103.369 120.802 102.16 122.146Z" fill="url(#paint2_linear_157_11244)"/>
<path id="Vector_4" d="M14.4609 140.333C21.2627 140.333 28.0644 140.333 35.0722 140.333C35.0722 142.733 35.0722 145.134 35.0722 147.607C28.2705 147.607 21.4688 147.607 14.4609 147.607C14.4609 145.206 14.4609 142.806 14.4609 140.333Z" fill="url(#paint3_linear_157_11244)"/>
<path id="Vector_5" d="M14.4609 126.996C21.2627 126.996 28.0644 126.996 35.0722 126.996C35.0722 129.396 35.0722 131.797 35.0722 134.27C28.2705 134.27 21.4688 134.27 14.4609 134.27C14.4609 131.87 14.4609 129.469 14.4609 126.996Z" fill="url(#paint4_linear_157_11244)"/>
<path id="Vector_6" d="M14.4609 113.659C21.2627 113.659 28.0644 113.659 35.0722 113.659C35.0722 116.06 35.0722 118.46 35.0722 120.934C28.2705 120.934 21.4688 120.934 14.4609 120.934C14.4609 118.533 14.4609 116.133 14.4609 113.659Z" fill="url(#paint5_linear_157_11244)"/>
</g>
<defs>
<linearGradient id="paint0_linear_157_11244" x1="0.960937" y1="103.982" x2="234.852" y2="151.566" gradientUnits="userSpaceOnUse">
<stop offset="0.295" stop-color="#4B1790"/>
<stop offset="0.865" stop-color="#D17BDF"/>
</linearGradient>
<linearGradient id="paint1_linear_157_11244" x1="81.3262" y1="123.979" x2="135.081" y2="134.986" gradientUnits="userSpaceOnUse">
<stop offset="0.295" stop-color="#4B1790"/>
<stop offset="0.865" stop-color="#D17BDF"/>
</linearGradient>
<linearGradient id="paint2_linear_157_11244" x1="94.6885" y1="124.014" x2="118.014" y2="128.751" gradientUnits="userSpaceOnUse">
<stop offset="0.295" stop-color="#4B1790"/>
<stop offset="0.865" stop-color="#D17BDF"/>
</linearGradient>
<linearGradient id="paint3_linear_157_11244" x1="14.4609" y1="143.97" x2="32.7157" y2="154.59" gradientUnits="userSpaceOnUse">
<stop offset="0.295" stop-color="#4B1790"/>
<stop offset="0.865" stop-color="#D17BDF"/>
</linearGradient>
<linearGradient id="paint4_linear_157_11244" x1="14.4609" y1="130.633" x2="32.7157" y2="141.253" gradientUnits="userSpaceOnUse">
<stop offset="0.295" stop-color="#4B1790"/>
<stop offset="0.865" stop-color="#D17BDF"/>
</linearGradient>
<linearGradient id="paint5_linear_157_11244" x1="14.4609" y1="117.296" x2="32.7157" y2="127.917" gradientUnits="userSpaceOnUse">
<stop offset="0.295" stop-color="#4B1790"/>
<stop offset="0.865" stop-color="#D17BDF"/>
</linearGradient>
<clipPath id="clip0_157_11244">
<rect width="206.921" height="206.921" fill="white" transform="translate(0.316406 0.499023)"/>
</clipPath>
</defs>
</svg>
