<svg width="208" height="208" viewBox="0 0 208 208" fill="none" xmlns="http://www.w3.org/2000/svg">
<path d="M13.5753 3.41137C14.0502 3.40925 14.0502 3.40925 14.5347 3.40708C15.5996 3.40331 16.6644 3.4053 17.7293 3.40727C18.4989 3.40576 19.2685 3.4039 20.0381 3.40172C22.1561 3.39676 24.2742 3.39688 26.3922 3.39783C28.6752 3.398 30.9582 3.39354 33.2413 3.3897C37.7153 3.38298 42.1894 3.38077 46.6635 3.38032C50.2995 3.37993 53.9354 3.37827 57.5714 3.37571C66.1981 3.36975 74.8248 3.36478 83.4515 3.3652C83.8654 3.36522 83.8654 3.36522 84.2877 3.36524C85.6862 3.36531 87.0848 3.36539 88.4833 3.36547C88.7611 3.36548 89.0388 3.3655 89.325 3.36552C89.8867 3.36555 90.4484 3.36558 91.0101 3.36562C99.7494 3.36611 108.489 3.36005 117.228 3.34899C127.045 3.33658 136.862 3.32963 146.679 3.33037C151.878 3.33064 157.076 3.32841 162.275 3.31972C166.701 3.31237 171.126 3.31059 175.552 3.31609C177.811 3.31873 180.07 3.31876 182.328 3.31176C184.396 3.30543 186.463 3.30654 188.53 3.31361C189.279 3.31485 190.027 3.31336 190.775 3.30887C191.792 3.30317 192.808 3.30744 193.825 3.31417C194.116 3.31016 194.406 3.30614 194.706 3.302C197.294 3.33823 199.346 4.23779 201.273 5.92599C201.491 6.18908 201.708 6.45217 201.933 6.72323C202.157 6.98527 202.381 7.24732 202.612 7.5173C203.948 9.45761 204.121 11.2346 204.108 13.5414C204.109 13.858 204.111 14.1746 204.112 14.5008C204.116 15.5657 204.114 16.6305 204.112 17.6954C204.114 18.465 204.115 19.2346 204.118 20.0042C204.123 22.1222 204.122 24.2402 204.121 26.3583C204.121 28.6413 204.126 30.9243 204.13 33.2073C204.136 37.6814 204.139 42.1555 204.139 46.6295C204.139 50.2655 204.141 53.9015 204.144 57.5375C204.15 66.1642 204.155 74.7909 204.154 83.4176C204.154 83.8315 204.154 83.8315 204.154 84.2537C204.154 85.6523 204.154 87.0508 204.154 88.4494C204.154 88.7271 204.154 89.0049 204.154 89.2911C204.154 89.8527 204.154 90.4144 204.154 90.9761C204.153 99.7154 204.159 108.455 204.17 117.194C204.183 127.011 204.19 136.828 204.189 146.645C204.189 151.844 204.191 157.042 204.2 162.241C204.207 166.667 204.209 171.093 204.203 175.518C204.201 177.777 204.201 180.036 204.208 182.294C204.214 184.362 204.213 186.429 204.206 188.496C204.204 189.245 204.206 189.993 204.21 190.741C204.216 191.758 204.212 192.774 204.205 193.791C204.209 194.082 204.213 194.372 204.217 194.672C204.181 197.26 203.282 199.312 201.593 201.239C201.33 201.457 201.067 201.674 200.796 201.899C200.534 202.123 200.272 202.347 200.002 202.578C198.062 203.915 196.285 204.087 193.978 204.074C193.503 204.076 193.503 204.076 193.019 204.078C191.954 204.082 190.889 204.08 189.824 204.078C189.054 204.08 188.285 204.081 187.515 204.084C185.397 204.089 183.279 204.089 181.161 204.088C178.878 204.087 176.595 204.092 174.312 204.096C169.838 204.102 165.364 204.105 160.89 204.105C157.254 204.105 153.618 204.107 149.982 204.11C141.355 204.116 132.728 204.121 124.102 204.12C123.688 204.12 123.688 204.12 123.266 204.12C121.867 204.12 120.468 204.12 119.07 204.12C118.792 204.12 118.514 204.12 118.228 204.12C117.667 204.12 117.105 204.12 116.543 204.12C107.804 204.119 99.0646 204.125 90.3254 204.136C80.5082 204.149 70.6911 204.156 60.8739 204.155C55.6754 204.155 50.4769 204.157 45.2784 204.166C40.8526 204.173 36.4268 204.175 32.0009 204.169C29.7422 204.167 27.4836 204.167 25.225 204.174C23.1576 204.18 21.0903 204.179 19.0229 204.172C18.2747 204.171 17.5266 204.172 16.7784 204.177C15.7614 204.182 14.7449 204.178 13.7279 204.171C13.2921 204.177 13.2921 204.177 12.8476 204.183C10.2588 204.147 8.20689 203.248 6.2804 201.559C6.06264 201.296 5.84487 201.033 5.62051 200.762C5.39649 200.5 5.17248 200.238 4.94168 199.968C3.60478 198.028 3.43224 196.251 3.44531 193.944C3.44389 193.627 3.44247 193.311 3.44101 192.985C3.43724 191.92 3.43924 190.855 3.4412 189.79C3.43969 189.02 3.43783 188.251 3.43565 187.481C3.4307 185.363 3.43082 183.245 3.43177 181.127C3.43193 178.844 3.42747 176.561 3.42364 174.278C3.41692 169.804 3.4147 165.33 3.41425 160.856C3.41387 157.22 3.41221 153.584 3.40965 149.948C3.40368 141.321 3.39871 132.695 3.39914 124.068C3.39915 123.792 3.39916 123.516 3.39917 123.232C3.39924 121.833 3.39932 120.435 3.3994 119.036C3.39942 118.758 3.39944 118.48 3.39945 118.194C3.39949 117.633 3.39952 117.071 3.39955 116.509C3.40005 107.77 3.39398 99.0307 3.38293 90.2914C3.37051 80.4743 3.36356 70.6571 3.36431 60.84C3.36457 55.6415 3.36234 50.443 3.35365 45.2445C3.3463 40.8186 3.34453 36.3928 3.35002 31.967C3.35267 29.7083 3.35269 27.4497 3.3457 25.191C3.33936 23.1236 3.34048 21.0564 3.34754 18.989C3.34879 18.2408 3.3473 17.4926 3.34281 16.7445C3.33711 15.7274 3.34137 14.7109 3.34811 13.6939C3.34409 13.4035 3.34007 13.113 3.33594 12.8137C3.37217 10.2249 4.27173 8.17296 5.95993 6.24646C6.22301 6.0287 6.4861 5.81094 6.75716 5.58657C7.01921 5.36256 7.28125 5.13854 7.55124 4.90774C9.49154 3.57084 11.2685 3.39831 13.5753 3.41137ZM10.8238 11.1941C6.16983 22.8291 10.0156 36.248 10.0156 48.7793C37.7559 48.7793 65.4962 48.7793 94.0772 48.7793C94.0772 38.1099 94.0772 27.4406 94.0772 16.4479C111.148 16.4479 128.219 16.4479 145.807 16.4479C145.807 27.1173 145.807 37.7866 145.807 48.7793C147.941 48.7793 150.075 48.7793 152.274 48.7793C152.274 38.1099 152.274 27.4406 152.274 16.4479C165.077 16.4479 177.88 16.4479 191.071 16.4479C191.071 27.1173 191.071 37.7866 191.071 48.7793C193.205 48.7793 195.339 48.7793 197.538 48.7793C197.565 44.1842 197.587 39.589 197.601 34.9938C197.607 32.86 197.615 30.7263 197.629 28.5925C197.642 26.5329 197.65 24.4733 197.653 22.4136C197.655 21.6282 197.659 20.8429 197.666 20.0576C197.675 18.9566 197.676 17.8558 197.675 16.7548C197.68 16.4309 197.684 16.1071 197.689 15.7734C197.678 13.8332 197.468 12.4341 196.325 10.7899C194.664 9.89962 193.077 9.86727 191.235 9.87878C190.928 9.87748 190.62 9.87619 190.304 9.87485C189.271 9.87149 188.238 9.8739 187.204 9.87627C186.457 9.87505 185.711 9.87347 184.964 9.87158C182.909 9.86741 180.854 9.86831 178.799 9.87004C176.583 9.87103 174.368 9.86739 172.153 9.86436C167.812 9.8592 163.471 9.85849 159.13 9.85943C155.603 9.86015 152.076 9.85945 148.548 9.85773C148.047 9.85749 147.545 9.85725 147.028 9.857C146.01 9.85651 144.991 9.85602 143.972 9.85553C137.129 9.85238 130.287 9.8508 123.444 9.85242C123.176 9.85248 122.909 9.85255 122.633 9.85261C121.276 9.85294 119.92 9.85328 118.563 9.85363C118.159 9.85373 118.159 9.85373 117.747 9.85384C117.202 9.85398 116.657 9.85412 116.112 9.85426C107.634 9.85643 99.1548 9.85322 90.676 9.84576C81.1522 9.83739 71.6285 9.83306 62.1047 9.83468C57.0611 9.83545 52.0176 9.83443 46.9741 9.82873C42.6808 9.82392 38.3875 9.82334 34.0941 9.82824C31.9027 9.83063 29.7113 9.83104 27.5198 9.82622C25.5148 9.82185 23.5099 9.82306 21.5049 9.82875C20.7785 9.82982 20.0521 9.82884 19.3257 9.82562C18.34 9.82156 17.3547 9.82493 16.369 9.83018C16.0855 9.82723 15.802 9.82427 15.5099 9.82123C13.661 9.84172 12.3605 10.1536 10.8238 11.1941ZM100.543 22.9142C100.543 31.4497 100.543 39.9852 100.543 48.7793C113.347 48.7793 126.15 48.7793 139.341 48.7793C139.341 40.2438 139.341 31.7083 139.341 22.9142C126.538 22.9142 113.735 22.9142 100.543 22.9142ZM158.74 22.9142C158.74 31.4497 158.74 39.9852 158.74 48.7793C167.275 48.7793 175.811 48.7793 184.605 48.7793C184.605 40.2438 184.605 31.7083 184.605 22.9142C176.07 22.9142 167.534 22.9142 158.74 22.9142ZM10.0156 55.2456C9.99055 78.1347 9.96555 101.024 9.93978 124.607C9.92875 131.843 9.91771 139.079 9.90634 146.534C9.90228 153.002 9.90228 153.002 9.89984 159.47C9.89871 162.358 9.89425 165.246 9.88756 168.134C9.87985 171.463 9.87633 174.792 9.87802 178.121C9.87875 179.825 9.87757 181.529 9.87102 183.233C9.86514 184.773 9.86482 186.313 9.86898 187.853C9.86949 188.41 9.86795 188.967 9.86415 189.525C9.85928 190.284 9.86263 191.042 9.86637 191.801C9.86591 192.222 9.86545 192.644 9.86498 193.078C10.0484 194.531 10.4279 195.469 11.228 196.695C12.8229 197.675 14.4965 197.618 16.3182 197.607C16.6255 197.608 16.9328 197.609 17.2494 197.611C18.2826 197.614 19.3157 197.611 20.349 197.609C21.0958 197.61 21.8426 197.612 22.5895 197.614C24.6446 197.618 26.6996 197.617 28.7547 197.615C30.9699 197.614 33.1852 197.618 35.4004 197.621C39.7413 197.626 44.0822 197.627 48.4231 197.626C51.9504 197.625 55.4777 197.626 59.005 197.628C59.5065 197.628 60.0081 197.628 60.5248 197.628C61.5435 197.629 62.5623 197.629 63.581 197.63C70.4238 197.633 77.2665 197.635 84.1093 197.633C84.3769 197.633 84.6446 197.633 84.9203 197.633C86.2768 197.632 87.6334 197.632 88.9899 197.632C89.2593 197.632 89.5287 197.632 89.8063 197.632C90.3512 197.631 90.896 197.631 91.4408 197.631C99.9196 197.629 108.398 197.632 116.877 197.64C126.401 197.648 135.925 197.652 145.449 197.651C150.492 197.65 155.536 197.651 160.579 197.657C164.872 197.661 169.166 197.662 173.459 197.657C175.651 197.655 177.842 197.654 180.033 197.659C182.038 197.664 184.043 197.662 186.048 197.657C186.775 197.656 187.501 197.657 188.228 197.66C189.213 197.664 190.199 197.66 191.184 197.655C191.468 197.658 191.751 197.661 192.043 197.664C193.892 197.644 195.193 197.332 196.729 196.291C197.587 194.832 197.638 193.521 197.637 191.851C197.639 191.362 197.64 190.874 197.642 190.371C197.64 189.83 197.637 189.29 197.635 188.75C197.635 188.176 197.636 187.602 197.637 187.028C197.639 185.448 197.636 183.869 197.632 182.289C197.628 180.56 197.629 178.831 197.63 177.103C197.63 173.746 197.626 170.389 197.621 167.032C197.615 163.15 197.615 159.268 197.614 155.386C197.61 145.135 197.599 134.883 197.588 124.632C197.563 90.2856 197.563 90.2856 197.538 55.2456C135.655 55.2456 73.7731 55.2456 10.0156 55.2456Z" fill="url(#paint0_linear_157_11251)"/>
<path d="M16.4824 61.7117C39.955 61.7117 63.4276 61.7117 87.6115 61.7117C87.6115 85.1843 87.6115 108.657 87.6115 132.841C64.1389 132.841 40.6663 132.841 16.4824 132.841C16.4824 109.368 16.4824 85.8956 16.4824 61.7117ZM22.9487 68.1779C22.9487 87.3828 22.9487 106.588 22.9487 126.374C25.0826 126.374 27.2164 126.374 29.415 126.374C29.4207 125.89 29.4264 125.407 29.4323 124.908C29.5969 118.096 30.9778 112.652 35.6792 107.481C37.4462 105.89 39.2228 104.349 41.1351 102.934C40.9497 102.709 40.7642 102.484 40.5731 102.252C36.6866 97.4186 35.7932 93.3215 36.2854 87.1726C37.0833 83.0965 39.4031 79.9717 42.7012 77.5237C47.0805 74.7066 51.9311 74.3004 57.0151 75.3136C61.7254 76.8549 64.7105 80.0862 67.0397 84.3468C68.5247 87.8693 68.4838 93.1394 67.1518 96.6953C66.2172 98.6246 65.0125 100.386 63.7671 102.126C63.5004 102.526 63.2336 102.926 62.9588 103.338C63.1979 103.49 63.4371 103.642 63.6834 103.798C65.5237 104.99 67.1388 106.146 68.6168 107.784C68.9083 108.087 68.9083 108.087 69.2057 108.396C70.9429 110.279 72.0593 112.306 73.0624 114.654C73.1879 114.947 73.3135 115.24 73.4428 115.542C74.6864 118.99 74.571 122.75 74.6789 126.374C76.8128 126.374 78.9467 126.374 81.1452 126.374C81.1452 107.17 81.1452 87.9648 81.1452 68.1779C61.9404 68.1779 42.7355 68.1779 22.9487 68.1779ZM44.0557 85.6192C42.4665 88.008 42.4693 90.4548 42.7517 93.2348C43.4684 95.9202 45.3571 97.7505 47.6014 99.2969C50.0258 100.485 52.8079 100.549 55.4064 99.8558C57.8833 98.7624 59.8225 96.7069 61.0076 94.2893C61.7779 91.862 61.7724 88.9901 60.736 86.6422C59.3295 84.2445 57.1248 82.3506 54.4718 81.5147C49.7337 80.9383 47.073 82.0456 44.0557 85.6192ZM39.1902 113.543C36.235 117.623 36.2057 121.183 35.8813 126.374C46.5506 126.374 57.22 126.374 68.2127 126.374C67.7916 119.638 67.3073 115.591 62.5278 111.028C58.8953 107.967 55.0619 107.017 50.3783 107.227C45.6764 107.687 42.1964 109.975 39.1902 113.543Z" fill="url(#paint1_linear_157_11251)"/>
<path d="M16.4824 139.307C39.955 139.307 63.4276 139.307 87.6115 139.307C87.6115 147.842 87.6115 156.378 87.6115 165.172C64.1389 165.172 40.6663 165.172 16.4824 165.172C16.4824 156.637 16.4824 148.101 16.4824 139.307ZM22.9487 145.773C22.9487 150.041 22.9487 154.309 22.9487 158.706C25.0826 158.706 27.2164 158.706 29.415 158.706C29.415 154.438 29.415 150.17 29.415 145.773C27.2811 145.773 25.1472 145.773 22.9487 145.773ZM35.8813 145.773C35.8813 150.041 35.8813 154.309 35.8813 158.706C38.0151 158.706 40.149 158.706 42.3475 158.706C42.3475 154.438 42.3475 150.17 42.3475 145.773C40.2137 145.773 38.0798 145.773 35.8813 145.773ZM48.8138 145.773C48.8138 150.041 48.8138 154.309 48.8138 158.706C50.9477 158.706 53.0816 158.706 55.2801 158.706C55.2801 154.438 55.2801 150.17 55.2801 145.773C53.1462 145.773 51.0124 145.773 48.8138 145.773ZM61.7464 145.773C61.7464 150.041 61.7464 154.309 61.7464 158.706C63.8803 158.706 66.0141 158.706 68.2127 158.706C68.2127 154.438 68.2127 150.17 68.2127 145.773C66.0788 145.773 63.9449 145.773 61.7464 145.773ZM74.6789 145.773C74.6789 150.041 74.6789 154.309 74.6789 158.706C76.8128 158.706 78.9467 158.706 81.1452 158.706C81.1452 154.438 81.1452 150.17 81.1452 145.773C79.0113 145.773 76.8775 145.773 74.6789 145.773Z" fill="url(#paint2_linear_157_11251)"/>
<path d="M132.875 61.7117C152.08 61.7117 171.285 61.7117 191.072 61.7117C191.072 78.7827 191.072 95.8536 191.072 113.442C171.867 113.442 152.662 113.442 132.875 113.442C132.875 96.3709 132.875 79.3 132.875 61.7117ZM139.341 68.178C139.341 80.9812 139.341 93.7844 139.341 106.976C154.278 106.976 169.215 106.976 184.605 106.976C184.605 94.1724 184.605 81.3692 184.605 68.178C169.668 68.178 154.731 68.178 139.341 68.178Z" fill="url(#paint3_linear_157_11251)"/>
<path d="M132.875 171.638C152.08 171.638 171.285 171.638 191.072 171.638C191.072 178.04 191.072 184.442 191.072 191.037C171.867 191.037 152.662 191.037 132.875 191.037C132.875 184.636 132.875 178.234 132.875 171.638ZM139.341 178.105C139.341 180.239 139.341 182.372 139.341 184.571C145.743 184.571 152.145 184.571 158.74 184.571C158.74 182.437 158.74 180.303 158.74 178.105C152.339 178.105 145.937 178.105 139.341 178.105ZM165.206 178.105C165.206 180.239 165.206 182.372 165.206 184.571C171.608 184.571 178.01 184.571 184.605 184.571C184.605 182.437 184.605 180.303 184.605 178.105C178.204 178.105 171.802 178.105 165.206 178.105Z" fill="url(#paint4_linear_157_11251)"/>
<path d="M94.0771 100.509C104.747 100.509 115.416 100.509 126.409 100.509C126.409 109.045 126.409 117.58 126.409 126.374C115.739 126.374 105.07 126.374 94.0771 126.374C94.0771 117.839 94.0771 109.303 94.0771 100.509ZM100.543 106.976C100.543 111.243 100.543 115.511 100.543 119.908C106.945 119.908 113.347 119.908 119.942 119.908C119.942 115.64 119.942 111.373 119.942 106.976C113.541 106.976 107.139 106.976 100.543 106.976Z" fill="url(#paint5_linear_157_11251)"/>
<path d="M94.0771 68.178C104.747 68.178 115.416 68.178 126.409 68.178C126.409 76.7135 126.409 85.249 126.409 94.0431C115.739 94.0431 105.07 94.0431 94.0771 94.0431C94.0771 85.5076 94.0771 76.9721 94.0771 68.178ZM100.543 74.6443C100.543 78.912 100.543 83.1797 100.543 87.5768C106.945 87.5768 113.347 87.5768 119.942 87.5768C119.942 83.3091 119.942 79.0413 119.942 74.6443C113.541 74.6443 107.139 74.6443 100.543 74.6443Z" fill="url(#paint6_linear_157_11251)"/>
<path d="M94.0771 171.638C104.747 171.638 115.416 171.638 126.409 171.638C126.409 178.04 126.409 184.442 126.409 191.037C115.739 191.037 105.07 191.037 94.0771 191.037C94.0771 184.636 94.0771 178.234 94.0771 171.638ZM100.543 178.105C100.543 180.239 100.543 182.372 100.543 184.571C106.945 184.571 113.347 184.571 119.942 184.571C119.942 182.437 119.942 180.303 119.942 178.105C113.541 178.105 107.139 178.105 100.543 178.105Z" fill="url(#paint7_linear_157_11251)"/>
<path d="M132.875 145.773C152.08 145.773 171.285 145.773 191.072 145.773C191.072 147.907 191.072 150.041 191.072 152.239C171.867 152.239 152.662 152.239 132.875 152.239C132.875 150.106 132.875 147.972 132.875 145.773Z" fill="url(#paint8_linear_157_11251)"/>
<path d="M132.875 132.841C152.08 132.841 171.285 132.841 191.072 132.841C191.072 134.975 191.072 137.109 191.072 139.307C171.867 139.307 152.662 139.307 132.875 139.307C132.875 137.173 132.875 135.039 132.875 132.841Z" fill="url(#paint9_linear_157_11251)"/>
<path d="M82.5337 17.0538C84.8878 18.4764 86.7952 20.6869 87.6107 23.3181C87.9361 26.4849 88.0652 29.6304 85.9942 32.2092C84.0525 34.2482 82.2915 35.6871 79.419 35.9822C75.9772 36.0202 73.5967 35.894 71.0551 33.4737C68.4759 30.6836 68.0177 28.4904 68.0888 24.7104C68.3698 21.533 69.8477 19.8628 72.2139 17.84C75.0689 15.8729 79.3636 15.6491 82.5337 17.0538ZM75.7391 23.9748C74.8855 25.2223 74.835 25.8756 75.0823 27.3595C75.6885 28.3698 75.6885 28.3698 76.6989 28.976C78.1828 29.2234 78.8361 29.1729 80.0836 28.3193C80.9372 27.0718 80.9876 26.4185 80.7403 24.9346C80.1341 23.9243 80.1341 23.9243 79.1237 23.3181C77.6399 23.0707 76.9866 23.1212 75.7391 23.9748Z" fill="url(#paint10_linear_157_11251)"/>
<path d="M56.6685 17.0538C59.0225 18.4764 60.93 20.6869 61.7455 23.3181C62.0709 26.4849 62.2 29.6304 60.1289 32.2092C58.1872 34.2482 56.4263 35.6871 53.5537 35.9822C50.112 36.0202 47.7315 35.894 45.1899 33.4737C42.6107 30.6836 42.1525 28.4904 42.2235 24.7104C42.5045 21.533 43.9824 19.8628 46.3486 17.84C49.2036 15.8729 53.4984 15.6491 56.6685 17.0538ZM49.8738 23.9748C49.0202 25.2223 48.9698 25.8756 49.2171 27.3595C49.8233 28.3698 49.8233 28.3698 50.8337 28.976C52.3175 29.2234 52.9708 29.1729 54.2183 28.3193C55.0719 27.0718 55.1224 26.4185 54.8751 24.9346C54.2689 23.9243 54.2689 23.9243 53.2585 23.3181C51.7746 23.0707 51.1213 23.1212 49.8738 23.9748Z" fill="url(#paint11_linear_157_11251)"/>
<path d="M30.8032 17.0538C33.1573 18.4764 35.0648 20.6869 35.8803 23.3181C36.2057 26.4849 36.3348 29.6304 34.2637 32.2092C32.322 34.2482 30.561 35.6871 27.6885 35.9822C24.2467 36.0202 21.8662 35.894 19.3246 33.4737C16.7455 30.6836 16.2873 28.4904 16.3583 24.7104C16.6393 21.533 18.1172 19.8628 20.4834 17.84C23.3384 15.8729 27.6331 15.6491 30.8032 17.0538ZM24.0086 23.9748C23.155 25.2223 23.1045 25.8756 23.3519 27.3595C23.9581 28.3698 23.9581 28.3698 24.9684 28.976C26.4523 29.2234 27.1056 29.1729 28.3531 28.3193C29.2067 27.0718 29.2572 26.4185 29.0098 24.9346C28.4036 23.9243 28.4036 23.9243 27.3933 23.3181C25.9094 23.0707 25.2561 23.1212 24.0086 23.9748Z" fill="url(#paint12_linear_157_11251)"/>
<path d="M48.8135 171.638C61.6167 171.638 74.4199 171.638 87.6112 171.638C87.6112 173.772 87.6112 175.906 87.6112 178.105C74.8079 178.105 62.0047 178.105 48.8135 178.105C48.8135 175.971 48.8135 173.837 48.8135 171.638Z" fill="url(#paint13_linear_157_11251)"/>
<path d="M16.4824 184.571C27.1518 184.571 37.8211 184.571 48.8138 184.571C48.8138 186.705 48.8138 188.839 48.8138 191.037C38.1445 191.037 27.4751 191.037 16.4824 191.037C16.4824 188.903 16.4824 186.77 16.4824 184.571Z" fill="url(#paint14_linear_157_11251)"/>
<path d="M94.0771 158.706C104.747 158.706 115.416 158.706 126.409 158.706C126.409 160.84 126.409 162.974 126.409 165.172C115.739 165.172 105.07 165.172 94.0771 165.172C94.0771 163.038 94.0771 160.904 94.0771 158.706Z" fill="url(#paint15_linear_157_11251)"/>
<path d="M94.0771 145.773C104.747 145.773 115.416 145.773 126.409 145.773C126.409 147.907 126.409 150.041 126.409 152.239C115.739 152.239 105.07 152.239 94.0771 152.239C94.0771 150.106 94.0771 147.972 94.0771 145.773Z" fill="url(#paint16_linear_157_11251)"/>
<path d="M94.0771 132.841C104.747 132.841 115.416 132.841 126.409 132.841C126.409 134.975 126.409 137.109 126.409 139.307C115.739 139.307 105.07 139.307 94.0771 139.307C94.0771 137.173 94.0771 135.039 94.0771 132.841Z" fill="url(#paint17_linear_157_11251)"/>
<path d="M158.74 119.908C169.41 119.908 180.079 119.908 191.072 119.908C191.072 122.042 191.072 124.176 191.072 126.374C180.402 126.374 169.733 126.374 158.74 126.374C158.74 124.241 158.74 122.107 158.74 119.908Z" fill="url(#paint18_linear_157_11251)"/>
<path d="M16.4824 171.638C25.0179 171.638 33.5534 171.638 42.3475 171.638C42.3475 173.772 42.3475 175.906 42.3475 178.105C33.8121 178.105 25.2766 178.105 16.4824 178.105C16.4824 175.971 16.4824 173.837 16.4824 171.638Z" fill="url(#paint19_linear_157_11251)"/>
<path d="M132.875 119.908C139.277 119.908 145.678 119.908 152.274 119.908C152.274 122.042 152.274 124.176 152.274 126.374C145.872 126.374 139.471 126.374 132.875 126.374C132.875 124.241 132.875 122.107 132.875 119.908Z" fill="url(#paint20_linear_157_11251)"/>
<path d="M81.1445 184.571C83.2784 184.571 85.4123 184.571 87.6108 184.571C87.6108 186.705 87.6108 188.839 87.6108 191.037C85.4769 191.037 83.3431 191.037 81.1445 191.037C81.1445 188.903 81.1445 186.77 81.1445 184.571Z" fill="url(#paint21_linear_157_11251)"/>
<path d="M68.2119 184.571C70.3458 184.571 72.4797 184.571 74.6782 184.571C74.6782 186.705 74.6782 188.839 74.6782 191.037C72.5443 191.037 70.4104 191.037 68.2119 191.037C68.2119 188.903 68.2119 186.77 68.2119 184.571Z" fill="url(#paint22_linear_157_11251)"/>
<path d="M55.2793 184.571C57.4132 184.571 59.547 184.571 61.7456 184.571C61.7456 186.705 61.7456 188.839 61.7456 191.037C59.6117 191.037 57.4778 191.037 55.2793 191.037C55.2793 188.903 55.2793 186.77 55.2793 184.571Z" fill="url(#paint23_linear_157_11251)"/>
<path d="M178.139 158.706C180.273 158.706 182.406 158.706 184.605 158.706C184.605 160.84 184.605 162.974 184.605 165.172C182.471 165.172 180.337 165.172 178.139 165.172C178.139 163.038 178.139 160.904 178.139 158.706Z" fill="url(#paint24_linear_157_11251)"/>
<path d="M165.206 158.706C167.34 158.706 169.474 158.706 171.672 158.706C171.672 160.84 171.672 162.974 171.672 165.172C169.538 165.172 167.405 165.172 165.206 165.172C165.206 163.038 165.206 160.904 165.206 158.706Z" fill="url(#paint25_linear_157_11251)"/>
<path d="M152.273 158.706C154.407 158.706 156.541 158.706 158.74 158.706C158.74 160.84 158.74 162.974 158.74 165.172C156.606 165.172 154.472 165.172 152.273 165.172C152.273 163.038 152.273 160.904 152.273 158.706Z" fill="url(#paint26_linear_157_11251)"/>
<path d="M139.342 158.706C141.476 158.706 143.61 158.706 145.808 158.706C145.808 160.84 145.808 162.974 145.808 165.172C143.674 165.172 141.54 165.172 139.342 165.172C139.342 163.038 139.342 160.904 139.342 158.706Z" fill="url(#paint27_linear_157_11251)"/>
<defs>
<linearGradient id="paint0_linear_157_11251" x1="3.33594" y1="103.743" x2="231.836" y2="150.662" gradientUnits="userSpaceOnUse">
<stop offset="0.295" stop-color="#4B1790"/>
<stop offset="0.865" stop-color="#D17BDF"/>
</linearGradient>
<linearGradient id="paint1_linear_157_11251" x1="16.4824" y1="97.2762" x2="97.3909" y2="113.89" gradientUnits="userSpaceOnUse">
<stop offset="0.295" stop-color="#4B1790"/>
<stop offset="0.865" stop-color="#D17BDF"/>
</linearGradient>
<linearGradient id="paint2_linear_157_11251" x1="16.4824" y1="152.239" x2="80.4164" y2="188.341" gradientUnits="userSpaceOnUse">
<stop offset="0.295" stop-color="#4B1790"/>
<stop offset="0.865" stop-color="#D17BDF"/>
</linearGradient>
<linearGradient id="paint3_linear_157_11251" x1="132.875" y1="87.5768" x2="198.369" y2="102.706" gradientUnits="userSpaceOnUse">
<stop offset="0.295" stop-color="#4B1790"/>
<stop offset="0.865" stop-color="#D17BDF"/>
</linearGradient>
<linearGradient id="paint4_linear_157_11251" x1="132.875" y1="181.338" x2="182.886" y2="212.145" gradientUnits="userSpaceOnUse">
<stop offset="0.295" stop-color="#4B1790"/>
<stop offset="0.865" stop-color="#D17BDF"/>
</linearGradient>
<linearGradient id="paint5_linear_157_11251" x1="94.0771" y1="113.442" x2="130.035" y2="122.671" gradientUnits="userSpaceOnUse">
<stop offset="0.295" stop-color="#4B1790"/>
<stop offset="0.865" stop-color="#D17BDF"/>
</linearGradient>
<linearGradient id="paint6_linear_157_11251" x1="94.0771" y1="81.1105" x2="130.035" y2="90.3399" gradientUnits="userSpaceOnUse">
<stop offset="0.295" stop-color="#4B1790"/>
<stop offset="0.865" stop-color="#D17BDF"/>
</linearGradient>
<linearGradient id="paint7_linear_157_11251" x1="94.0771" y1="181.338" x2="128.386" y2="193.079" gradientUnits="userSpaceOnUse">
<stop offset="0.295" stop-color="#4B1790"/>
<stop offset="0.865" stop-color="#D17BDF"/>
</linearGradient>
<linearGradient id="paint8_linear_157_11251" x1="132.875" y1="149.006" x2="148.5" y2="177.882" gradientUnits="userSpaceOnUse">
<stop offset="0.295" stop-color="#4B1790"/>
<stop offset="0.865" stop-color="#D17BDF"/>
</linearGradient>
<linearGradient id="paint9_linear_157_11251" x1="132.875" y1="136.074" x2="148.5" y2="164.95" gradientUnits="userSpaceOnUse">
<stop offset="0.295" stop-color="#4B1790"/>
<stop offset="0.865" stop-color="#D17BDF"/>
</linearGradient>
<linearGradient id="paint10_linear_157_11251" x1="68.082" y1="26.0706" x2="90.5185" y2="30.6502" gradientUnits="userSpaceOnUse">
<stop offset="0.295" stop-color="#4B1790"/>
<stop offset="0.865" stop-color="#D17BDF"/>
</linearGradient>
<linearGradient id="paint11_linear_157_11251" x1="42.2168" y1="26.0706" x2="64.6533" y2="30.6502" gradientUnits="userSpaceOnUse">
<stop offset="0.295" stop-color="#4B1790"/>
<stop offset="0.865" stop-color="#D17BDF"/>
</linearGradient>
<linearGradient id="paint12_linear_157_11251" x1="16.3516" y1="26.0706" x2="38.7881" y2="30.6502" gradientUnits="userSpaceOnUse">
<stop offset="0.295" stop-color="#4B1790"/>
<stop offset="0.865" stop-color="#D17BDF"/>
</linearGradient>
<linearGradient id="paint13_linear_157_11251" x1="48.8135" y1="174.872" x2="67.08" y2="197.376" gradientUnits="userSpaceOnUse">
<stop offset="0.295" stop-color="#4B1790"/>
<stop offset="0.865" stop-color="#D17BDF"/>
</linearGradient>
<linearGradient id="paint14_linear_157_11251" x1="16.4824" y1="187.804" x2="35.1416" y2="206.961" gradientUnits="userSpaceOnUse">
<stop offset="0.295" stop-color="#4B1790"/>
<stop offset="0.865" stop-color="#D17BDF"/>
</linearGradient>
<linearGradient id="paint15_linear_157_11251" x1="94.0771" y1="161.939" x2="112.736" y2="181.096" gradientUnits="userSpaceOnUse">
<stop offset="0.295" stop-color="#4B1790"/>
<stop offset="0.865" stop-color="#D17BDF"/>
</linearGradient>
<linearGradient id="paint16_linear_157_11251" x1="94.0771" y1="149.006" x2="112.736" y2="168.163" gradientUnits="userSpaceOnUse">
<stop offset="0.295" stop-color="#4B1790"/>
<stop offset="0.865" stop-color="#D17BDF"/>
</linearGradient>
<linearGradient id="paint17_linear_157_11251" x1="94.0771" y1="136.074" x2="112.736" y2="155.231" gradientUnits="userSpaceOnUse">
<stop offset="0.295" stop-color="#4B1790"/>
<stop offset="0.865" stop-color="#D17BDF"/>
</linearGradient>
<linearGradient id="paint18_linear_157_11251" x1="158.74" y1="123.141" x2="177.399" y2="142.298" gradientUnits="userSpaceOnUse">
<stop offset="0.295" stop-color="#4B1790"/>
<stop offset="0.865" stop-color="#D17BDF"/>
</linearGradient>
<linearGradient id="paint19_linear_157_11251" x1="16.4824" y1="174.872" x2="34.7923" y2="189.91" gradientUnits="userSpaceOnUse">
<stop offset="0.295" stop-color="#4B1790"/>
<stop offset="0.865" stop-color="#D17BDF"/>
</linearGradient>
<linearGradient id="paint20_linear_157_11251" x1="132.875" y1="123.141" x2="149.545" y2="133.41" gradientUnits="userSpaceOnUse">
<stop offset="0.295" stop-color="#4B1790"/>
<stop offset="0.865" stop-color="#D17BDF"/>
</linearGradient>
<linearGradient id="paint21_linear_157_11251" x1="81.1445" y1="187.804" x2="88.4998" y2="189.314" gradientUnits="userSpaceOnUse">
<stop offset="0.295" stop-color="#4B1790"/>
<stop offset="0.865" stop-color="#D17BDF"/>
</linearGradient>
<linearGradient id="paint22_linear_157_11251" x1="68.2119" y1="187.804" x2="75.5672" y2="189.314" gradientUnits="userSpaceOnUse">
<stop offset="0.295" stop-color="#4B1790"/>
<stop offset="0.865" stop-color="#D17BDF"/>
</linearGradient>
<linearGradient id="paint23_linear_157_11251" x1="55.2793" y1="187.804" x2="62.6346" y2="189.314" gradientUnits="userSpaceOnUse">
<stop offset="0.295" stop-color="#4B1790"/>
<stop offset="0.865" stop-color="#D17BDF"/>
</linearGradient>
<linearGradient id="paint24_linear_157_11251" x1="178.139" y1="161.939" x2="185.494" y2="163.449" gradientUnits="userSpaceOnUse">
<stop offset="0.295" stop-color="#4B1790"/>
<stop offset="0.865" stop-color="#D17BDF"/>
</linearGradient>
<linearGradient id="paint25_linear_157_11251" x1="165.206" y1="161.939" x2="172.561" y2="163.449" gradientUnits="userSpaceOnUse">
<stop offset="0.295" stop-color="#4B1790"/>
<stop offset="0.865" stop-color="#D17BDF"/>
</linearGradient>
<linearGradient id="paint26_linear_157_11251" x1="152.273" y1="161.939" x2="159.629" y2="163.449" gradientUnits="userSpaceOnUse">
<stop offset="0.295" stop-color="#4B1790"/>
<stop offset="0.865" stop-color="#D17BDF"/>
</linearGradient>
<linearGradient id="paint27_linear_157_11251" x1="139.342" y1="161.939" x2="146.697" y2="163.449" gradientUnits="userSpaceOnUse">
<stop offset="0.295" stop-color="#4B1790"/>
<stop offset="0.865" stop-color="#D17BDF"/>
</linearGradient>
</defs>
</svg>
