<svg width="167" height="167" viewBox="0 0 167 167" fill="none" xmlns="http://www.w3.org/2000/svg">
<g id="external-drive">
<g id="devices">
<g id="external-drive_2">
<path id="Vector" d="M51.8579 15.3519H114.692C121.631 15.3698 128.28 18.1389 133.181 23.052C138.082 27.9654 140.834 34.622 140.834 41.5619V90.6711C140.834 92.4089 140.144 94.0756 138.915 95.3044C137.686 96.5332 136.019 97.2236 134.281 97.2236H32.2004C30.4626 97.2236 28.7959 96.5332 27.5671 95.3044C26.3382 94.0756 25.6479 92.4089 25.6479 90.6711V41.5619C25.6479 34.6105 28.4093 27.9439 33.3246 23.0286C38.2399 18.1133 44.9066 15.3519 51.8579 15.3519Z" stroke="url(#paint0_linear_1_2721)" stroke-width="2.06921"/>
<path id="Vector_2" d="M109.872 136.444L110.447 135.583L109.872 136.444C111.177 137.315 112.71 137.78 114.279 137.78C116.383 137.78 118.4 136.945 119.888 135.457C121.375 133.97 122.211 131.952 122.211 129.848C122.211 128.28 121.746 126.746 120.874 125.442C120.003 124.137 118.764 123.121 117.314 122.52C115.865 121.92 114.27 121.763 112.732 122.069C111.193 122.375 109.78 123.13 108.67 124.24C107.561 125.349 106.806 126.762 106.499 128.301C106.193 129.84 106.35 131.435 106.951 132.884C107.551 134.333 108.568 135.572 109.872 136.444ZM32.2004 110.191H134.281C136.019 110.191 137.686 110.881 138.915 112.11C140.144 113.339 140.834 115.006 140.834 116.743V125.917C140.834 132.63 138.167 139.069 133.42 143.816C128.673 148.563 122.234 151.23 115.521 151.23H50.9612C47.637 151.23 44.3454 150.576 41.2742 149.303C38.2031 148.031 35.4125 146.167 33.062 143.816C28.3148 139.069 25.6479 132.63 25.6479 125.917V116.743C25.6479 115.006 26.3382 113.339 27.5671 112.11C28.7959 110.881 30.4626 110.191 32.2004 110.191Z" stroke="url(#paint1_linear_1_2721)" stroke-width="2.06921"/>
<path id="Vector_3" d="M53.3769 50.6668H44.9621C44.2828 50.6668 43.6101 50.533 42.9825 50.2731C42.3548 50.0131 41.7846 49.6321 41.3042 49.1517C40.8238 48.6713 40.4428 48.1011 40.1828 47.4735C39.9229 46.8458 39.7891 46.1732 39.7891 45.4938C39.7891 44.8145 39.9229 44.1418 40.1828 43.5142C40.4428 42.8866 40.8238 42.3163 41.3042 41.8359C41.7846 41.3556 42.3548 40.9745 42.9825 40.7146C43.6101 40.4546 44.2828 40.3208 44.9621 40.3208H53.3769C54.7488 40.3208 56.0646 40.8658 57.0348 41.8359C58.0049 42.8061 58.5499 44.1219 58.5499 45.4938C58.5499 46.8658 58.0049 48.1816 57.0348 49.1517C56.0646 50.1218 54.7488 50.6668 53.3769 50.6668Z" fill="url(#paint2_linear_1_2721)"/>
<path id="Vector_4" d="M53.3769 67.9096H44.9621C43.5901 67.9096 42.2743 67.3646 41.3042 66.3945C40.3341 65.4244 39.7891 64.1086 39.7891 62.7366C39.7891 61.3647 40.3341 60.0489 41.3042 59.0787C42.2743 58.1086 43.5901 57.5636 44.9621 57.5636H53.3769C54.7488 57.5636 56.0646 58.1086 57.0348 59.0787C58.0049 60.0489 58.5499 61.3647 58.5499 62.7366C58.5499 64.1086 58.0049 65.4244 57.0348 66.3945C56.0646 67.3646 54.7488 67.9096 53.3769 67.9096Z" fill="url(#paint3_linear_1_2721)"/>
<path id="Vector_5" d="M53.3769 85.1533H44.9621C43.5901 85.1533 42.2743 84.6083 41.3042 83.6382C40.3341 82.668 39.7891 81.3522 39.7891 79.9803C39.7891 78.6083 40.3341 77.2925 41.3042 76.3224C42.2743 75.3523 43.5901 74.8073 44.9621 74.8073H53.3769C54.7488 74.8073 56.0646 75.3523 57.0348 76.3224C58.0049 77.2925 58.5499 78.6083 58.5499 79.9803C58.5499 81.3522 58.0049 82.668 57.0348 83.6382C56.0646 84.6083 54.7488 85.1533 53.3769 85.1533Z" fill="url(#paint4_linear_1_2721)"/>
</g>
</g>
</g>
<defs>
<linearGradient id="paint0_linear_1_2721" x1="24.6133" y1="56.2877" x2="153.047" y2="93.1262" gradientUnits="userSpaceOnUse">
<stop offset="0.295" stop-color="#4B1790"/>
<stop offset="0.865" stop-color="#D17BDF"/>
</linearGradient>
<linearGradient id="paint1_linear_1_2721" x1="24.6133" y1="130.711" x2="130.563" y2="189.885" gradientUnits="userSpaceOnUse">
<stop offset="0.295" stop-color="#4B1790"/>
<stop offset="0.865" stop-color="#D17BDF"/>
</linearGradient>
<linearGradient id="paint2_linear_1_2721" x1="39.7891" y1="45.4938" x2="59.3211" y2="52.7664" gradientUnits="userSpaceOnUse">
<stop offset="0.295" stop-color="#4B1790"/>
<stop offset="0.865" stop-color="#D17BDF"/>
</linearGradient>
<linearGradient id="paint3_linear_1_2721" x1="39.7891" y1="62.7366" x2="59.3211" y2="70.0092" gradientUnits="userSpaceOnUse">
<stop offset="0.295" stop-color="#4B1790"/>
<stop offset="0.865" stop-color="#D17BDF"/>
</linearGradient>
<linearGradient id="paint4_linear_1_2721" x1="39.7891" y1="79.9803" x2="59.3211" y2="87.2529" gradientUnits="userSpaceOnUse">
<stop offset="0.295" stop-color="#4B1790"/>
<stop offset="0.865" stop-color="#D17BDF"/>
</linearGradient>
</defs>
</svg>
