<svg width="167" height="167" viewBox="0 0 167 167" fill="none" xmlns="http://www.w3.org/2000/svg">
<g id="icon">
<g id="general">
<g id="icon_2">
<path id="Vector" d="M151.403 83.2909C151.403 120.813 120.986 151.23 83.4639 151.23C45.9422 151.23 15.5248 120.813 15.5248 83.2909C15.5248 45.7692 45.9422 15.3519 83.4639 15.3519C120.986 15.3519 151.403 45.7692 151.403 83.2909Z" stroke="url(#paint0_linear_1_2709)" stroke-width="2.06921"/>
<path id="Vector_2" d="M90.4486 110.454L90.5873 111.179L91.3176 111.284C99.4067 112.447 107.567 113.049 115.739 113.088L115.746 113.088C125.814 113.063 135.859 112.158 145.767 110.385C144.364 113.568 142.722 116.642 140.856 119.579C132.535 120.743 124.145 121.34 115.744 121.364C107.068 121.352 98.4051 120.71 89.8225 119.444L87.4891 119.1L88.8162 121.05C94.9251 130.025 101.875 138.397 109.57 146.052C106.745 147.212 103.847 148.188 100.895 148.972C93.6538 141.416 87.0709 133.256 81.2178 124.579L80.9101 124.123H80.3601H79.1892C76.6066 124.119 74.1013 123.242 72.0802 121.634C70.0591 120.027 68.6409 117.783 68.0559 115.267L67.9164 114.668L67.3226 114.504C49.1641 109.508 31.8811 101.754 16.077 91.5135C15.7399 88.7833 15.5555 86.0363 15.5248 83.2853V81.2957C31.6518 92.6239 49.5828 101.146 68.5607 106.496L70.8277 107.135L69.7647 105.034C63.2729 92.1972 58.3233 78.6374 55.0191 64.6374L54.8714 64.0118L54.2451 63.867C51.6796 63.2741 49.3947 61.8202 47.7709 59.7473C46.1472 57.6744 45.2827 55.1078 45.3213 52.475L45.3215 52.4671L45.3215 52.4592C45.3203 50.5227 45.8132 48.618 46.7536 46.9252C47.6941 45.2324 49.0509 43.8076 50.6957 42.7856L51.2556 42.4377L51.1768 41.7832C50.4729 35.9336 50.086 30.0503 50.0176 24.1591C52.6822 22.6634 55.4457 21.3516 58.2885 20.2327V20.2375V20.2448V20.2521V20.2593V20.2666V20.2739V20.2812V20.2884V20.2957V20.303V20.3103V20.3175V20.3248V20.3321V20.3394V20.3466V20.3539V20.3612V20.3685V20.3757V20.383V20.3903V20.3976V20.4048V20.4121V20.4194V20.4267V20.4339V20.4412V20.4485V20.4558V20.463V20.4703V20.4776V20.4849V20.4921V20.4994V20.5067V20.514V20.5212V20.5285V20.5358V20.5431V20.5503V20.5576V20.5649V20.5722V20.5794V20.5867V20.594V20.6013V20.6085V20.6158V20.6231V20.6304V20.6376V20.6449V20.6522V20.6594V20.6667V20.674V20.6813V20.6885V20.6958V20.7031V20.7104V20.7176V20.7249V20.7322V20.7395V20.7467V20.754V20.7613V20.7686V20.7758V20.7831V20.7904V20.7977V20.8049V20.8122V20.8195V20.8268V20.834V20.8413V20.8486V20.8559V20.8631V20.8704V20.8777V20.885V20.8922V20.8995V20.9068V20.9141V20.9213V20.9286V20.9359V20.9432V20.9504V20.9577V20.965V20.9723V20.9795V20.9868V20.9941V21.0014V21.0086V21.0159V21.0232V21.0305V21.0377V21.045V21.0523V21.0596V21.0668V21.0741V21.0814V21.0886V21.0959V21.1032V21.1105V21.1177V21.125V21.1323V21.1396V21.1468V21.1541V21.1614V21.1687V21.1759V21.1832V21.1905V21.1978V21.205V21.2123V21.2196V21.2269V21.2341V21.2414V21.2487V21.256V21.2632V21.2705V21.2778V21.2851V21.2923V21.2996V21.3069V21.3142V21.3214V21.3287V21.336V21.3433V21.3505V21.3578V21.3651V21.3724V21.3796V21.3869V21.3942V21.4015V21.4087V21.416V21.4233V21.4306V21.4378V21.4451V21.4524V21.4597V21.4669V21.4742V21.4815V21.4887V21.496V21.5033V21.5106V21.5178V21.5251V21.5324V21.5397V21.5469V21.5542V21.5615V21.5688V21.576V21.5833V21.5906V21.5979V21.6051V21.6124V21.6197V21.627V21.6342V21.6415V21.6488V21.6561V21.6633V21.6706V21.6779V21.6852V21.6924V21.6997V21.707V21.7143V21.7215V21.7288V21.7361V21.7434V21.7506V21.7579V21.7652V21.7725V21.7797V21.787V21.7943V21.8016V21.8088V21.8161V21.8234V21.8307V21.8379V21.8452V21.8525V21.8598V21.867V21.8743V21.8816V21.8889V21.8961V21.9034V21.9107V21.9179V21.9252V21.9325V21.9398V21.947V21.9543V21.9616V21.9689V21.9761V21.9834V21.9907V21.998V22.0052V22.0125V22.0198V22.0271V22.0343V22.0416V22.0489V22.0562V22.0634V22.0707V22.078V22.0853V22.0925V22.0998V22.1071V22.1144V22.1216V22.1289V22.1362V22.1435V22.1507V22.158V22.1653V22.1726V22.1798V22.1871V22.1944V22.2017V22.2089V22.2162V22.2235V22.2308V22.238V22.2453V22.2526V22.2599V22.2671V22.2744V22.2817V22.289V22.2962V22.3035V22.3108V22.318V22.3253V22.3326V22.3399V22.3471V22.3544V22.3617V22.369V22.3762V22.3835V22.3908V22.3981V22.4053V22.4126V22.4199V22.4272V22.4344V22.4417V22.449L58.2885 22.4563L58.2885 22.4621C58.3229 28.5579 58.6702 34.648 59.3292 40.7082L59.4041 41.3971L60.0696 41.59C62.1196 42.1843 63.9611 43.343 65.3839 44.9339C66.8067 46.5248 67.7535 48.4837 68.1161 50.587C68.4788 52.6903 68.2426 54.8532 67.4347 56.8287C66.6268 58.8042 65.2796 60.5127 63.5471 61.7591L62.984 62.1642L63.1449 62.8389C66.2608 75.9059 70.8705 88.5709 76.8829 100.584L77.1689 101.155H77.8081H79.1875H79.1888C81.8547 101.152 84.4381 102.079 86.4936 103.777C88.5491 105.474 89.9479 107.836 90.4486 110.454Z" fill="url(#paint1_linear_1_2709)" stroke="url(#paint2_linear_1_2709)" stroke-width="2.06921"/>
<path id="Vector_3" d="M125.027 72.271L124.668 72.9807L125.262 73.5101C133.024 80.4336 141.812 86.1108 151.312 90.3405C150.934 93.1443 150.37 95.9195 149.621 98.6475C138.2 93.8033 127.699 87.0217 118.583 78.5995L118.177 78.2247L117.64 78.3533C116.697 78.579 115.733 78.7081 114.764 78.7386C111.727 78.7171 108.821 77.4967 106.678 75.3427C104.532 73.1843 103.327 70.2641 103.327 67.2201V67.2127L103.327 67.2054C103.307 65.7621 103.584 64.3302 104.143 62.9993L104.366 62.4674L104.031 61.9979C94.1688 48.1767 87.7645 32.199 85.3469 15.4049C88.3255 15.5659 91.288 15.9519 94.2089 16.5597C96.5317 30.8205 101.993 44.3908 110.2 56.2889L110.687 56.9949L111.472 56.6472C112.544 56.1718 113.678 55.8534 114.841 55.7016C117.862 55.7185 120.756 56.9214 122.899 59.0528C125.055 61.1967 126.276 64.1058 126.295 67.1457C126.265 68.928 125.832 70.6803 125.027 72.271Z" fill="url(#paint3_linear_1_2709)" stroke="url(#paint4_linear_1_2709)" stroke-width="2.06921"/>
</g>
</g>
</g>
<defs>
<linearGradient id="paint0_linear_1_2709" x1="14.4902" y1="83.2909" x2="171.404" y2="115.511" gradientUnits="userSpaceOnUse">
<stop offset="0.295" stop-color="#4B1790"/>
<stop offset="0.865" stop-color="#D17BDF"/>
</linearGradient>
<linearGradient id="paint1_linear_1_2709" x1="14.4902" y1="84.4291" x2="165.606" y2="115.833" gradientUnits="userSpaceOnUse">
<stop offset="0.295" stop-color="#4B1790"/>
<stop offset="0.865" stop-color="#D17BDF"/>
</linearGradient>
<linearGradient id="paint2_linear_1_2709" x1="14.4902" y1="84.4291" x2="165.606" y2="115.833" gradientUnits="userSpaceOnUse">
<stop offset="0.295" stop-color="#4B1790"/>
<stop offset="0.865" stop-color="#D17BDF"/>
</linearGradient>
<linearGradient id="paint3_linear_1_2709" x1="84.1523" y1="57.1844" x2="162.991" y2="70.0778" gradientUnits="userSpaceOnUse">
<stop offset="0.295" stop-color="#4B1790"/>
<stop offset="0.865" stop-color="#D17BDF"/>
</linearGradient>
<linearGradient id="paint4_linear_1_2709" x1="84.1523" y1="57.1844" x2="162.991" y2="70.0778" gradientUnits="userSpaceOnUse">
<stop offset="0.295" stop-color="#4B1790"/>
<stop offset="0.865" stop-color="#D17BDF"/>
</linearGradient>
</defs>
</svg>
