<svg width="208" height="208" viewBox="0 0 208 208" fill="none" xmlns="http://www.w3.org/2000/svg">
<g id="Simplification" clip-path="url(#clip0_157_7317)">
<path id="Vector" d="M40.5572 1.03209C41.0833 1.0224 41.0833 1.0224 41.62 1.01252C41.9976 1.01035 42.3752 1.00818 42.7643 1.00595C43.1535 1.0023 43.5426 0.99865 43.9435 0.994891C44.7667 0.989027 45.5898 0.985437 46.4129 0.983945C47.6727 0.979133 48.9316 0.959254 50.1912 0.938853C50.9908 0.935029 51.7904 0.932105 52.59 0.930171C52.9668 0.922277 53.3437 0.914383 53.7319 0.90625C56.339 0.924444 56.339 0.924444 57.6273 2.08873C58.3627 3.45771 58.6457 4.70433 58.919 6.23296C58.9695 6.49944 59.02 6.76591 59.0721 7.04046C59.3104 8.34337 59.4241 9.52523 59.4241 10.8553C59.8336 10.9726 59.8336 10.9726 60.2514 11.0921C60.6119 11.1974 60.9724 11.3026 61.3438 11.411C61.7001 11.5142 62.0565 11.6173 62.4236 11.7236C63.4656 12.0678 63.4656 12.0678 64.3054 12.5382C65.0539 12.9321 65.0539 12.9321 65.8194 12.8397C67.4069 12.1757 68.7831 11.1086 70.1757 10.1078C71.3936 9.28041 72.2895 8.84856 73.7507 8.54573C75.8779 8.97398 76.9185 10.1534 78.4188 11.6636C78.7636 11.9989 79.1085 12.3342 79.4637 12.6797C80.5981 13.7887 81.7197 14.9093 82.8391 16.0334C83.2298 16.4226 83.6205 16.8118 84.0113 17.2009C84.5618 17.7522 84.5618 17.7522 85.1235 18.3146C85.4564 18.6479 85.7892 18.9813 86.1322 19.3247C87.0358 20.2894 87.2767 20.7257 87.4631 22.0324C87.2213 24.1665 85.9426 25.5227 84.6696 27.1963C83.5068 28.7889 83.5068 28.7889 83.2938 30.7152C83.6596 31.8309 84.0443 32.913 84.5062 33.9925C85.2893 35.8316 85.2893 35.8316 85.2893 36.7205C85.6495 36.7431 85.6495 36.7431 86.017 36.7662C92.1795 37.255 92.1795 37.255 94.437 38.7848C95.291 39.9685 95.1039 41.0211 95.0645 42.4542C95.048 43.2255 95.048 43.2255 95.0313 44.0124C95.0172 44.4068 95.0032 44.8011 94.9887 45.2075C99.5088 46.1234 104.871 46.775 108.935 44.1479C114.035 40.2145 118.324 35.1524 122.47 30.2542C122.346 29.9438 122.222 29.6335 122.094 29.3137C120.496 25.3167 119.984 20.4724 121.435 16.3113C123.3 12.4954 126.536 9.56517 130.441 7.9853C134.005 7.00827 138.465 7.10428 141.814 8.73044C145.528 10.9167 148.098 13.6181 149.548 17.7258C149.548 18.1259 149.548 18.526 149.548 18.9382C158.083 18.9382 166.619 18.9382 175.413 18.9382C175.546 18.138 175.68 17.3378 175.817 16.5133C177.613 12.4928 180.614 9.62631 184.708 8.02634C188.077 6.89074 193.126 7.10862 196.318 8.64992C200.086 11.0648 202.926 14.1793 204.107 18.534C204.237 19.7231 204.261 20.9 204.259 22.0956C204.258 22.4187 204.257 22.7418 204.257 23.0747C204.206 25.5091 203.828 27.3749 202.491 29.4459C202.257 29.8627 202.024 30.2794 201.783 30.7088C199.508 33.6156 196.49 36.02 192.791 36.7205C187.661 37.0926 183.505 36.4543 179.458 33.0816C177.611 31.246 176.249 29.0826 175.413 26.6169C175.413 26.0834 175.413 25.55 175.413 25.0003C167.011 25.1337 158.609 25.2671 149.952 25.4045C149.285 27.0049 148.618 28.6053 147.931 30.2542C145.533 33.5362 142.35 36.0033 138.232 36.7205C134.885 36.9607 132.002 36.9797 128.957 35.418C127.926 35.0272 127.541 35.1447 126.512 35.508C125.817 36.0284 125.817 36.0284 125.178 36.704C124.927 36.9548 124.677 37.2056 124.418 37.464C124.153 37.7359 123.887 38.0079 123.613 38.2881C123.338 38.5656 123.062 38.8431 122.778 39.129C121.898 40.0157 121.022 40.9065 120.147 41.7975C119.551 42.3995 118.954 43.0013 118.358 43.6027C116.897 45.0775 115.439 46.556 113.983 48.0365C114.514 49.2107 115.083 50.0437 115.996 50.9495C116.239 51.1921 116.482 51.4347 116.732 51.6847C116.993 51.9416 117.254 52.1984 117.523 52.4631C117.791 52.7299 118.059 52.9967 118.335 53.2716C119.189 54.1217 120.047 54.969 120.904 55.8162C121.485 56.3928 122.065 56.9695 122.646 57.5464C124.067 58.9589 125.491 60.3687 126.916 61.7773C127.163 61.6935 127.41 61.6098 127.664 61.5235C127.99 61.4138 128.315 61.3042 128.65 61.1913C128.972 61.0825 129.294 60.9738 129.626 60.8617C134.059 59.4426 138.106 59.5157 142.349 61.4237C145.829 63.318 148.223 66.1149 149.548 69.8601C149.548 70.3936 149.548 70.9271 149.548 71.4767C158.083 71.4767 166.619 71.4767 175.413 71.4767C175.546 70.6765 175.68 69.8763 175.817 69.0519C177.44 65.355 180.163 62.4181 183.875 60.7922C188.173 59.2997 192.357 59.5436 196.504 61.4237C200.481 63.5889 202.695 66.8358 204.107 71.0726C204.391 76.2415 204.293 80.2552 200.85 84.3809C197.749 87.6881 194.099 89.312 189.558 89.4611C185.24 89.3148 181.723 87.8723 178.646 84.8134C176.885 82.6094 175.413 80.4226 175.413 77.5388C166.878 77.5388 158.342 77.5388 149.548 77.5388C149.415 78.4724 149.281 79.406 149.144 80.3679C147.445 84.317 144.619 86.9354 140.688 88.5612C136.924 89.8772 132.786 89.6907 129.123 88.1492C125.65 86.3794 122.793 83.6124 121.283 79.9637C120.187 76.0648 120.257 71.4103 122.196 67.8315C122.569 67.0307 122.569 67.0307 122.155 66.2627C119.072 60.9585 112.004 52.7357 106.005 50.9904C102.369 50.2498 98.6094 50.5935 94.9887 51.2696C95.0238 51.8979 95.0238 51.8979 95.0597 52.5389C95.0787 53.0924 95.0971 53.646 95.115 54.1996C95.1404 54.613 95.1404 54.613 95.1663 55.0347C95.2031 56.5533 95.125 57.1869 94.0685 58.3093C93.1177 58.8613 92.4667 59.1924 91.3988 59.3714C90.9791 59.4456 90.9791 59.4456 90.551 59.5214C90.265 59.5656 89.979 59.6099 89.6843 59.6555C89.3952 59.7061 89.106 59.7566 88.8081 59.8087C87.6213 60.0106 86.4949 60.1607 85.2893 60.1607C85.2111 60.3998 85.133 60.639 85.0525 60.8853C84.9472 61.2047 84.842 61.524 84.7336 61.8531C84.6242 62.186 84.5148 62.5189 84.402 62.8619C84.0768 63.798 84.0768 63.798 83.5716 64.9094C83.1738 66.1029 83.3099 66.6289 83.6727 67.8394C84.4356 69.0391 85.2282 70.1932 86.0723 71.3362C86.9935 72.6711 87.3085 73.3076 87.321 74.9798C86.864 76.4622 86.4036 77.0887 85.264 78.1198C84.9676 78.3944 84.6711 78.6689 84.3657 78.9518C84.137 79.1523 83.9083 79.3529 83.6727 79.5596C84.006 79.9298 85.4529 81.6959 85.7964 82.0773C86.8602 83.3149 91.6094 88.484 92.5213 89.8369C95.1078 92.9407 96.5012 93.9656 98.729 96.5618C99.032 96.9154 105.662 102.639 105.971 103C105.971 103 99.2914 102.384 108.325 103C118.801 103.548 136.278 103.901 146.719 103C146.778 102.619 146.837 102.238 146.898 101.845C147.488 98.5145 149.75 95.7379 152.377 93.7046C156.684 91.2699 160.743 90.5992 165.537 91.9112C169.692 93.3125 172.551 95.8924 174.605 99.7667C176.145 103.643 176.325 107.918 174.731 111.815C172.8 115.574 170.218 118.408 166.224 120.015C161.932 121.314 157.843 121.17 153.839 119.063C150.432 116.944 147.945 114.135 146.719 110.274C146.719 109.874 146.719 109.474 146.719 109.062C134.049 109.062 121.379 109.062 108.325 109.062C107.523 133.29 108.558 124.496 106.893 147.775C109.421 150.662 118.918 160.871 121.763 163.444C122.073 163.726 122.382 164.008 122.701 164.298C125.819 167.116 129.019 169.834 132.364 172.379C132.721 172.658 132.721 172.658 133.085 172.943C134.137 173.718 134.762 174.14 136.09 174.076C136.861 173.785 137.613 173.445 138.358 173.093C141.52 171.882 145.793 172.004 148.942 173.169C152.752 175.001 155.979 177.85 157.606 181.833C158.655 185.579 158.531 190.141 157.007 193.717C154.995 197.213 152.062 199.951 148.233 201.248C143.667 202.343 139.334 201.893 135.333 199.46C132.14 197.264 129.825 194.088 128.937 190.295C128.594 186.853 128.607 183.745 130.239 180.602C130.632 179.583 130.503 179.191 130.149 178.17C129.677 177.523 129.677 177.523 129.06 176.938C128.829 176.706 128.597 176.473 128.359 176.234C128.104 175.984 127.849 175.734 127.587 175.477C127.319 175.21 127.052 174.943 126.776 174.668C125.891 173.785 125.002 172.907 124.112 172.029C123.497 171.418 122.883 170.806 122.268 170.194C120.65 168.582 119.028 166.974 117.405 165.367C114.807 162.792 112.214 160.213 109.62 157.633C108.712 156.73 107.803 155.829 106.893 154.929C106.338 154.378 105.784 153.828 105.23 153.277C104.975 153.026 104.72 152.774 104.457 152.515C102.713 150.78 102.713 150.78 102.263 149.88C102.332 148.653 103.273 130.892 103.385 129.669C104.457 103.944 106.341 110.274 97.5357 100.023C95.3683 97.4997 93.0324 95.2227 90.5178 93.0478C90.1124 92.6968 90.1124 92.6968 89.6987 92.3387C86.3576 89.4781 82.8867 86.8487 79.2271 84.4093C78.7722 84.7968 78.3176 85.1847 77.8631 85.5728C77.6099 85.7887 77.3568 86.0047 77.0959 86.2272C76.5804 86.6756 76.0805 87.1418 75.5898 87.6172C74.2928 88.3062 73.3609 87.9581 71.9526 87.6424C70.6775 86.9665 69.5391 86.0991 68.3808 85.2428C67.1931 84.415 66.4939 83.9989 65.0269 84.0446C63.9537 84.3828 62.9634 84.7553 61.95 85.2428C60.3115 86.0258 60.3115 86.0258 59.4241 86.0258C59.3799 86.3629 59.3356 86.7 59.2899 87.0472C58.3087 94.0117 58.3087 94.0117 56.5951 95.7253C55.5522 95.7839 54.5544 95.8007 53.5135 95.7758C53.2281 95.7721 52.9426 95.7685 52.6484 95.7647C51.9432 95.7552 51.2381 95.7407 50.533 95.7253C49.7902 100.069 49.1087 105.51 51.4286 109.504C52.9261 111.587 54.7436 113.344 56.6204 115.081C57.0458 115.478 57.0458 115.478 57.4798 115.882C59.8717 118.085 62.3345 120.204 64.808 122.315C66.9509 124.149 69.0595 126.012 71.119 127.938C71.4005 128.201 71.682 128.463 71.972 128.733C75.6771 132.283 77.5972 135.266 77.8277 140.469C77.8448 143.229 77.6265 145.939 77.2064 148.668C77.536 148.799 77.8656 148.93 78.2051 149.065C78.8564 149.329 78.8564 149.329 79.5208 149.598C79.9503 149.77 80.38 149.943 80.8226 150.121C84.6339 151.875 86.6783 155.111 88.2698 158.873C89.083 163.752 88.6457 168.113 85.7944 172.234C83.1918 175.416 79.7807 177.507 75.6672 177.921C71.1683 178.12 67.6103 177.402 64.1223 174.432C60.9966 171.411 59.3881 168.258 59.0358 163.907C58.9738 159.612 60.4195 155.733 63.3393 152.583C65.434 150.624 67.8266 149.072 70.7401 149.072C71.4099 144.638 71.9905 139.316 69.4023 135.375C66.7323 131.79 63.3115 128.792 60.0042 125.811C58.6446 124.573 57.3189 123.3 55.9897 122.029C53.3939 119.558 50.764 117.127 48.1081 114.72C46.9491 115.248 46.0996 115.814 45.1887 116.701C44.9447 116.937 44.7008 117.173 44.4495 117.417C44.1914 117.671 43.9333 117.926 43.6673 118.188C43.2656 118.583 43.2656 118.583 42.8559 118.986C42.2919 119.542 41.7291 120.1 41.1674 120.658C40.3048 121.513 39.4339 122.359 38.5626 123.205C38.0156 123.746 37.4691 124.289 36.9232 124.831C36.661 125.084 36.3987 125.336 36.1286 125.596C34.714 126.934 34.714 126.934 34.3702 128.754C34.7043 129.52 35.052 130.279 35.4029 131.037C36.7819 134.649 36.3622 138.929 34.8756 142.432C32.9001 146.248 29.9513 148.875 25.8803 150.285C25.3468 150.285 24.8134 150.285 24.2637 150.285C24.2637 158.82 24.2637 167.355 24.2637 176.15C25.1973 176.283 26.1309 176.416 27.0927 176.554C31.0419 178.252 33.6603 181.079 35.2861 185.009C36.5762 188.699 36.5542 193.124 34.8788 196.676C32.7008 200.48 29.7829 203.25 25.5835 204.678C21.7308 205.375 17.1219 205.384 13.756 203.227C10.424 200.726 7.99744 197.988 6.88561 193.932C6.44936 188.798 6.92462 184.655 10.2403 180.521C12.1584 178.471 14.3525 177.08 16.9892 176.15C17.3893 176.15 17.7894 176.15 18.2016 176.15C18.2016 167.614 18.2016 159.079 18.2016 150.285C17.4014 150.151 16.6012 150.018 15.7767 149.88C11.7562 148.084 8.88972 145.084 7.28975 140.989C6.15415 137.621 6.37202 132.571 7.91333 129.38C10.3282 125.612 13.4427 122.772 17.7975 121.59C18.9865 121.46 20.1634 121.437 21.359 121.439C21.6815 121.438 22.004 121.437 22.3364 121.435C24.4968 121.471 26.1491 121.76 28.0115 122.932C28.7217 123.305 28.7217 123.305 29.4713 122.892C34.7783 119.83 43.0079 112.73 44.7501 106.741C45.4906 103.106 45.1469 99.346 44.4709 95.7253C44.0812 95.744 43.6915 95.7628 43.29 95.7821C42.7795 95.7967 42.2689 95.8113 41.7429 95.8263C41.2365 95.8451 40.7301 95.8638 40.2084 95.8831C38.8129 95.7253 38.8129 95.7253 37.8479 94.999C36.9604 93.7864 36.7301 92.5537 36.489 91.1029C36.4385 90.838 36.388 90.5731 36.3359 90.3001C36.0732 88.8609 35.9275 87.488 35.9839 86.0258C35.7447 85.9477 35.5056 85.8696 35.2593 85.789C34.9399 85.6838 34.6206 85.5786 34.2915 85.4701C33.9586 85.3607 33.6257 85.2513 33.2827 85.1386C32.3466 84.8134 32.3466 84.8134 31.2352 84.3082C30.0422 83.9106 29.5158 84.0486 28.3052 84.4093C27.0931 85.1592 25.9319 85.9458 24.7729 86.7733C23.6902 87.5105 22.7341 88.0254 21.4584 88.3355C19.494 87.8763 18.3967 86.6123 16.9892 85.2176C16.6438 84.8822 16.2985 84.5469 15.9427 84.2015C14.8094 83.0919 13.688 81.9715 12.5689 80.8478C12.1782 80.4586 11.7875 80.0694 11.3967 79.6803C11.0297 79.3128 10.6627 78.9453 10.2845 78.5666C9.95165 78.2333 9.61878 77.8999 9.27583 77.5565C8.28975 76.5038 8.11912 76.0975 7.9449 74.6499C8.14377 72.6284 8.94146 71.5958 10.144 70.0117C11.6483 68.18 11.6483 68.18 12.1142 65.9655C11.9267 65.4928 11.9267 65.4928 11.7353 65.0104C11.5407 64.4892 11.5407 64.4892 11.3422 63.9575C11.1969 63.6131 11.0515 63.2687 10.9018 62.9139C10.1187 61.0553 10.1187 61.0553 10.1187 60.1607C9.74313 60.1118 9.36752 60.0628 8.98052 60.0123C1.76849 59.0347 1.76848 59.0347 0.419329 57.3317C0.262651 56.5217 0.262651 56.5217 0.256034 55.5874C0.250908 55.2367 0.245781 54.886 0.2405 54.5246C0.241686 54.147 0.242873 53.7694 0.244095 53.3803C0.241977 52.9911 0.239858 52.602 0.237675 52.2011C0.235079 51.3779 0.235623 50.5548 0.239063 49.7317C0.2425 48.472 0.230885 47.213 0.218047 45.9534C0.217395 45.1538 0.217629 44.3542 0.218836 43.5546C0.214296 43.1778 0.209756 42.8009 0.205078 42.4127C0.233092 39.8119 0.233092 39.8119 1.15184 38.5173C2.37535 37.7085 3.61994 37.4619 5.04171 37.2256C5.30662 37.1751 5.57153 37.1246 5.84447 37.0725C7.28373 36.8098 8.65655 36.6641 10.1187 36.7205C10.1672 36.4287 10.2156 36.137 10.2656 35.8364C10.6033 34.3446 11.2336 33.0501 11.879 31.6687C12.2228 30.3351 11.9779 29.8426 11.3312 28.6376C10.5064 27.422 9.64581 26.2384 8.77687 25.054C7.93018 23.4748 7.7658 22.727 8.09804 20.9589C8.89316 19.7348 9.89435 18.7517 10.927 17.7258C11.2623 17.381 11.5976 17.0361 11.9431 16.6809C13.0521 15.5465 14.1728 14.4249 15.2968 13.3055C15.686 12.9148 16.0752 12.5241 16.4643 12.1333C16.8318 11.7663 17.1993 11.3992 17.578 11.0211C17.9113 10.6882 18.2447 10.3554 18.5881 10.0124C19.6435 9.02387 20.0509 8.85555 21.5026 8.67834C23.5244 8.88238 24.4525 9.70341 26.0066 10.9311C27.9867 12.4246 27.9867 12.4246 30.348 12.9029C31.3798 12.5829 32.2249 12.2092 33.1549 11.6636C34.2612 11.0575 34.6895 10.8553 35.9839 10.8553C35.999 10.6199 36.0141 10.3844 36.0297 10.1418C36.2515 7.37476 36.6326 4.57827 37.6004 1.96421C38.85 1.13117 39.139 1.05187 40.5572 1.03209ZM42.8543 6.81392C42.6709 7.5391 42.4875 8.26428 42.2986 9.01144C42.184 9.45218 42.0694 9.89291 41.9513 10.347C41.6273 11.6179 41.6273 11.6179 41.5093 12.7529C41.3901 13.7032 41.2615 14.4431 40.8336 15.3009C39.3686 15.9576 39.3686 15.9576 38.3945 16.1834C36.5435 16.6931 34.8514 17.5574 33.1294 18.3985C31.1431 19.3147 29.6879 19.6138 27.4969 19.3423C26.4507 18.8573 25.5764 18.2289 24.6679 17.5237C24.4319 17.3502 24.1959 17.1767 23.9527 16.998C23.3777 16.5738 22.8096 16.1404 22.243 15.7051C19.6522 17.8353 17.3182 20.1875 14.9685 22.5755C15.423 23.2912 15.8777 24.0069 16.3324 24.7225C16.5856 25.121 16.8388 25.5196 17.0997 25.9302C17.594 26.7029 18.0969 27.4702 18.6057 28.2335C18.9944 31.2938 17.8637 33.5288 16.585 36.2658C16.205 37.0978 15.8261 37.9302 15.4484 38.7633C15.2791 39.1279 15.1098 39.4925 14.9353 39.8682C14.5127 40.725 14.5127 40.725 14.5643 41.5702C14.2217 41.6405 14.2217 41.6405 13.8723 41.7122C12.8398 41.9247 11.8076 42.1389 10.7755 42.3532C10.2363 42.4638 10.2363 42.4638 9.68619 42.5766C9.34235 42.6482 8.99852 42.7198 8.64426 42.7937C8.3268 42.8593 8.00933 42.9249 7.68225 42.9925C6.86152 43.1613 6.86152 43.1613 6.07732 43.5909C6.07732 46.7917 6.07732 49.9925 6.07732 53.2903C8.39725 53.7563 8.39725 53.7563 10.7198 54.2087C11.0112 54.2703 11.3025 54.3319 11.6027 54.3954C11.899 54.4546 12.1953 54.5139 12.5006 54.575C13.9685 55.1473 14.7467 56.1142 15.4859 57.4783C15.9585 58.6146 16.429 59.7513 16.8881 60.8932C17.0543 61.2863 17.2205 61.6794 17.3917 62.0844C18.9833 65.9892 18.9833 65.9892 18.6057 68.2436C18.1022 69.3243 17.4728 70.2764 16.7871 71.2494C16.6136 71.5065 16.4401 71.7636 16.2614 72.0285C15.8362 72.6568 15.4031 73.2798 14.9685 73.9016C16.4073 75.6433 17.9065 77.3169 19.4645 78.9533C19.9662 79.4847 19.9662 79.4847 20.4781 80.0269C21.3368 80.8531 21.3368 80.8531 22.2272 80.772C23.3041 80.2439 24.2777 79.6212 25.2741 78.9533C27.8471 77.2286 27.8471 77.2286 29.1134 77.1347C30.7834 77.5775 32.3724 78.2203 33.9795 78.8517C34.767 79.1537 35.5603 79.4296 36.358 79.7032C40.0249 81.0224 40.0249 81.0224 41.0246 82.4012C41.3575 83.3514 41.5178 84.219 41.6419 85.2176C41.7906 85.9591 41.9421 86.7 42.0965 87.4403C42.1559 87.7779 42.2153 88.1155 42.2765 88.4633C42.3745 89.2561 42.3745 89.2561 42.8543 89.6631C43.574 89.6984 44.295 89.7064 45.0155 89.7026C45.4518 89.7013 45.8881 89.7 46.3377 89.6986C46.7969 89.6953 47.2561 89.6919 47.7293 89.6884C48.1901 89.6866 48.6508 89.6847 49.1256 89.6829C50.2683 89.6781 51.411 89.6714 52.5537 89.6631C52.7006 88.9473 52.7006 88.9473 52.8505 88.2171C52.987 87.5876 53.1238 86.9583 53.261 86.3289C53.3245 86.0148 53.3881 85.7007 53.4536 85.377C53.5213 85.0722 53.589 84.7675 53.6588 84.4535C53.718 84.1741 53.7773 83.8947 53.8384 83.6069C54.5728 81.8052 55.9916 80.9717 57.716 80.2368C58.0828 80.0797 58.4495 79.9227 58.8274 79.7608C59.3978 79.5237 59.3979 79.5237 59.9798 79.2817C60.357 79.1189 60.7342 78.9561 61.1228 78.7884C65.6979 76.854 65.6979 76.854 67.5149 77.3636C69.6286 78.5379 71.5372 79.8215 73.5691 81.1761C75.8364 78.9089 78.1036 76.6417 80.4395 74.3057C79.9978 73.6222 79.556 72.9387 79.1008 72.2345C78.6037 71.4433 78.1069 70.6519 77.6105 69.8601C77.3355 69.435 77.0604 69.0099 76.777 68.5719C75.8717 65.856 77.8555 62.3548 78.8988 59.8324C79.0449 59.4523 79.191 59.0723 79.3416 58.6807C80.0926 56.8723 80.492 55.9273 82.2045 54.8942C82.9313 54.7004 82.9313 54.7004 83.6727 54.5027C84.1431 54.3761 84.6135 54.2495 85.0982 54.1191C86.3743 53.8428 87.6504 53.5666 88.9265 53.2903C88.9265 50.0895 88.9265 46.8887 88.9265 43.5909C87.1141 42.9868 85.6937 42.6572 83.8495 42.3785C81.4923 41.8259 81.4923 41.8259 80.5579 40.8487C80.0029 39.7664 79.6223 38.68 79.2271 37.5287C78.9736 36.9325 78.7159 36.338 78.4551 35.7448C78.1811 35.1022 77.908 34.4591 77.6358 33.8157C77.5017 33.5085 77.3676 33.2014 77.2295 32.885C76.5999 31.3126 76.3663 30.459 76.6318 28.7481C77.3662 27.0573 78.3523 25.767 79.4844 24.3262C80.1201 23.4526 80.1201 23.4526 79.9531 22.6093C79.5594 21.5792 79.0542 21.0518 78.2657 20.2832C77.9935 20.0149 77.7213 19.7466 77.4408 19.4702C77.1551 19.1946 76.8693 18.919 76.5749 18.6351C76.2876 18.3532 76.0003 18.0714 75.7043 17.781C74.9952 17.0862 74.2835 16.3944 73.5691 15.7051C73.1159 15.9973 73.1159 15.9973 72.6535 16.2955C72.2555 16.5508 71.8575 16.806 71.4474 17.069C71.0535 17.3222 70.6597 17.5754 70.2539 17.8363C69.6944 18.1817 69.6944 18.1817 69.1236 18.534C68.7391 18.7794 68.7391 18.7794 68.3468 19.0298C65.3085 20.1606 62.5361 18.6648 59.7272 17.4984C59.2875 17.3294 58.8479 17.1603 58.3948 16.9862C55.2166 15.6783 55.2166 15.6783 54.1182 13.9369C54.002 13.4535 53.8858 12.97 53.7661 12.4719C53.6395 11.9723 53.513 11.4727 53.3825 10.958C53.1063 9.57661 52.83 8.19526 52.5537 6.81392C49.3529 6.81392 46.1521 6.81392 42.8543 6.81392ZM129.023 16.0855C126.889 18.8252 126.603 21.1564 126.916 24.5962C127.719 27.238 130.001 29.0412 132.296 30.4057C134.995 31.0333 137.485 30.9722 139.921 29.5817C141.742 28.2455 143.371 26.4223 143.89 24.192C144.197 21.426 143.949 19.1943 142.273 16.9175C140.697 15.2713 139.042 13.8335 136.723 13.5486C133.605 13.5082 131.212 13.7055 129.023 16.0855ZM182.738 16.9175C181.057 19.2907 180.724 21.3166 181.071 24.192C181.927 27.099 183.907 28.8932 186.451 30.4057C189.124 31.0273 191.629 30.9832 194.048 29.6117C195.804 28.302 197.348 26.6869 198.045 24.5962C198.312 21.6398 198.356 18.9102 196.428 16.5133C193.878 14.168 191.828 13.5121 188.377 13.5454C185.937 13.8179 184.335 15.1303 182.738 16.9175ZM129.593 67.9152C127.627 70.022 126.824 71.806 126.689 74.7099C126.788 77.427 127.667 79.0686 129.54 80.9851C131.689 82.9058 133.572 83.3927 136.39 83.3216C138.773 83.034 140.43 81.9504 142.021 80.191C143.865 77.8162 144.258 75.6672 143.89 72.6891C143.042 70.0496 141.46 68.1702 139.091 66.728C135.781 65.4041 132.489 65.7528 129.593 67.9152ZM183.521 68.3446C181.545 70.5772 180.824 72.7697 180.932 75.7249C181.307 78.4406 182.696 80.2558 184.825 81.9086C186.943 83.3786 189.059 83.5007 191.579 83.1968C194.402 82.3652 196.191 80.456 197.698 77.9998C198.518 75.9577 198.347 73.4356 197.796 71.3346C196.842 69.1486 195.286 67.7337 193.195 66.627C189.693 65.2822 186.3 65.7588 183.521 68.3446ZM154.398 100.171C152.81 102.601 151.776 104.935 152.377 107.85C153.28 110.697 154.617 112.337 157.152 113.888C159.157 114.86 161.22 115.084 163.387 114.458C166.281 113.318 168.064 111.548 169.326 108.708C170.085 106.372 169.803 104.092 168.694 101.914C167.443 99.965 165.79 98.5556 163.693 97.5944C160.249 96.877 156.871 97.5638 154.398 100.171ZM15.0553 130.054C12.9379 132.772 12.5656 135.142 12.9477 138.564C13.9428 141.189 15.9177 142.957 18.3026 144.349C20.9977 145.022 23.5147 144.942 25.9529 143.55C27.7736 142.214 29.4031 140.391 29.9217 138.16C30.2288 135.397 29.995 133.151 28.3052 130.886C26.1948 128.695 24.6594 127.602 21.561 127.526C18.835 127.562 16.9338 128.011 15.0553 130.054ZM69.1236 155.943C68.5984 156.28 68.5984 156.28 68.0627 156.624C66.1264 158.51 65.1287 160.918 65.0821 163.621C65.6658 166.664 66.6099 168.727 69.1488 170.593C71.4736 171.978 73.7514 172 76.3981 171.704C79.023 170.709 80.7912 168.734 82.1824 166.349C82.8562 163.654 82.7755 161.137 81.3836 158.699C79.9688 156.771 78.2673 155.473 75.994 154.73C73.4617 154.446 71.2939 154.496 69.1236 155.943ZM136.868 181.58C135.021 183.959 134.639 186.1 134.999 189.082C135.83 191.903 137.738 193.699 140.197 195.2C142.296 196.047 144.846 195.906 146.965 195.195C149.475 193.915 151.069 192.196 151.973 189.486C152.264 186.682 152.262 184.408 150.557 182.084C149.01 180.344 147.27 178.756 144.894 178.439C141.474 178.39 139.2 179.007 136.868 181.58ZM14.2517 185.533C12.659 187.846 12.6714 189.964 12.9477 192.719C13.6594 195.431 15.4412 196.979 17.7975 198.377C19.9564 199.097 22.53 199.186 24.7216 198.52C26.8919 197.381 28.4372 195.473 29.6691 193.401C30.2967 190.703 30.2356 188.212 28.8451 185.776C27.5089 183.956 25.6857 182.326 23.4555 181.808C19.432 181.361 16.8001 182.401 14.2517 185.533Z" fill="url(#paint0_linear_157_7317)"/>
<path id="Vector_2" d="M65.8226 29.063C71.7007 33.9902 74.6209 40.6632 75.2962 48.2124C75.5762 55.2828 72.7072 62.0141 68.0959 67.2718C63.057 72.2943 56.3717 75.0427 49.2669 75.2363C41.8942 74.9443 34.8731 72.1005 29.7892 66.6498C24.9769 60.5008 22.7751 53.7754 23.4776 46.0117C24.3441 39.7818 27.0892 34.6729 31.5604 30.2502C31.8738 29.9165 31.8738 29.9165 32.1935 29.5761C41.4637 20.5479 56.136 21.8696 65.8226 29.063ZM34.7936 35.504C30.8293 40.2921 29.1418 45.4982 29.5397 51.6697C30.3665 57.5409 33.5106 62.1089 38.1214 65.7121C42.1718 68.4373 47.4609 69.5289 52.268 68.8679C57.5821 67.693 62.1106 65.2149 65.4342 60.7977C68.4646 56.0128 69.8779 50.7754 68.7364 45.1524C67.3852 39.4368 64.1216 35.0516 59.1432 31.9425C51.2671 27.6087 41.0447 28.7697 34.7936 35.504Z" fill="url(#paint1_linear_157_7317)"/>
<path id="Vector_3" d="M128.454 126.158C132.017 126.912 134.801 131.17 137.173 133.765C139.168 135.945 141.203 138.086 143.241 140.226C144.778 141.843 146.299 143.471 147.79 145.13C155.32 153.936 153.046 151.897 160.288 157.05C163.533 157.189 172.231 157.651 175.435 157.151C175.493 156.772 175.55 156.393 175.609 156.002C176.235 152.536 178.709 149.848 181.498 147.856C184.716 145.666 188.705 145.148 192.51 145.658C196.496 146.478 200.151 148.816 202.445 152.216C204.033 155.222 204.937 158.608 204.534 162.001C204.5 162.294 204.467 162.587 204.433 162.889C203.798 166.68 201.505 170.175 198.472 172.508C194.338 174.968 190.261 175.592 185.507 174.7C181.628 173.48 178.586 170.687 176.605 167.168C175.91 165.781 175.435 164.776 175.435 163.213C174.926 163.228 174.416 163.243 173.891 163.258C171.991 163.309 170.09 163.342 168.188 163.368C167.367 163.383 166.547 163.402 165.726 163.426C164.542 163.461 163.359 163.477 162.175 163.489C161.811 163.504 161.448 163.518 161.073 163.534C159.109 163.535 157.967 163.319 156.505 161.962C156.226 161.706 155.947 161.449 155.66 161.184C155.384 160.92 155.108 160.656 154.824 160.384C154.577 160.148 154.331 159.912 154.076 159.668C153.321 158.933 152.574 158.189 151.83 157.442C151.55 157.163 151.27 156.884 150.982 156.596C150.069 155.685 149.157 154.772 148.246 153.859C147.608 153.222 146.97 152.585 146.333 151.947C145.002 150.617 143.672 149.287 142.343 147.956C140.637 146.247 138.928 144.54 137.219 142.833C135.905 141.521 134.592 140.207 133.279 138.893C132.649 138.262 132.019 137.633 131.388 137.003C130.511 136.127 129.634 135.249 128.759 134.371C128.497 134.11 128.235 133.849 127.965 133.58C125.772 131.376 125.772 131.376 125.6 129.518C125.726 128.053 125.726 128.053 126.383 127.068C127.342 126.436 127.342 126.436 128.454 126.158ZM183.291 154.505C181.478 156.456 180.908 158.443 180.958 161.079C181.347 163.723 182.682 165.867 184.781 167.482C186.964 168.981 189.009 169.183 191.601 168.871C194.342 168.048 196.196 166.683 197.636 164.204C198.711 161.734 198.741 159.59 197.865 157.05C196.729 154.539 194.902 153.006 192.409 151.897C188.79 151.099 186 151.971 183.291 154.505Z" fill="url(#paint2_linear_157_7317)"/>
<path id="Vector_4" d="M70.6608 97.8682C73.9868 98.5717 76.8064 102.515 79.1336 104.848C79.6769 105.39 79.6769 105.39 80.2313 105.944C80.9908 106.703 81.75 107.463 82.5085 108.223C83.481 109.198 84.4553 110.171 85.4302 111.144C86.3634 112.075 87.295 113.008 88.2268 113.941C88.577 114.29 88.9272 114.64 89.288 115C89.6093 115.322 89.9306 115.645 90.2616 115.977C90.5453 116.261 90.829 116.545 91.1213 116.838C92.3179 118.128 92.2378 119.071 92.2529 120.794C92.2607 121.562 92.2607 121.562 92.2686 122.347C92.2719 122.909 92.2749 123.471 92.2777 124.033C92.2793 124.316 92.2809 124.598 92.2826 124.89C92.2911 126.385 92.2969 127.881 92.3006 129.376C92.3051 130.921 92.319 132.465 92.3351 134.01C92.3456 135.198 92.349 136.386 92.3505 137.574C92.3524 138.143 92.3571 138.713 92.3646 139.282C92.3745 140.079 92.3731 140.876 92.3713 141.673C92.3737 142.127 92.376 142.58 92.3785 143.047C92.1364 144.485 91.6972 144.947 90.5648 145.835C89.5797 146.214 89.5797 146.214 88.5441 146.239C86.6862 145.352 86.6862 145.352 86.1192 144.218C86.1572 143.558 86.2245 142.9 86.3056 142.244C87.9602 129.23 87.5418 132.256 86.8305 119.323C82.8342 114.388 74.5009 108.274 69.48 104.436C68.2996 103.426 67.95 102.749 67.7812 101.202C67.9328 99.7626 67.9328 99.7626 68.5895 98.7775C69.5494 98.146 69.5494 98.146 70.6608 97.8682Z" fill="url(#paint3_linear_157_7317)"/>
<path id="Vector_5" d="M49.1406 134.292C50.5551 134.519 50.5551 134.519 51.4391 135.099C52.552 136.673 52.3943 138.125 52.3744 140.01C52.3766 140.402 52.3788 140.795 52.381 141.199C52.3861 142.496 52.3794 143.794 52.3722 145.091C52.3722 145.992 52.3728 146.893 52.3739 147.794C52.3745 149.682 52.3694 151.57 52.3602 153.458C52.3487 155.88 52.3499 158.303 52.355 160.726C52.3578 162.586 52.3547 164.446 52.3496 166.306C52.3478 167.199 52.3477 168.093 52.3493 168.986C52.3504 170.234 52.3438 171.481 52.335 172.728C52.3368 173.099 52.3386 173.47 52.3405 173.852C52.3365 174.191 52.3325 174.531 52.3283 174.88C52.3274 175.175 52.3264 175.47 52.3254 175.774C52.1265 176.778 51.7508 177.132 50.9592 177.762C49.7532 178.175 49.0919 178.205 47.8524 177.888C46.7534 177.265 46.5715 176.894 46.1095 175.741C46.0056 174.936 46.0056 174.936 46.0014 174.072C45.998 173.743 45.9946 173.414 45.991 173.075C45.9914 172.717 45.9917 172.36 45.9921 171.991C45.9894 171.612 45.9867 171.233 45.9839 170.842C45.9762 169.588 45.9746 168.333 45.9738 167.079C45.9712 166.207 45.9684 165.336 45.9656 164.464C45.9608 162.636 45.9593 160.809 45.9597 158.982C45.9598 156.64 45.9488 154.298 45.9349 151.956C45.9259 150.155 45.9242 148.355 45.9247 146.554C45.9237 145.691 45.9201 144.827 45.9139 143.964C45.906 142.756 45.9083 141.549 45.9132 140.342C45.9086 139.985 45.9041 139.628 45.8994 139.261C45.9162 137.622 45.9888 136.743 46.8417 135.306C47.7261 134.519 47.7261 134.519 49.1406 134.292Z" fill="url(#paint4_linear_157_7317)"/>
<path id="Vector_6" d="M142.266 46.2129C142.631 46.2108 142.995 46.2086 143.37 46.2063C144.574 46.2013 145.777 46.208 146.981 46.2152C147.818 46.2152 148.654 46.2145 149.491 46.2134C151.244 46.2129 152.997 46.218 154.75 46.2272C156.998 46.2386 159.245 46.2375 161.493 46.2324C163.22 46.2296 164.948 46.2327 166.675 46.2377C167.504 46.2396 168.333 46.2397 169.161 46.2381C170.32 46.2369 171.477 46.2436 172.636 46.2524C173.15 46.2497 173.15 46.2497 173.675 46.2469C175.1 46.2649 176.003 46.2818 177.265 46.9832C178.002 47.782 178.068 48.1689 178.037 49.2447C177.984 50.3235 177.939 50.7503 177.304 51.6443C175.723 52.6786 174.239 52.5435 172.404 52.5494C171.87 52.5534 171.87 52.5534 171.326 52.5574C170.146 52.5654 168.967 52.5701 167.787 52.5741C167.183 52.5766 167.183 52.5766 166.567 52.5791C164.437 52.5876 162.307 52.5933 160.177 52.5971C157.975 52.6016 155.774 52.6155 153.572 52.6316C151.88 52.6421 150.189 52.6455 148.497 52.647C147.686 52.6489 146.874 52.6536 146.062 52.6611C144.926 52.6709 143.791 52.6706 142.655 52.6678C142.152 52.6755 142.152 52.6755 141.639 52.6835C140.048 52.6691 139.237 52.5823 137.842 51.7461C137.042 50.8613 137.042 50.8613 136.814 49.4468C137.042 48.0323 137.042 48.0323 137.639 47.1483C139.144 46.0666 140.455 46.1923 142.266 46.2129Z" fill="url(#paint5_linear_157_7317)"/>
<path id="Vector_7" d="M100.243 67.1181C102.1 67.8187 103.408 69.4415 104.769 70.8333C105.285 71.3486 105.285 71.3486 105.811 71.8743C106.536 72.6008 107.257 73.3303 107.976 74.0626C109.076 75.1817 110.187 76.2897 111.299 77.3967C112.002 78.1046 112.705 78.8131 113.407 79.5224C113.905 80.0188 113.905 80.0188 114.412 80.5253C117.292 83.4772 117.292 83.4772 117.643 85.6176C117.252 87.1803 116.989 87.5353 115.622 88.4466C114.536 88.674 114.536 88.674 113.197 88.4466C112.476 87.917 112.476 87.917 111.705 87.216C111.42 86.9584 111.136 86.7009 110.843 86.4356C108.475 84.2313 106.155 81.9807 103.85 79.7111C103.208 79.0828 102.564 78.4578 101.916 77.836C100.975 76.9313 100.044 76.0165 99.1154 75.0989C98.825 74.8239 98.5346 74.5489 98.2354 74.2655C96.9117 72.9365 96.0489 72.0408 96.0078 70.1078C96.2233 68.6437 96.2233 68.6437 96.779 67.8606C97.9822 67.0739 98.7952 66.878 100.243 67.1181Z" fill="url(#paint6_linear_157_7317)"/>
</g>
<defs>
<linearGradient id="paint0_linear_157_7317" x1="0.205078" y1="103" x2="232.326" y2="150.632" gradientUnits="userSpaceOnUse">
<stop offset="0.295" stop-color="#4B1790"/>
<stop offset="0.865" stop-color="#D17BDF"/>
</linearGradient>
<linearGradient id="paint1_linear_157_7317" x1="23.3496" y1="49.2345" x2="82.4631" y2="61.3637" gradientUnits="userSpaceOnUse">
<stop offset="0.295" stop-color="#4B1790"/>
<stop offset="0.865" stop-color="#D17BDF"/>
</linearGradient>
<linearGradient id="paint2_linear_157_7317" x1="125.6" y1="150.622" x2="210.001" y2="178.615" gradientUnits="userSpaceOnUse">
<stop offset="0.295" stop-color="#4B1790"/>
<stop offset="0.865" stop-color="#D17BDF"/>
</linearGradient>
<linearGradient id="paint3_linear_157_7317" x1="67.7812" y1="122.054" x2="96.6255" y2="125.065" gradientUnits="userSpaceOnUse">
<stop offset="0.295" stop-color="#4B1790"/>
<stop offset="0.865" stop-color="#D17BDF"/>
</linearGradient>
<linearGradient id="paint4_linear_157_7317" x1="45.8994" y1="156.197" x2="53.5903" y2="156.431" gradientUnits="userSpaceOnUse">
<stop offset="0.295" stop-color="#4B1790"/>
<stop offset="0.865" stop-color="#D17BDF"/>
</linearGradient>
<linearGradient id="paint5_linear_157_7317" x1="136.814" y1="49.4407" x2="154.89" y2="73.0352" gradientUnits="userSpaceOnUse">
<stop offset="0.295" stop-color="#4B1790"/>
<stop offset="0.865" stop-color="#D17BDF"/>
</linearGradient>
<linearGradient id="paint6_linear_157_7317" x1="96.0078" y1="77.8196" x2="120.614" y2="82.8814" gradientUnits="userSpaceOnUse">
<stop offset="0.295" stop-color="#4B1790"/>
<stop offset="0.865" stop-color="#D17BDF"/>
</linearGradient>
<clipPath id="clip0_157_7317">
<rect width="206.921" height="206.921" fill="white" transform="translate(0.441406 0.343506)"/>
</clipPath>
</defs>
</svg>
