<svg width="85" height="86" viewBox="0 0 85 86" fill="none" xmlns="http://www.w3.org/2000/svg">
<path fill-rule="evenodd" clip-rule="evenodd" d="M27.7464 14.2461C34.897 10.0136 38.4706 7.89551 42.3965 7.89551C46.3225 7.89551 49.896 10.01 57.0466 14.2461L59.4642 15.6769C66.6148 19.913 70.1884 22.0311 72.1514 25.5165C74.1143 29.0055 74.1143 33.2345 74.1143 41.7067V44.5683C74.1143 53.037 74.1143 57.2731 72.1514 60.7585C70.1884 64.2475 66.6148 66.362 59.4642 70.5946L57.0466 72.0289C49.896 76.2615 46.3225 78.3795 42.3965 78.3795C38.4706 78.3795 34.897 76.265 27.7464 72.0289L25.3288 70.5946C18.1782 66.3655 14.6047 64.244 12.6417 60.7585C10.6787 57.2696 10.6787 53.0405 10.6787 44.5683V41.7067C10.6787 33.2345 10.6787 29.0019 12.6417 25.5165C14.6047 22.0276 18.1782 19.913 25.3288 15.6769L27.7464 14.2461ZM45.9207 57.2343C45.9207 58.169 45.5494 59.0654 44.8885 59.7263C44.2276 60.3872 43.3312 60.7585 42.3965 60.7585C41.4618 60.7585 40.5655 60.3872 39.9045 59.7263C39.2436 59.0654 38.8723 58.169 38.8723 57.2343C38.8723 56.2996 39.2436 55.4033 39.9045 54.7423C40.5655 54.0814 41.4618 53.7101 42.3965 53.7101C43.3312 53.7101 44.2276 54.0814 44.8885 54.7423C45.5494 55.4033 45.9207 56.2996 45.9207 57.2343ZM42.3965 22.8734C43.0975 22.8734 43.7698 23.1518 44.2655 23.6475C44.7612 24.1432 45.0397 24.8155 45.0397 25.5165V46.6617C45.0397 47.3627 44.7612 48.035 44.2655 48.5307C43.7698 49.0264 43.0975 49.3049 42.3965 49.3049C41.6955 49.3049 41.0232 49.0264 40.5275 48.5307C40.0318 48.035 39.7534 47.3627 39.7534 46.6617V25.5165C39.7534 24.8155 40.0318 24.1432 40.5275 23.6475C41.0232 23.1518 41.6955 22.8734 42.3965 22.8734Z" fill="url(#paint0_linear_1_2057)"/>
<defs>
<linearGradient id="paint0_linear_1_2057" x1="10.6787" y1="43.1375" x2="83.3949" y2="56.5756" gradientUnits="userSpaceOnUse">
<stop offset="0.295" stop-color="#4B1790"/>
<stop offset="0.865" stop-color="#D17BDF"/>
</linearGradient>
</defs>
</svg>
