<svg width="69" height="70" viewBox="0 0 69 70" fill="none" xmlns="http://www.w3.org/2000/svg">
<g id="Frame">
<path id="Vector" d="M41.4026 39.8172C41.1105 38.9415 40.9644 38.5032 40.9722 38.1453C40.9801 37.7682 41.0306 37.5708 41.204 37.2365C41.3691 36.9182 41.8099 36.5077 42.6922 35.687C45.128 33.4204 46.6518 30.1862 46.6518 26.5962C46.6518 19.7394 41.0935 14.1809 34.2365 14.1809C27.3796 14.1809 21.8213 19.7394 21.8213 26.5962C21.8213 30.1862 23.345 33.4204 25.781 35.687C26.6632 36.5077 27.104 36.9182 27.2691 37.2365C27.4425 37.5708 27.493 37.7682 27.5009 38.1453C27.5087 38.5032 27.3626 38.9415 27.0705 39.8172L23.2738 51.2073C22.7834 52.6786 22.5382 53.4144 22.6853 53.9999C22.814 54.5123 23.1339 54.9563 23.5795 55.2406C24.0884 55.5651 24.8639 55.5651 26.4145 55.5651H42.0586C43.6092 55.5651 44.3848 55.5651 44.8938 55.2406C45.3391 54.9563 45.659 54.5123 45.7877 53.9999C45.935 53.4144 45.6896 52.6786 45.1992 51.2073L41.4026 39.8172Z" stroke="url(#paint0_linear_1_2685)" stroke-width="8.27684" stroke-linecap="round" stroke-linejoin="round"/>
</g>
<defs>
<linearGradient id="paint0_linear_1_2685" x1="21.8213" y1="34.873" x2="50.8165" y2="38.4453" gradientUnits="userSpaceOnUse">
<stop offset="0.295" stop-color="#4B1790"/>
<stop offset="0.865" stop-color="#D17BDF"/>
</linearGradient>
</defs>
</svg>
