<svg width="208" height="208" viewBox="0 0 208 208" fill="none" xmlns="http://www.w3.org/2000/svg">
<g id="Simplification">
<path id="Vector" d="M186.347 20.4147C188.4 22.6257 188.892 24.2846 188.877 27.268C188.879 27.5944 188.88 27.9209 188.882 28.2572C188.886 29.3524 188.884 30.4475 188.883 31.5427C188.885 32.3273 188.887 33.112 188.889 33.8967C188.895 36.0293 188.895 38.1619 188.894 40.2945C188.893 42.0742 188.895 43.8539 188.897 45.6336C188.902 49.8321 188.902 54.0306 188.899 58.2291C188.897 62.5615 188.902 66.8939 188.911 71.2263C188.918 74.9448 188.92 78.6633 188.919 82.3818C188.918 84.6031 188.919 86.8245 188.925 89.0459C188.93 91.135 188.929 93.2241 188.924 95.3133C188.923 96.08 188.924 96.8467 188.927 97.6133C188.931 98.6602 188.928 99.7068 188.923 100.754C188.926 101.057 188.929 101.36 188.932 101.672C188.907 104.124 188.256 105.704 186.65 107.533C180.092 113.345 170.999 114.269 162.553 114.277C162.274 114.277 161.995 114.277 161.708 114.278C153.285 114.265 145.254 113.164 138.254 108.114C137.925 108.324 137.597 108.534 137.258 108.75C134.655 110.356 132.103 111.645 129.161 112.509C128.903 112.586 128.645 112.663 128.379 112.742C123.637 114.041 118.799 114.323 113.904 114.302C113.632 114.302 113.36 114.301 113.079 114.3C107.281 114.277 101.882 113.807 96.4569 111.618C94.1562 111.019 92.1794 112.034 90.1027 112.949C83.6362 115.293 76.1899 114.759 69.9476 112.026C63.3965 108.677 58.7372 103.384 56.0536 96.5814C53.9065 89.609 54.3993 81.967 57.7286 75.4539C61.6914 68.76 67.2444 64.3096 74.6774 62.0414C78.5554 61.2047 83.4753 61.0272 87.3321 62.0414C87.3257 61.534 87.3194 61.0267 87.3128 60.5039C87.2908 58.6081 87.2769 56.7124 87.2655 54.8165C87.2594 53.9985 87.2511 53.1804 87.2406 52.3624C87.2258 51.1816 87.219 50.0009 87.2137 48.82C87.2074 48.4586 87.2012 48.0973 87.1947 47.725C87.194 44.9457 87.5856 42.3363 89.2596 40.0488C97.2584 33.1206 109.245 32.9139 119.259 33.3473C124.949 33.8156 130.35 35.1579 135.425 37.7929C135.431 37.2123 135.431 37.2123 135.436 36.6199C135.453 35.1706 135.479 33.7216 135.509 32.2724C135.52 31.6477 135.529 31.0229 135.535 30.3981C135.604 23.2179 135.604 23.2179 138.243 20.3595C150.315 11.4015 174.424 10.8458 186.347 20.4147ZM141.613 23.4458C140.651 24.3858 140.651 24.3858 140.199 25.4665C140.187 26.5559 140.187 26.5559 141.058 27.4872C147.115 32.4317 154.609 33.1019 162.199 33.0695C162.611 33.0684 162.611 33.0684 163.03 33.0672C170.006 33.0357 177.732 32.5375 183.354 27.8803C183.995 27.2696 183.995 27.2696 184.427 26.2496C184.283 24.8405 183.662 24.2793 182.71 23.2437C172.428 16.3077 151.713 15.8653 141.613 23.4458ZM140.275 32.539C140.225 34.3364 140.188 36.1334 140.164 37.9312C140.154 38.542 140.14 39.1527 140.122 39.7633C140.098 40.6442 140.086 41.5245 140.077 42.4058C140.067 42.9349 140.056 43.464 140.045 44.0091C140.346 45.923 140.944 46.5369 142.295 47.8964C150.095 53.3935 162.676 53.1806 171.733 51.6981C176.124 50.8713 180.555 49.7243 183.755 46.428C184.559 45.0821 184.463 44.0445 184.445 42.4847C184.443 42.2 184.441 41.9152 184.439 41.6218C184.433 40.7158 184.418 39.8102 184.402 38.9043C184.396 38.2886 184.39 37.6729 184.385 37.0572C184.372 35.551 184.351 34.0451 184.326 32.539C183.959 32.7032 183.593 32.8674 183.215 33.0366C180.55 34.2143 177.946 35.3059 175.082 35.8985C174.806 35.9612 174.531 36.024 174.248 36.0887C170.349 36.9523 166.538 37.0816 162.553 37.0856C162.275 37.086 161.996 37.0864 161.709 37.0869C153.964 37.0792 147.358 35.7369 140.275 32.539ZM92.1818 43.855C91.9452 44.9987 91.9452 44.9987 92.1818 46.2799C96.207 50.7402 103.818 51.9142 109.56 52.342C118.191 52.7242 127.992 52.4334 135.071 46.9113C135.92 45.9269 135.92 45.9269 135.981 44.6886C134.804 42.0669 131.941 41.0196 129.413 39.9399C118.952 36.1908 100.674 35.3632 92.1818 43.855ZM91.7776 51.9379C90.9571 58.3866 90.9571 58.3866 92.2412 64.4848C93.5798 65.7767 95.3161 66.2744 97.0315 66.8911C97.9298 67.6473 97.9298 67.6473 98.6733 68.4319C103.368 72.7987 112.656 71.511 118.621 71.3918C124.487 71.1685 131.05 69.8691 135.425 65.6787C136.023 64.4832 135.878 63.2722 135.869 61.9625C135.868 61.6766 135.868 61.3907 135.867 61.0961C135.865 60.1819 135.86 59.2678 135.854 58.3536C135.852 57.7343 135.851 57.1149 135.849 56.4955C135.844 54.9763 135.837 53.4571 135.829 51.9379C135.447 52.1075 135.064 52.2771 134.67 52.4518C123.703 57.2446 110.936 57.5674 99.4311 54.6153C99.1186 54.5358 98.8061 54.4562 98.4841 54.3743C96.6092 53.8632 94.9527 53.1835 93.2451 52.2542C92.5863 51.8796 92.5863 51.8796 91.7776 51.9379ZM140.275 51.9379C140.245 53.6851 140.223 55.4322 140.208 57.1796C140.202 57.7735 140.194 58.3673 140.183 58.9611C140.168 59.8169 140.162 60.6725 140.156 61.5284C140.15 62.0426 140.144 62.5569 140.137 63.0868C140.308 64.802 140.839 65.8711 142.085 67.0553C143.892 68.2126 145.792 68.9402 147.827 69.5938C148.079 69.6756 148.33 69.7574 148.589 69.8417C153.041 71.1872 157.573 71.4843 162.199 71.463C162.713 71.461 163.226 71.459 163.755 71.457C170.504 71.373 178.838 70.675 183.922 65.6787C184.52 64.4832 184.376 63.2722 184.366 61.9625C184.365 61.6766 184.365 61.3907 184.364 61.0961C184.362 60.1819 184.357 59.2678 184.352 58.3536C184.35 57.7343 184.348 57.1149 184.346 56.4955C184.342 54.9763 184.335 53.4571 184.326 51.9379C184.018 52.0614 183.709 52.1849 183.391 52.3121C170.415 57.4989 155.302 58.2386 142.277 52.6783C141.427 52.3037 141.427 52.3037 140.275 51.9379ZM64.2959 73.7616C60.2836 78.94 58.9097 84.6798 59.4462 91.1397C60.1112 95.0096 61.5567 98.1098 63.8918 101.243C64.195 101.671 64.195 101.671 64.5043 102.108C67.7515 106.274 72.8966 108.904 78.0368 109.73C84.2244 110.345 89.9744 108.972 94.9934 105.193C99.0891 101.663 102.265 96.9799 103.094 91.5438C103.512 84.5775 102.392 78.6836 97.7135 73.2816C93.992 69.3211 89.1167 66.2321 83.5401 65.9471C75.7821 65.799 69.6876 68.0074 64.2959 73.7616ZM140.275 70.9326C140.225 72.7299 140.188 74.5269 140.164 76.3247C140.154 76.9355 140.14 77.5462 140.122 78.1568C140.098 79.0378 140.086 79.9181 140.077 80.7993C140.067 81.3284 140.056 81.8575 140.045 82.4027C140.346 84.3165 140.944 84.9304 142.295 86.29C150.095 91.787 162.676 91.5741 171.733 90.0916C176.124 89.2648 180.555 88.1179 183.755 84.8215C184.559 83.4757 184.463 82.438 184.445 80.8783C184.443 80.5935 184.441 80.3087 184.439 80.0153C184.433 79.1093 184.418 78.2037 184.402 77.2978C184.396 76.6821 184.39 76.0664 184.385 75.4508C184.372 73.9446 184.351 72.4386 184.326 70.9326C183.959 71.0968 183.593 71.261 183.215 71.4301C180.55 72.6079 177.946 73.6995 175.082 74.292C174.806 74.3548 174.531 74.4176 174.248 74.4822C170.349 75.3458 166.538 75.4751 162.553 75.4792C162.275 75.4796 161.996 75.48 161.709 75.4804C153.964 75.4728 147.358 74.1304 140.275 70.9326ZM132.975 72.246C130.89 73.1313 128.834 73.7553 126.635 74.2667C126.354 74.3325 126.072 74.3983 125.782 74.466C122.644 75.166 119.6 75.4386 116.392 75.4176C116.056 75.417 115.72 75.4165 115.373 75.4159C114.311 75.4136 113.249 75.4086 112.187 75.4034C111.462 75.4014 110.737 75.3995 110.011 75.3979C108.244 75.3934 106.477 75.3865 104.71 75.3781C104.851 75.7923 104.993 76.2065 105.138 76.6332C105.324 77.1831 105.51 77.733 105.695 78.2829C105.835 78.6912 105.835 78.6912 105.977 79.1078C106.658 81.1322 107.149 83.0296 107.263 85.1612C107.28 85.4647 107.297 85.7682 107.314 86.0808C107.33 86.3916 107.346 86.7023 107.362 87.0225C107.38 87.3411 107.397 87.6596 107.415 87.9879C107.458 88.769 107.499 89.5502 107.539 90.3314C116.339 91.756 126.55 90.7579 134.228 86.0737C135.124 85.4735 135.124 85.4735 135.829 84.2693C135.898 83.2708 135.923 82.3193 135.908 81.3219C135.907 81.0365 135.906 80.7512 135.905 80.4572C135.9 79.5471 135.89 78.6372 135.88 77.7272C135.876 77.1097 135.872 76.4922 135.869 75.8746C135.86 74.3619 135.846 72.8493 135.829 71.3367C134.717 71.3367 133.988 71.7832 132.975 72.246ZM140.275 90.3314C140.245 92.0786 140.223 93.8257 140.208 95.5731C140.202 96.167 140.194 96.7608 140.183 97.3547C140.168 98.2105 140.162 99.066 140.156 99.9219C140.15 100.436 140.144 100.95 140.137 101.48C140.308 103.196 140.839 104.265 142.085 105.449C143.892 106.606 145.792 107.334 147.827 107.987C148.079 108.069 148.33 108.151 148.589 108.235C153.041 109.581 157.573 109.878 162.199 109.857C162.713 109.855 163.226 109.853 163.755 109.851C170.504 109.767 178.838 109.069 183.922 104.072C184.52 102.877 184.376 101.666 184.366 100.356C184.365 100.07 184.365 99.7842 184.364 99.4896C184.362 98.5755 184.357 97.6613 184.352 96.7472C184.35 96.1278 184.348 95.5084 184.346 94.8891C184.342 93.3698 184.335 91.8506 184.326 90.3314C184.018 90.4549 183.709 90.5784 183.391 90.7057C171.28 95.5469 156.756 96.7235 144.373 91.9022C143.783 91.6369 143.196 91.3622 142.618 91.0718C141.846 90.7145 141.1 90.5273 140.275 90.3314ZM133.581 91.2407C125.132 95.0842 115.818 94.9142 106.731 94.777C106.564 95.1922 106.397 95.6074 106.226 96.0352C104.752 99.6062 103.122 102.669 100.669 105.689C100.37 106.062 100.072 106.436 99.7642 106.821C99.5292 107.114 99.2943 107.407 99.0522 107.71C108.824 111.353 121.227 110.867 130.929 107.129C132.859 106.244 134.843 105.236 135.829 103.264C135.864 102.291 135.876 101.329 135.869 100.356C135.868 100.07 135.868 99.7842 135.867 99.4896C135.865 98.5755 135.86 97.6613 135.854 96.7472C135.852 96.1278 135.851 95.5084 135.849 94.8891C135.844 93.3698 135.837 91.8506 135.829 90.3314C135.043 90.3314 134.267 90.9015 133.581 91.2407Z" fill="url(#paint0_linear_152_7309)"/>
<path id="Vector_2" d="M20.5204 128.164C20.9504 128.162 21.3805 128.16 21.8236 128.157C23.2421 128.152 24.6604 128.156 26.0789 128.16C27.0663 128.159 28.0538 128.158 29.0412 128.156C31.1095 128.154 33.1776 128.157 35.2459 128.163C37.896 128.17 40.5459 128.166 43.1959 128.158C45.2345 128.154 47.2731 128.155 49.3118 128.159C50.2889 128.159 51.266 128.158 52.2431 128.156C53.609 128.152 54.9747 128.157 56.3406 128.164C56.7438 128.161 57.147 128.159 57.5624 128.156C60.0071 128.179 61.8629 128.42 63.7478 130.139C65.2486 132.067 65.5592 133.261 65.5333 135.671C65.5297 136.11 65.526 136.549 65.5223 137.002C65.5152 137.506 65.5152 137.506 65.508 138.02C65.7499 137.884 65.9917 137.748 66.2409 137.607C75.4106 132.46 75.4106 132.46 79.653 131.15C79.9489 131.057 80.2449 130.964 80.5497 130.869C86.2944 129.347 92.4569 129.888 98.2262 130.97C99.8628 131.209 101.466 131.244 103.119 131.251C103.678 131.253 103.678 131.253 104.249 131.256C108.792 131.22 113.312 130.78 117.83 130.333C120.932 130.039 123.961 129.885 127.077 130.062C127.36 130.078 127.644 130.094 127.936 130.11C130.948 130.328 132.748 131.145 134.768 133.347C136.591 135.542 136.811 137.66 136.77 140.437C136.54 142.552 135.73 144.181 134.212 145.699C135.799 145.844 137.385 145.953 138.975 146.045C139.545 146.082 140.115 146.126 140.684 146.179C147.12 146.773 152.385 144.667 158.309 142.365C159.295 141.992 160.281 141.621 161.267 141.251C163.212 140.52 165.154 139.784 167.094 139.041C170.347 137.799 173.615 136.603 176.89 135.421C177.713 135.123 178.536 134.822 179.358 134.521C179.84 134.344 180.323 134.168 180.82 133.987C181.229 133.837 181.637 133.687 182.058 133.533C184.924 132.548 187.784 132.252 190.666 133.373C193.135 134.614 194.908 136.636 196.021 139.157C196.8 141.611 196.768 144.171 196.071 146.633C193.896 149.468 190.096 151.01 186.999 152.641C185.996 153.169 184.995 153.702 183.993 154.234C183.484 154.505 182.975 154.775 182.466 155.045C180.214 156.241 177.974 157.458 175.738 158.682C172.677 160.356 169.612 162.023 166.544 163.683C163.442 165.362 160.343 167.045 157.248 168.735C153.748 170.646 150.244 172.55 146.735 174.444C144.716 175.535 142.703 176.634 140.699 177.752C132.695 182.212 125.398 184.684 116.242 185.346C115.53 185.397 115.53 185.397 114.804 185.45C109.698 185.793 104.605 185.811 99.4892 185.788C98.499 185.786 97.5088 185.785 96.5187 185.784C93.9535 185.781 91.3884 185.774 88.8233 185.764C86.1894 185.756 83.5554 185.753 80.9215 185.748C75.7837 185.74 70.6459 185.726 65.508 185.709C65.5157 186.156 65.5233 186.604 65.5312 187.065C65.5084 188.516 65.4023 189.077 64.624 190.256C64.4599 190.516 64.2958 190.777 64.1267 191.045C63.092 192.22 62.1466 192.899 60.5536 193.097C59.383 193.145 58.2179 193.152 57.0464 193.147C56.6006 193.15 56.1549 193.152 55.6956 193.155C54.2224 193.163 52.7494 193.161 51.2762 193.159C50.252 193.161 49.2277 193.163 48.2035 193.165C46.0567 193.169 43.91 193.168 41.7632 193.164C39.2849 193.159 36.8069 193.165 34.3287 193.176C31.9405 193.186 29.5525 193.187 27.1643 193.184C26.15 193.184 25.1357 193.187 24.1214 193.192C22.7031 193.198 21.2852 193.193 19.8669 193.186C19.2385 193.192 19.2385 193.192 18.5974 193.198C16.2468 193.174 14.8105 192.982 12.9695 191.367C11.2562 189.191 10.8996 187.435 10.8948 184.721C10.893 184.284 10.8913 183.847 10.8895 183.397C10.8897 182.922 10.8899 182.447 10.8901 181.958C10.8887 181.454 10.8874 180.95 10.886 180.431C10.8828 179.053 10.8815 177.674 10.8812 176.296C10.8809 175.433 10.8801 174.571 10.879 173.708C10.8753 170.696 10.8736 167.684 10.8739 164.672C10.8742 161.87 10.8699 159.068 10.8635 156.265C10.8582 153.855 10.8561 151.445 10.8563 149.035C10.8564 147.597 10.8553 146.16 10.851 144.722C10.8463 143.117 10.8482 141.513 10.8506 139.908C10.8484 139.435 10.8461 138.962 10.8438 138.475C10.8661 132.668 10.8661 132.668 12.6664 130.417C15.2633 128.352 17.3092 128.144 20.5204 128.164ZM15.7985 133.979C15.3936 135.193 15.3417 136.003 15.3376 137.272C15.3353 137.703 15.333 138.133 15.3306 138.577C15.3302 139.049 15.3297 139.522 15.3293 140.008C15.3272 140.506 15.3252 141.003 15.3232 141.516C15.3183 142.881 15.3153 144.247 15.3135 145.612C15.3123 146.465 15.3106 147.318 15.3088 148.171C15.3033 150.841 15.2994 153.51 15.2978 156.18C15.296 159.26 15.2889 162.341 15.2772 165.422C15.2685 167.804 15.2644 170.186 15.2639 172.568C15.2634 173.99 15.2611 175.413 15.2538 176.835C15.2459 178.422 15.2477 180.009 15.2503 181.596C15.2466 182.066 15.2429 182.537 15.239 183.022C15.2413 183.455 15.2435 183.888 15.2459 184.334C15.2453 184.709 15.2447 185.084 15.2441 185.47C15.4263 186.739 15.8619 187.503 16.6068 188.538C17.5334 189.001 18.0516 188.994 19.0817 188.996C19.6053 188.999 19.6053 188.999 20.1394 189.001C20.5232 189.001 20.907 189.001 21.3024 189.001C21.7059 189.002 22.1095 189.004 22.5252 189.005C23.8645 189.009 25.2037 189.01 26.543 189.01C27.4713 189.011 28.3995 189.013 29.3278 189.014C31.2759 189.017 33.224 189.017 35.1721 189.017C37.6709 189.017 40.1697 189.022 42.6685 189.029C44.5865 189.034 46.5044 189.035 48.4224 189.035C49.3437 189.035 50.2651 189.037 51.1865 189.04C52.4743 189.044 53.762 189.043 55.0499 189.04C55.432 189.043 55.8142 189.045 56.2079 189.047C56.5592 189.045 56.9105 189.044 57.2725 189.042C57.5769 189.042 57.8814 189.042 58.195 189.043C59.1762 188.926 59.821 188.653 60.6583 188.134C61.1752 187.1 61.1157 186.369 61.1192 185.211C61.1215 184.763 61.1239 184.315 61.1262 183.853C61.1267 183.359 61.1271 182.865 61.1276 182.356C61.1296 181.837 61.1316 181.319 61.1337 180.785C61.139 179.36 61.1416 177.936 61.1434 176.511C61.1446 175.622 61.1462 174.732 61.148 173.843C61.1536 171.062 61.1575 168.28 61.159 165.499C61.1608 162.286 61.1679 159.072 61.1796 155.859C61.1884 153.376 61.1925 150.894 61.193 148.412C61.1934 146.929 61.1958 145.445 61.203 143.962C61.2109 142.308 61.2092 140.654 61.2065 139.001C61.2103 138.507 61.214 138.014 61.2178 137.506C61.2156 137.057 61.2133 136.607 61.211 136.144C61.2116 135.753 61.2122 135.362 61.2128 134.959C61.1339 133.968 61.1339 133.968 60.5572 133.247C59.6697 132.644 59.1552 132.614 58.0861 132.612C57.7257 132.609 57.3653 132.606 56.994 132.602C56.5997 132.604 56.2054 132.607 55.7992 132.609C55.1751 132.606 55.1751 132.606 54.5384 132.603C53.1599 132.598 51.7817 132.601 50.4032 132.605C49.4474 132.604 48.4916 132.603 47.5357 132.602C45.5313 132.6 43.5268 132.603 41.5223 132.608C38.9496 132.615 36.377 132.611 33.8043 132.604C31.8302 132.6 29.8561 132.601 27.882 132.604C26.9332 132.605 25.9845 132.604 25.0357 132.601C23.711 132.598 22.3865 132.603 21.0618 132.609C20.4704 132.606 20.4704 132.606 19.867 132.602C19.5066 132.605 19.1462 132.609 18.7749 132.612C18.3051 132.613 18.3051 132.613 17.8258 132.614C16.786 132.808 16.4402 133.151 15.7985 133.979ZM70.3337 140.512C70.0004 140.7 69.6671 140.888 69.3237 141.081C69.0265 141.25 68.7294 141.42 68.4232 141.594C67.4832 142.085 66.4929 142.476 65.508 142.87C65.508 155.54 65.508 168.21 65.508 181.263C73.388 181.287 73.388 181.287 81.268 181.303C84.4897 181.308 87.7113 181.313 90.9329 181.324C93.535 181.333 96.1371 181.338 98.7392 181.34C99.7238 181.342 100.708 181.344 101.693 181.349C117.575 181.417 129.057 179.164 143.004 171.479C144.576 170.612 146.152 169.754 147.729 168.896C148.816 168.303 149.903 167.709 150.989 167.115C152.52 166.279 154.053 165.448 155.589 164.621C159.61 162.454 163.612 160.263 167.579 158C171.01 156.044 174.483 154.193 177.994 152.384C185.146 148.689 185.146 148.689 192.005 144.486C192.232 142.537 192.221 141.648 191.272 139.915C189.77 137.977 189.77 137.977 187.53 137.261C185.335 137.089 183.598 137.68 181.565 138.448C181.188 138.584 180.81 138.719 180.421 138.859C179.609 139.152 178.798 139.449 177.989 139.749C176.706 140.224 175.421 140.688 174.134 141.151C170.203 142.568 166.287 144.018 162.387 145.516C160.807 146.121 159.225 146.718 157.643 147.315C156.548 147.733 155.46 148.164 154.372 148.597C150.017 150.278 146.346 150.882 141.693 150.605C140.244 150.524 138.795 150.494 137.344 150.46C136.196 150.432 135.048 150.399 133.9 150.365C133.519 150.354 133.138 150.343 132.746 150.332C131.966 150.308 131.187 150.283 130.407 150.256C124.853 150.018 124.853 150.018 119.364 150.748C118.141 151.022 116.926 151.109 115.678 151.208C111.2 151.575 108.253 152.688 104.926 155.763C104.306 156.207 104.306 156.207 103.144 156.181C102.285 155.802 102.285 155.802 101.881 155.398C101.776 153.832 101.759 152.659 102.689 151.357C103.221 151.074 103.762 150.807 104.306 150.549C104.656 150.357 105.007 150.165 105.368 149.968C108.671 148.209 111.482 147.521 115.18 147.162C120.366 146.648 127.994 145.761 131.678 141.694C132.482 140.371 132.484 139.092 132.192 137.616C131.378 136.198 130.873 135.479 129.369 134.863C125.172 133.791 120.725 134.507 116.477 134.902C108.713 135.612 101.181 136.124 93.4484 134.814C84.8 133.353 77.7386 136.337 70.3337 140.512Z" fill="url(#paint1_linear_152_7309)"/>
<path id="Vector_3" d="M81.2442 69.5686C82.4819 69.7202 82.4819 69.7202 83.2144 70.3264C83.6943 71.3367 83.6943 71.3367 83.7701 72.928C83.8101 73.7849 83.8101 73.7849 84.0985 74.5699C84.8614 75.1921 85.6541 75.6134 86.5202 76.0791C88.0969 77.073 88.703 78.5103 89.1755 80.2626C89.4038 81.542 89.4343 82.4599 88.9229 83.6631C88.1399 84.2693 88.1399 84.2693 86.9022 84.4208C85.715 84.2693 85.715 84.2693 84.9068 83.461C84.5938 82.5393 84.3422 81.6096 84.089 80.6699C83.7575 79.7701 83.7575 79.7701 82.9224 79.3012C81.7051 78.8893 80.8784 79.0806 79.6529 79.4196C78.8446 79.8237 78.8446 79.8237 78.4405 80.632C78.2047 82.0294 78.2047 82.0294 78.4405 83.461C79.6069 84.9567 80.5989 85.3294 82.4314 85.6838C85.0562 86.2841 86.6283 86.9561 88.2662 89.1695C89.4239 91.4411 89.7045 94.0197 88.9734 96.4693C88.0581 98.5738 86.1311 100.227 84.0985 101.243C83.8498 102.166 83.8498 102.166 83.6943 103.239C83.3789 105.196 83.3789 105.196 82.4819 106.093C81.2695 106.194 81.2695 106.194 80.0571 106.093C79.0374 105.073 79.1725 104.693 79.1477 103.289C79.0855 102.204 79.0855 102.204 78.8446 101.243C77.754 100.512 77.754 100.512 76.4198 100.031C74.5743 98.2747 73.5467 96.7669 73.4645 94.1708C73.4892 92.4889 73.4892 92.4889 74.2475 91.4681C75.2073 91.1397 75.2073 91.1397 76.445 91.2407C77.8028 92.0497 77.8804 92.322 78.3394 93.7666C78.4207 94.0876 78.502 94.4085 78.5857 94.7391C78.7961 95.6632 78.7961 95.6632 79.6529 96.3936C81.7641 96.6188 81.7641 96.6188 83.6691 95.9136C84.2351 94.948 84.4491 94.2853 84.5026 93.1604C83.8187 91.6126 83.2088 90.9782 81.6736 90.3314C81.0878 90.1972 80.4979 90.0796 79.9055 89.9778C77.2427 89.4138 75.5419 88.1204 73.9949 85.8859C73.1577 83.3743 73.1327 80.4062 74.2475 78.0051C77.1022 75.0001 77.1022 75.0001 79.2488 74.5699C79.2394 74.2875 79.23 74.0051 79.2203 73.7142C79.2131 73.3464 79.2058 72.9786 79.1982 72.5997C79.1889 72.234 79.1795 71.8682 79.1698 71.4914C79.2935 69.9829 79.7878 69.7545 81.2442 69.5686Z" fill="url(#paint2_linear_152_7309)"/>
</g>
<defs>
<linearGradient id="paint0_linear_152_7309" x1="54.7568" y1="63.9343" x2="202.797" y2="104.32" gradientUnits="userSpaceOnUse">
<stop offset="0.295" stop-color="#4B1790"/>
<stop offset="0.865" stop-color="#D17BDF"/>
</linearGradient>
<linearGradient id="paint1_linear_152_7309" x1="10.8437" y1="160.676" x2="174.701" y2="256.764" gradientUnits="userSpaceOnUse">
<stop offset="0.295" stop-color="#4B1790"/>
<stop offset="0.865" stop-color="#D17BDF"/>
</linearGradient>
<linearGradient id="paint2_linear_152_7309" x1="73.3867" y1="87.8687" x2="92.1902" y2="89.5554" gradientUnits="userSpaceOnUse">
<stop offset="0.295" stop-color="#4B1790"/>
<stop offset="0.865" stop-color="#D17BDF"/>
</linearGradient>
</defs>
</svg>
