<svg width="208" height="208" viewBox="0 0 208 208" fill="none" xmlns="http://www.w3.org/2000/svg">
<g id="Simplification">
<path id="Vector" d="M81.0674 5.42342C83.3097 6.79911 85.4726 9.10109 86.1192 11.6876C86.742 14.7498 86.4866 17.4762 85.0331 20.2757C83.2956 22.3419 81.7742 23.61 79.2488 24.6202C79.1154 31.6886 78.9821 38.7571 78.8447 46.0397C86.3132 46.0397 93.7818 46.0397 101.477 46.0397C101.477 38.9713 101.477 31.9028 101.477 24.6202C100.543 24.3535 99.6095 24.0867 98.6476 23.8119C96.3671 22.4247 94.7603 20.3518 93.9653 17.7971C93.2488 14.1335 93.8439 11.0654 95.8439 7.97457C97.6513 6.02273 99.856 4.97422 102.479 4.63566C106.081 4.52369 108.364 5.0526 111.075 7.39361C113.766 10.533 114.309 12.8832 114.005 16.9415C113.503 19.3922 112.239 21.3571 110.368 23.0036C107.807 24.6202 107.807 24.6202 106.326 24.6202C106.326 31.6886 106.326 38.7571 106.326 46.0397C113.795 46.0397 121.263 46.0397 128.958 46.0397C128.958 38.9713 128.958 31.9028 128.958 24.6202C128.158 24.3535 127.358 24.0867 126.533 23.8119C123.605 21.8842 122.093 19.56 121.33 16.1837C121.089 13.0346 121.804 10.3911 123.818 7.95247C126.113 5.60508 128.185 4.75331 131.459 4.69091C134.48 4.69091 136.374 5.10841 138.628 7.13313C140.792 9.3777 141.713 11.6444 142.042 14.7187C141.67 18.198 140.457 20.641 137.849 23.0036C135.586 24.6202 135.586 24.6202 134.212 24.6202C134.212 31.6886 134.212 38.7571 134.212 46.0397C136.153 46.0257 138.093 46.0116 140.093 45.9971C141.321 45.9909 142.55 45.9851 143.778 45.9805C145.729 45.9733 147.679 45.9647 149.629 45.9483C151.202 45.9351 152.774 45.9279 154.346 45.9247C154.946 45.9225 155.547 45.9181 156.147 45.9116C156.987 45.9028 157.826 45.9015 158.666 45.9021C159.145 45.8994 159.623 45.8967 160.116 45.8939C161.29 46.0397 161.29 46.0397 162.051 46.4906C162.725 47.6282 162.647 48.5598 162.64 49.8754C162.64 50.1397 162.64 50.404 162.64 50.6763C162.639 51.5489 162.63 52.4212 162.621 53.2938C162.618 53.8991 162.617 54.5045 162.615 55.1098C162.611 56.7025 162.599 58.295 162.585 59.8875C162.571 61.7987 162.565 63.7099 162.558 65.6212C162.546 68.5241 162.523 71.4268 162.502 74.3297C169.304 74.3297 176.106 74.3297 183.113 74.3297C183.38 73.5295 183.647 72.7293 183.922 71.9049C185.162 69.425 187.133 68.2125 189.58 67.0552C192.579 66.3064 195.287 66.5166 198.067 67.8634C200.997 69.8205 202.501 72.0864 203.27 75.4916C203.514 78.6869 202.772 81.2877 200.725 83.7513C198.93 85.6713 197.275 86.7398 194.636 86.9939C191.163 87.0294 188.569 86.9768 185.958 84.4854C184.575 82.9921 183.889 81.9269 183.113 79.9877C176.312 79.8543 169.51 79.721 162.502 79.5836C162.502 86.9188 162.502 94.2539 162.502 101.811C172.705 101.611 172.705 101.611 183.113 101.407C183.914 99.8069 183.914 99.8069 184.73 98.1741C186.479 96.0986 188.81 94.6937 191.531 94.4232C194.894 94.3218 197.766 94.7747 200.337 97.1069C202.262 99.3907 203.274 102.086 203.321 105.045C203.073 107.917 201.936 110.127 200.087 112.319C197.231 114.64 194.376 115.066 190.792 114.744C188.34 114.236 186.379 112.981 184.73 111.107C183.113 108.546 183.113 108.546 183.113 107.065C176.312 107.065 169.51 107.065 162.502 107.065C162.502 114.534 162.502 122.002 162.502 129.697C172.705 129.497 172.705 129.497 183.113 129.293C183.647 128.226 184.18 127.159 184.73 126.06C186.843 123.648 189.103 122.356 192.312 122.036C195.636 121.972 198.106 122.957 200.492 125.252C202.533 127.329 203.158 129.652 203.321 132.526C203.158 136.084 201.605 138.283 199.153 140.735C196.84 142.188 194.335 142.96 191.6 142.63C188.52 141.862 186.263 140.739 184.326 138.184C183.113 136.111 183.113 136.111 183.113 134.951C176.312 134.951 169.51 134.951 162.502 134.951C162.516 136.892 162.53 138.832 162.545 140.832C162.551 142.06 162.557 143.289 162.561 144.517C162.569 146.468 162.577 148.418 162.594 150.368C162.607 151.941 162.614 153.513 162.617 155.085C162.619 155.685 162.624 156.286 162.63 156.886C162.639 157.726 162.64 158.565 162.64 159.405C162.644 160.123 162.644 160.123 162.648 160.855C162.502 162.029 162.502 162.029 162.051 162.79C160.914 163.464 159.982 163.386 158.666 163.379C158.402 163.379 158.138 163.379 157.866 163.379C156.993 163.378 156.121 163.369 155.248 163.359C154.643 163.357 154.037 163.355 153.432 163.354C151.839 163.35 150.247 163.338 148.654 163.324C146.743 163.31 144.832 163.304 142.921 163.297C140.018 163.285 137.115 163.262 134.212 163.241C134.212 170.043 134.212 176.845 134.212 183.852C135.012 184.119 135.813 184.386 136.637 184.661C139.138 186.347 140.916 188.415 141.79 191.329C142.097 194.403 141.751 196.872 140.274 199.614C138.291 201.901 136.275 203.496 133.207 203.791C129.733 203.827 127.14 203.774 124.529 201.283C122.226 198.797 121.329 196.531 121.28 193.148C121.64 189.671 123.149 187.464 125.735 185.185C126.533 184.661 126.533 184.661 128.958 183.852C128.958 177.051 128.958 170.249 128.958 163.241C121.49 163.241 114.021 163.241 106.326 163.241C106.326 170.043 106.326 176.845 106.326 183.852C107.26 184.119 108.193 184.386 109.155 184.661C111.434 186.047 113.048 188.121 113.836 190.677C114.475 193.907 114.129 196.808 112.388 199.614C110.842 201.445 109.02 202.892 106.73 203.655C103.483 203.907 100.534 204.052 97.8393 202.039C95.5799 200.087 93.9591 197.973 93.7158 194.96C93.654 191.356 94.2608 188.793 96.7264 186.092C98.0205 184.954 99.7099 183.852 101.477 183.852C101.477 177.051 101.477 170.249 101.477 163.241C94.0081 163.241 86.5395 163.241 78.8447 163.241C78.978 170.043 79.1114 176.845 79.2488 183.852C80.8492 184.653 80.8492 184.653 82.4819 185.469C84.8937 187.582 86.1857 189.842 86.506 193.051C86.5702 196.394 85.5571 198.807 83.2902 201.23C80.6606 203.668 78.1503 203.877 74.669 203.778C71.8684 203.546 70.3343 202.542 68.4127 200.548C66.7189 198.468 66.0437 196.397 65.7605 193.754C66.1333 190.275 67.3456 187.832 69.9535 185.469C72.2167 183.852 72.2167 183.852 73.5908 183.852C73.5908 177.051 73.5908 170.249 73.5908 163.241C70.6799 163.262 70.6799 163.262 67.7102 163.284C66.4817 163.29 65.2533 163.296 64.0248 163.3C62.0743 163.308 60.1239 163.316 58.1735 163.333C56.6012 163.346 55.0291 163.353 53.4567 163.356C52.8565 163.358 52.2563 163.363 51.6561 163.369C50.8161 163.378 49.9765 163.379 49.1365 163.379C48.6582 163.381 48.1798 163.384 47.687 163.387C46.5132 163.241 46.5132 163.241 45.7517 162.79C45.0782 161.653 45.1558 160.721 45.1632 159.405C45.1629 159.009 45.1629 159.009 45.1626 158.605C45.1635 157.732 45.1729 156.86 45.1824 155.987C45.1847 155.382 45.1864 154.776 45.1876 154.171C45.1922 152.578 45.2042 150.986 45.2176 149.393C45.2322 147.482 45.2377 145.571 45.2448 143.66C45.2565 140.757 45.2798 137.854 45.3008 134.951C38.4991 134.951 31.6974 134.951 24.6895 134.951C24.4228 135.751 24.1561 136.551 23.8813 137.376C21.9965 140.239 19.535 141.91 16.2026 142.63C13.5549 142.9 11.2497 142.264 8.92799 141.013C6.36435 138.79 4.84148 136.45 4.49979 133.027C4.43593 129.7 5.42255 127.236 7.71556 124.848C9.87066 122.681 12.3987 122.171 15.3943 122.019C18.8774 122.279 21.1222 123.924 23.3571 126.513C23.8813 127.272 23.8813 127.272 24.6895 129.293C31.4913 129.426 38.293 129.56 45.3008 129.697C45.3008 122.229 45.3008 114.76 45.3008 107.065C38.4991 107.065 31.6974 107.065 24.6895 107.065C24.4228 107.999 24.1561 108.932 23.8813 109.894C22.4952 112.173 20.4205 113.787 17.8649 114.575C13.9712 115.345 11.1355 114.432 7.8166 112.471C5.6566 110.191 4.53188 107.352 4.48242 104.236C4.72766 101.385 5.82423 99.1019 7.71556 96.9617C10.3656 94.8213 12.7711 94.3626 16.1331 94.3995C19.2073 94.7289 21.497 96.2786 23.414 98.6414C23.8813 99.3866 23.8813 99.3866 24.6895 101.407C31.4913 101.541 38.293 101.674 45.3008 101.811C45.3008 94.4762 45.3008 87.141 45.3008 79.5836C35.0982 79.7836 35.0982 79.7836 24.6895 79.9877C24.1561 81.0546 23.6226 82.1216 23.073 83.2209C22.2789 84.127 22.2789 84.127 21.4817 84.7869C21.2196 85.0109 20.9576 85.2349 20.6876 85.4657C17.9709 87.3376 14.9183 87.1207 11.757 86.8581C9.02136 86.1859 7.30523 84.2272 5.69485 82.0084C4.24835 79.4442 4.26493 76.3331 5.00023 73.5467C5.85587 71.0914 7.60574 69.2824 9.73627 67.8634C12.4866 66.5637 15.045 66.2683 17.9959 67.0804C21.1749 68.2359 23.2732 70.5118 24.6895 73.5214C24.6895 73.7882 24.6895 74.0549 24.6895 74.3297C31.4913 74.3297 38.293 74.3297 45.3008 74.3297C45.2868 72.3891 45.2727 70.4485 45.2582 68.4491C45.252 67.2206 45.2462 65.9922 45.2416 64.7637C45.2344 62.8132 45.2258 60.8628 45.2094 58.9124C45.1962 57.3402 45.1889 55.768 45.1858 54.1957C45.1835 53.5954 45.1792 52.9952 45.1726 52.395C45.1638 51.5551 45.1626 50.7154 45.1632 49.8754C45.1591 49.1579 45.1591 49.1579 45.155 48.4259C45.3008 47.2522 45.3008 47.2522 45.7517 46.4906C46.8893 45.8171 47.8209 45.8947 49.1365 45.9021C49.4008 45.9019 49.6651 45.9017 49.9374 45.9016C50.81 45.9024 51.6823 45.9118 52.5549 45.9213C53.1602 45.9236 53.7656 45.9253 54.3709 45.9265C55.9635 45.9312 57.556 45.9431 59.1486 45.9565C61.0598 45.9711 62.971 45.9766 64.8822 45.9837C67.7852 45.9955 70.6878 46.0187 73.5908 46.0397C73.5908 38.9713 73.5908 31.9028 73.5908 24.6202C72.3905 24.2201 72.3905 24.2201 71.1659 23.8119C68.6647 22.1252 66.8874 20.0578 66.0131 17.1436C65.7057 14.0696 66.0519 11.6 67.5287 8.85863C70.9017 4.96961 76.1326 3.23231 81.0674 5.42342ZM71.9742 12.0918C71.2128 13.3498 71.1648 14.0467 71.1912 15.527C71.7198 17.5004 72.7411 18.3391 74.3486 19.5179C75.7146 19.9197 76.6658 19.7208 78.0364 19.3663C79.2129 18.6152 80.2305 17.807 80.8654 16.5373C81.08 15.004 81.2092 13.5211 80.4423 12.136C79.505 11.0002 78.7316 10.1684 77.247 9.96055C74.7432 9.84984 73.6736 10.2266 71.9742 12.0918ZM99.8601 11.6876C98.8397 13.0967 98.8761 14.4348 99.0518 16.1332C99.7954 17.6205 100.436 18.3982 101.805 19.3411C103.399 19.8725 104.305 19.8073 105.922 19.3663C107.287 18.487 108.258 17.7016 108.751 16.1332C108.945 14.3868 108.869 13.5197 108.019 11.9655C107.097 10.8334 106.467 10.1504 104.991 9.93529C102.77 9.90155 101.422 9.93047 99.8601 11.6876ZM127.342 12.0918C126.637 13.5018 126.705 14.9989 126.938 16.5373C127.607 17.8093 128.568 18.6522 129.691 19.5431C131.115 19.9095 132.421 19.7964 133.808 19.3663C135.072 18.3493 136.172 17.3094 136.637 15.7291C136.591 13.2624 135.871 12.1742 134.212 10.4752C131.531 9.13459 129.26 10.078 127.342 12.0918ZM50.5547 51.2936C50.5547 86.5025 50.5547 121.711 50.5547 157.987C85.7636 157.987 120.972 157.987 157.248 157.987C157.248 122.778 157.248 87.5694 157.248 51.2936C122.039 51.2936 86.8305 51.2936 50.5547 51.2936ZM10.5951 74.2034C9.86324 75.7078 9.82937 77.1409 10.1404 78.7753C10.8352 80.0155 11.679 80.9591 12.9694 81.6043C14.4849 81.8165 15.9649 81.9299 17.3566 81.2238C18.6639 80.1941 19.4918 79.1871 19.8398 77.5629C19.8081 75.7881 19.637 74.9787 18.5011 73.5972C17.2484 72.5775 16.4323 72.0049 14.8386 71.7533C13.0598 72.0074 11.9016 73.0275 10.5951 74.2034ZM189.176 73.5214C188.323 74.9609 187.963 75.9162 187.963 77.5881C188.546 79.2999 189.531 80.7717 191.196 81.6043C192.73 81.819 194.213 81.9482 195.598 81.1812C196.733 80.2439 197.565 79.4705 197.773 77.9859C197.848 76.2892 197.847 75.1077 196.753 73.7488C195.495 72.5767 194.771 72.0257 193.091 71.7533C191.552 71.968 190.354 72.5316 189.176 73.5214ZM10.9487 101.407C9.80545 103.122 9.87664 104.647 10.1404 106.661C10.9661 108.077 11.7965 108.994 13.3736 109.49C15.0652 109.678 15.9847 109.599 17.516 108.833C18.771 107.75 19.3158 107.021 19.8398 105.449C19.8023 103.307 19.3326 102.112 17.8191 100.599C15.4514 98.8844 13.0401 99.705 10.9487 101.407ZM189.176 101.407C188.211 102.807 187.958 103.567 187.988 105.272C188.479 107.072 189.207 108.119 190.716 109.212C192.032 109.626 193.057 109.632 194.429 109.49C195.926 108.671 196.714 108.084 197.663 106.661C197.945 104.722 197.951 103.115 196.955 101.407C195.601 100.203 194.885 99.8414 193.065 99.6391C191.297 99.8221 190.516 100.25 189.176 101.407ZM11.757 128.485C10.7281 129.382 10.2371 130.012 9.97308 131.36C9.86703 133.02 9.98967 134.196 11.0245 135.532C12.5027 136.879 13.3632 137.393 15.369 137.351C17.3022 136.759 18.5852 135.708 19.6125 133.966C19.9072 132.624 19.8396 131.825 19.4357 130.506C18.4361 128.977 17.7137 128.219 16.051 127.449C14.2098 127.227 13.3493 127.553 11.757 128.485ZM189.984 128.485C188.798 129.608 188.412 130.338 187.988 131.92C187.959 133.547 188.161 134.104 189.176 135.355C190.58 136.722 191.643 137.336 193.621 137.376C195.491 136.703 196.679 135.882 197.663 134.143C197.968 132.598 197.995 131.201 197.306 129.76C196.449 128.603 195.573 128.049 194.278 127.449C192.437 127.227 191.576 127.553 189.984 128.485ZM72.3784 190.319C71.3975 191.698 71.1659 192.466 71.1659 194.158C71.6713 195.927 72.3133 196.689 73.5908 197.997C74.999 198.701 76.5002 198.639 78.0364 198.401C79.279 197.713 80.2212 196.861 80.8654 195.572C81.0775 194.057 81.191 192.577 80.4849 191.185C79.4539 189.876 78.4299 189.114 76.8239 188.702C74.9617 188.702 73.8197 189.197 72.3784 190.319ZM100.668 189.914C99.541 191.22 99.0941 192.043 98.8497 193.754C99.0907 195.441 99.5797 196.293 100.668 197.593C102.357 198.631 103.99 198.684 105.922 198.401C107.325 197.566 108.257 196.741 108.751 195.168C108.939 193.477 108.86 192.557 108.094 191.026C107.035 189.799 106.221 189.269 104.71 188.702C102.903 188.702 102.185 188.967 100.668 189.914ZM127.392 191.001C126.66 192.505 126.627 193.938 126.938 195.572C127.632 196.813 128.476 197.756 129.767 198.401C131.282 198.614 132.762 198.727 134.154 198.021C135.461 196.991 136.289 195.984 136.637 194.36C136.605 192.585 136.434 191.776 135.298 190.394C134.046 189.375 133.229 188.802 131.636 188.551C129.857 188.805 128.699 189.825 127.392 191.001Z" fill="url(#paint0_linear_157_7313)"/>
<path id="Vector_2" d="M113.905 62.9378C118.05 65.9157 120.587 69.6782 121.684 74.7337C121.776 76.3437 121.761 77.9462 121.735 79.5581C121.731 79.9887 121.727 80.4193 121.724 80.8629C121.714 81.9184 121.701 82.9736 121.684 84.029C122.373 84.0194 122.373 84.0194 123.075 84.0097C124.776 83.9878 126.478 83.9739 128.179 83.9624C128.916 83.9563 129.652 83.948 130.389 83.9375C131.447 83.9228 132.505 83.9159 133.564 83.9106C133.894 83.9043 134.223 83.898 134.563 83.8916C136.852 83.8909 136.852 83.8909 137.735 84.5344C138.384 85.4187 138.407 85.9009 138.411 86.9918C138.415 87.3492 138.419 87.7067 138.423 88.075C138.421 88.4661 138.419 88.8572 138.417 89.2602C138.42 89.673 138.423 90.0859 138.426 90.5112C138.433 91.8799 138.432 93.2484 138.429 94.6172C138.431 95.5682 138.433 96.5191 138.436 97.4701C138.439 99.4661 138.438 101.462 138.434 103.458C138.43 106.013 138.438 108.567 138.45 111.121C138.457 113.087 138.457 115.052 138.455 117.018C138.455 117.959 138.457 118.901 138.462 119.842C138.468 121.162 138.464 122.481 138.457 123.8C138.463 124.381 138.463 124.381 138.469 124.973C138.439 127.715 137.908 129.928 136.016 131.991C134.036 133.865 131.565 135.078 129.186 136.365C128.282 136.863 127.378 137.361 126.474 137.86C126.015 138.114 125.555 138.367 125.082 138.628C122.913 139.839 120.77 141.094 118.628 142.352C115.842 143.985 113.054 145.613 110.242 147.201C109.981 147.35 109.72 147.498 109.451 147.651C106.758 149.164 104.542 149.54 101.477 149.096C99.1905 148.252 97.1191 147.077 95.0109 145.863C94.6585 145.661 94.3062 145.46 93.9433 145.252C91.9304 144.096 89.927 142.925 87.9289 141.744C86.1163 140.674 84.2956 139.619 82.4666 138.577C81.9922 138.306 81.5177 138.035 81.0433 137.764C80.1402 137.249 79.2364 136.736 78.3315 136.224C70.8354 131.937 70.8354 131.937 69.5499 128.08C69.5116 127.493 69.4954 126.905 69.4931 126.317C69.4897 125.776 69.4897 125.776 69.4861 125.224C69.4857 124.83 69.4852 124.436 69.4848 124.03C69.4827 123.614 69.4807 123.197 69.4787 122.769C69.4728 121.39 69.47 120.012 69.4678 118.634C69.4655 117.678 69.4631 116.722 69.4608 115.766C69.4566 113.762 69.4542 111.757 69.4528 109.753C69.4506 107.18 69.4408 104.607 69.4294 102.035C69.4218 100.061 69.4197 98.0866 69.4191 96.1125C69.4179 95.1637 69.4146 94.2149 69.4093 93.2662C69.4025 91.9415 69.4032 90.617 69.4058 89.2923C69.4021 88.898 69.3984 88.5037 69.3945 88.0974C69.3968 87.737 69.399 87.3767 69.4014 87.0054C69.4008 86.6922 69.4002 86.3789 69.3996 86.0562C69.5931 85.0069 69.905 84.6526 70.7623 84.029C71.9512 83.9232 73.0527 83.888 74.2401 83.9106C74.5793 83.9123 74.9185 83.914 75.2679 83.9158C76.351 83.9225 77.4338 83.9378 78.5168 83.9532C79.2511 83.9593 79.9855 83.9648 80.7198 83.9698C82.5199 83.9831 84.3198 84.0041 86.1197 84.029C86.1134 83.7685 86.107 83.5081 86.1005 83.2398C86.075 82.0379 86.0594 80.836 86.0439 79.6339C86.0338 79.2244 86.0236 78.815 86.0132 78.3931C85.9626 73.1339 87.6441 68.8786 91.1715 64.9585C97.3731 59.0453 106.804 58.5013 113.905 62.9378ZM93.268 70.8438C90.5052 75.1414 91.3736 78.8146 91.3736 84.029C99.6423 84.029 107.911 84.029 116.43 84.029C116.774 75.3948 116.774 75.3948 112.736 68.9762C109.617 66.0339 106.773 65.2369 102.476 65.3137C98.4812 65.6687 95.9605 68.0785 93.268 70.8438ZM74.8037 89.2828C74.7704 95.4427 74.737 101.603 74.7027 107.949C74.688 109.893 74.6733 111.837 74.6581 113.84C74.6527 115.584 74.6527 115.584 74.6494 117.329C74.647 118.106 74.6413 118.882 74.6331 119.658C74.6212 120.835 74.6196 122.011 74.6202 123.188C74.6144 123.533 74.6086 123.878 74.6026 124.233C74.614 125.86 74.6744 126.665 75.5683 128.07C76.4324 128.9 77.2189 129.465 78.2705 130.036C78.6349 130.238 78.9992 130.439 79.3746 130.647C79.7667 130.859 80.1588 131.07 80.5628 131.288C81.404 131.753 82.2449 132.218 83.0855 132.684C83.5193 132.923 83.9532 133.163 84.4001 133.409C86.5229 134.593 88.6198 135.819 90.7168 137.047C91.1205 137.282 91.5241 137.517 91.9399 137.759C93.7876 138.835 95.6246 139.923 97.4389 141.056C97.7481 141.246 98.0574 141.436 98.376 141.632C98.9385 141.98 99.4976 142.333 100.052 142.693C101.825 143.781 103.432 144.335 105.519 143.842C107.068 143.158 108.478 142.288 109.914 141.392C110.775 140.872 111.636 140.352 112.498 139.832C112.943 139.561 113.388 139.29 113.847 139.01C116.11 137.646 118.406 136.34 120.699 135.027C121.99 134.282 123.279 133.537 124.569 132.791C125.298 132.369 126.027 131.949 126.756 131.529C127.619 131.031 128.479 130.529 129.338 130.025C129.791 129.761 130.245 129.497 130.713 129.225C131.835 128.452 132.345 128.052 133 126.868C133.175 125.657 133.153 124.456 133.138 123.234C133.138 122.862 133.138 122.489 133.138 122.105C133.137 120.899 133.128 119.694 133.119 118.488C133.117 117.744 133.116 116.999 133.115 116.254C133.109 113.494 133.092 110.734 133.076 107.974C133.051 101.806 133.026 95.638 133 89.2828C113.795 89.2828 94.5905 89.2828 74.8037 89.2828Z" fill="url(#paint1_linear_157_7313)"/>
<path id="Vector_3" d="M107.749 98.5277C109.994 99.8326 111.565 101.764 112.389 104.236C112.673 107.117 112.549 109.549 110.772 111.915C109.534 113.204 108.437 114.175 106.731 114.744C106.725 115.203 106.719 115.662 106.713 116.134C106.689 117.836 106.658 119.537 106.625 121.239C106.611 121.975 106.6 122.712 106.591 123.448C106.577 124.507 106.556 125.565 106.533 126.624C106.53 127.118 106.53 127.118 106.526 127.623C106.466 129.923 106.466 129.923 105.785 130.795C104.75 131.595 103.955 131.472 102.689 131.314C102.014 130.912 102.014 130.912 101.477 130.101C101.377 128.933 101.347 127.847 101.37 126.68C101.368 125.992 101.367 125.303 101.365 124.615C101.368 123.53 101.376 122.445 101.392 121.361C101.406 120.313 101.401 119.266 101.395 118.219C101.404 117.895 101.414 117.571 101.424 117.237C101.441 116.199 101.441 116.199 101.073 114.744C100.179 113.963 99.3489 113.619 98.2438 113.127C97.4513 112.305 97.4513 112.305 96.8798 111.486C96.685 111.214 96.4901 110.943 96.2894 110.663C95.0754 108.679 95.1966 106.483 95.4148 104.236C96.2083 101.538 97.8251 100.004 100.17 98.5356C102.428 97.6316 105.471 97.7367 107.749 98.5277ZM101.25 104.261C100.492 105.809 100.616 106.634 101.073 108.278C101.715 109.241 102.16 109.444 103.245 109.844C104.637 109.91 105.228 109.513 106.327 108.682C107.279 107.515 107.279 107.515 107.059 106.055C106.813 104.708 106.813 104.708 106.301 103.857C104.477 102.857 102.799 103.014 101.25 104.261Z" fill="url(#paint2_linear_157_7313)"/>
</g>
<defs>
<linearGradient id="paint0_linear_157_7313" x1="4.48242" y1="104.131" x2="230.704" y2="150.467" gradientUnits="userSpaceOnUse">
<stop offset="0.295" stop-color="#4B1790"/>
<stop offset="0.865" stop-color="#D17BDF"/>
</linearGradient>
<linearGradient id="paint1_linear_157_7313" x1="69.3945" y1="104.639" x2="149.262" y2="117.329" gradientUnits="userSpaceOnUse">
<stop offset="0.295" stop-color="#4B1790"/>
<stop offset="0.865" stop-color="#D17BDF"/>
</linearGradient>
<linearGradient id="paint2_linear_157_7313" x1="95.2744" y1="114.663" x2="115.476" y2="116.794" gradientUnits="userSpaceOnUse">
<stop offset="0.295" stop-color="#4B1790"/>
<stop offset="0.865" stop-color="#D17BDF"/>
</linearGradient>
</defs>
</svg>
