<svg width="167" height="166" viewBox="0 0 167 166" fill="none" xmlns="http://www.w3.org/2000/svg">
<g id="Frame">
<path id="Vector" d="M138.605 82.9419C138.605 116.797 101.676 141.42 88.2404 149.259C86.7133 150.15 85.9497 150.595 84.8724 150.826C84.0357 151.006 82.8163 151.006 81.9796 150.826C80.9023 150.595 80.1387 150.15 78.6116 149.259C65.1753 141.42 28.2471 116.797 28.2471 82.9419V49.9557C28.2471 44.4412 28.2471 41.6839 29.149 39.3138C29.9457 37.22 31.2404 35.3518 32.9211 33.8706C34.8237 32.1939 37.4054 31.2258 42.5688 29.2895L79.5511 15.4211C80.985 14.8834 81.7017 14.6145 82.4397 14.5079C83.0936 14.4134 83.7585 14.4134 84.4123 14.5079C85.1503 14.6145 85.867 14.8834 87.3009 15.4211L124.283 29.2895C129.447 31.2258 132.028 32.1939 133.931 33.8706C135.611 35.3518 136.906 37.22 137.703 39.3138C138.605 41.6839 138.605 44.4412 138.605 49.9557V82.9419Z" stroke="url(#paint0_linear_1_2693)" stroke-width="2.06921" stroke-linecap="round" stroke-linejoin="round"/>
</g>
<defs>
<linearGradient id="paint0_linear_1_2693" x1="28.2471" y1="82.699" x2="155.563" y2="103.831" gradientUnits="userSpaceOnUse">
<stop offset="0.295" stop-color="#4B1790"/>
<stop offset="0.865" stop-color="#D17BDF"/>
</linearGradient>
</defs>
</svg>
