<svg width="29" height="24" viewBox="0 0 29 24" fill="none" xmlns="http://www.w3.org/2000/svg">
<path d="M10.7628 1.31458L9.4695 7.06238M19.8155 1.31458L18.5223 7.06238M27.5751 7.06238H1.70996M7.91759 22.0067H21.3675C23.5404 22.0067 24.6267 22.0067 25.4567 21.6308C26.1868 21.3002 26.7802 20.7726 27.1522 20.1237C27.5751 19.3859 27.5751 18.4203 27.5751 16.4888V6.83247C27.5751 4.90102 27.5751 3.9353 27.1522 3.19759C26.7802 2.54867 26.1868 2.0211 25.4567 1.69046C24.6267 1.31458 23.5404 1.31458 21.3675 1.31458H7.91759C5.74471 1.31458 4.65827 1.31458 3.82835 1.69046C3.09832 2.0211 2.5048 2.54867 2.13283 3.19759C1.70996 3.9353 1.70996 4.90102 1.70996 6.83247V16.4888C1.70996 18.4203 1.70996 19.3859 2.13283 20.1237C2.5048 20.7726 3.09832 21.3002 3.82835 21.6308C4.65827 22.0067 5.74471 22.0067 7.91759 22.0067Z" stroke="white" stroke-width="2.06921" stroke-linecap="round" stroke-linejoin="round"/>
</svg>
