<svg width="333" height="116" viewBox="0 0 333 116" fill="none" xmlns="http://www.w3.org/2000/svg">
<path d="M19.7477 82.9499C21.1516 86.6595 23.0952 89.8313 25.579 92.4653C28.0627 95.0997 31.0052 97.1156 34.4065 98.5134C37.8081 99.9113 41.5064 100.61 45.5019 100.61C49.3895 100.61 53.0338 99.8841 56.4354 98.4324C59.837 96.9807 62.8064 94.938 65.3439 92.304C67.8814 89.6696 69.8523 86.525 71.2561 82.8692C72.66 79.2135 73.3618 75.1282 73.3618 70.6121V0.939453H90.3691V113.835H73.5237V103.351C69.7444 107.329 65.2898 110.394 60.1607 112.545C55.0312 114.695 49.4974 115.77 43.5583 115.77C37.511 115.77 31.869 114.721 26.6316 112.625C21.3946 110.528 16.859 107.545 13.0259 103.674C9.19274 99.8031 6.16888 95.1536 3.95538 89.7235C1.74152 84.2938 0.634766 78.2461 0.634766 71.5795V0.939453H17.6421V70.6121C17.6421 75.1282 18.3439 79.2403 19.7477 82.9499ZM119.685 0.939453V42.0655C123.464 38.3023 127.838 35.319 132.805 33.1146C137.772 30.9103 143.172 29.8083 149.003 29.8083C155.05 29.8083 160.718 30.937 166.01 33.1949C171.301 35.4528 175.89 38.5172 179.778 42.3881C183.665 46.259 186.743 50.8283 189.01 56.0966C191.278 61.3654 192.412 66.9564 192.412 72.8699C192.412 78.7832 191.278 84.3474 189.01 89.5619C186.743 94.7767 183.665 99.3196 179.778 103.19C175.89 107.061 171.301 110.125 166.01 112.383C160.718 114.641 155.05 115.77 149.003 115.77C143.171 115.77 137.745 114.668 132.724 112.463C127.703 110.259 123.302 107.276 119.523 103.512V113.834H103.326V0.939453H119.685ZM121.548 83.998C123.005 87.4389 125.03 90.4494 127.622 93.0299C130.214 95.6103 133.237 97.6534 136.692 99.1586C140.148 100.664 143.873 101.417 147.869 101.417C151.757 101.417 155.428 100.664 158.883 99.1586C162.338 97.6534 165.335 95.6107 167.873 93.0299C170.41 90.4497 172.435 87.4389 173.947 83.998C175.459 80.5575 176.214 76.8483 176.214 72.8699C176.214 68.8916 175.459 65.1553 173.947 61.6609C172.435 58.1664 170.41 55.1292 167.873 52.5487C165.335 49.9686 162.339 47.9523 158.883 46.5009C155.427 45.0496 151.756 44.3234 147.869 44.3234C143.982 44.3234 140.31 45.0492 136.855 46.5009C133.399 47.9527 130.376 49.9686 127.784 52.5487C125.193 55.1292 123.141 58.1664 121.629 61.6609C120.117 65.1553 119.361 68.8916 119.361 72.8699C119.361 76.8483 120.09 80.5575 121.548 83.998ZM201.643 56.2583C203.802 51.0973 206.772 46.5548 210.551 42.6304C214.33 38.706 218.812 35.6148 223.995 33.3569C229.179 31.0991 234.794 29.9703 240.841 29.9703C246.78 29.9703 252.287 31.0455 257.362 33.1956C262.437 35.3461 266.811 38.3298 270.482 42.1468C274.154 45.9635 277.016 50.4796 279.067 55.6941C281.119 60.9089 282.144 66.5806 282.144 72.7094V78.0316H214.925C215.465 81.3647 216.545 84.4559 218.164 87.3047C219.784 90.1539 221.809 92.627 224.238 94.7235C226.668 96.8205 229.422 98.4603 232.499 99.6425C235.577 100.825 238.843 101.417 242.299 101.417C252.125 101.417 260.062 97.3847 266.109 89.3206L277.933 98.0295C273.83 103.513 268.755 107.814 262.708 110.932C256.661 114.05 249.858 115.609 242.299 115.609C236.144 115.609 230.394 114.533 225.049 112.383C219.703 110.233 215.06 107.222 211.119 103.351C207.178 99.4805 204.073 94.938 201.806 89.7235C199.538 84.509 198.404 78.837 198.404 72.7086C198.403 66.9028 199.483 61.4193 201.643 56.2583ZM224.4 49.8876C219.811 53.7046 216.761 58.7849 215.249 65.1285H265.623C264.219 58.7849 261.223 53.7046 256.633 49.8876C252.044 46.0709 246.672 44.1624 240.517 44.1624C234.362 44.1624 228.99 46.0709 224.4 49.8876ZM312.757 51.7422C309.301 55.5053 307.573 60.6124 307.573 67.0638V113.835H291.214V31.5826H307.411V41.7432C309.463 38.4101 312.136 35.7758 315.429 33.8405C318.722 31.9049 322.637 30.937 327.172 30.937H332.841V46.0973H326.038C320.639 46.0977 316.212 47.9791 312.757 51.7422Z" fill="#010202"/>
</svg>
