<svg width="127" height="106" viewBox="0 0 127 106" fill="none" xmlns="http://www.w3.org/2000/svg">
<path id="Vector" d="M1.61035 82.4971V23.1797C1.61035 15.4539 1.61035 11.591 3.11391 8.64022C4.43641 6.04453 6.5468 3.93421 9.14241 2.61171C12.0932 1.10815 15.9562 1.10815 23.6819 1.10815H103.691C111.417 1.10815 115.28 1.10815 118.231 2.61171C120.826 3.93428 122.937 6.0446 124.259 8.64022C125.763 11.591 125.763 15.454 125.763 23.1797V82.4971C125.763 90.2228 125.763 94.086 124.259 97.0367C122.937 99.6322 120.826 101.743 118.231 103.065C115.28 104.569 111.417 104.569 103.691 104.569H23.6819C15.9561 104.569 12.0932 104.569 9.14241 103.065C6.54673 101.743 4.43641 99.6322 3.11391 97.0367C1.61035 94.086 1.61035 90.2228 1.61035 82.4971Z" stroke="url(#paint0_linear_1_2684)" stroke-width="2.06921" stroke-linecap="round" stroke-linejoin="round"/>
<defs>
<linearGradient id="paint0_linear_1_2684" x1="1.61035" y1="52.8384" x2="140.362" y2="87.0273" gradientUnits="userSpaceOnUse">
<stop offset="0.295" stop-color="#4B1790"/>
<stop offset="0.865" stop-color="#D17BDF"/>
</linearGradient>
</defs>
</svg>
