<svg width="353" height="353" viewBox="0 0 353 353" fill="none" xmlns="http://www.w3.org/2000/svg">
<path d="M153.663 14.9418C154.204 14.9372 154.745 14.9325 155.303 14.9278C157.087 14.9148 158.871 14.912 160.655 14.9106C161.9 14.9062 163.145 14.9015 164.39 14.8967C166.999 14.8885 169.607 14.8859 172.216 14.8867C175.55 14.8869 178.883 14.8681 182.216 14.8445C184.788 14.8291 187.36 14.8264 189.931 14.8271C191.16 14.8255 192.388 14.8195 193.617 14.8088C195.34 14.7953 197.062 14.7993 198.785 14.8076C199.287 14.7999 199.788 14.7921 200.305 14.7842C204.617 14.8363 208.164 16.2533 211.413 19.1133C211.719 19.503 212.026 19.8927 212.341 20.2942C212.817 20.8787 212.817 20.8787 213.302 21.475C215.33 24.4205 215.685 26.4595 215.653 30.0738C215.649 30.9639 215.644 31.8539 215.64 32.771C215.628 33.7076 215.617 34.6442 215.605 35.5809C215.598 36.5282 215.592 37.4756 215.586 38.423C215.57 40.7392 215.547 43.0551 215.519 45.3712C216.38 45.5351 217.241 45.6989 218.128 45.8677C222.078 46.7471 225.708 48.2325 229.432 49.7941C230.428 50.2012 230.428 50.2012 231.444 50.6166C236.495 52.7073 236.495 52.7073 238.577 54.1392C240.175 55.1897 240.175 55.1897 241.699 54.5748C243.05 53.5793 244.147 52.5604 245.282 51.3238C254.806 41.2101 254.806 41.2101 262.667 40.2614C271.913 41.4599 277.515 48.852 283.807 55.1213C284.171 55.4832 284.535 55.845 284.91 56.2179C286.829 58.1274 288.747 60.0388 290.663 61.952C292.635 63.9194 294.612 65.8804 296.591 67.8399C298.122 69.3577 299.648 70.8802 301.172 72.4039C301.9 73.129 302.629 73.8524 303.359 74.5739C304.38 75.5829 305.394 76.5983 306.407 77.6154C306.984 78.1898 307.56 78.7642 308.155 79.356C310.953 82.629 312.186 85.9086 312.607 90.1149C312.106 96.3267 309.531 100.142 305.264 104.5C304.884 104.893 304.504 105.286 304.112 105.692C301.737 108 300.048 109.212 296.59 109.266C294.991 108.484 293.726 107.776 292.468 106.518C291.919 101.869 291.919 101.869 293.232 99.8421C294.289 98.7337 295.385 97.7251 296.547 96.7276C299.983 93.9686 299.983 93.9686 301.399 90.029C299.984 87.2718 298.171 85.2494 295.994 83.0613C295.663 82.7268 295.332 82.3924 294.991 82.0478C293.904 80.9509 292.812 79.8592 291.719 78.7679C290.958 78.0045 290.197 77.2408 289.437 76.477C287.846 74.8809 286.252 73.2874 284.657 71.6956C282.612 69.6552 280.576 67.6072 278.542 65.557C276.975 63.9797 275.403 62.4072 273.829 60.8361C273.076 60.0827 272.325 59.3278 271.575 58.5712C270.528 57.5153 269.474 56.4662 268.419 55.4186C267.821 54.8202 267.223 54.2218 266.607 53.6053C265.049 52.2945 264.246 51.7066 262.238 51.5546C259.506 52.8249 257.684 54.6299 255.655 56.8228C255.07 57.4361 254.486 58.0494 253.885 58.6813C252.669 59.9707 251.461 61.2679 250.262 62.5728C245.257 67.7811 245.257 67.7811 242.196 67.947C239.267 67.2896 236.988 66.195 234.456 64.6514C227.499 60.6754 220.057 58.1784 212.491 55.6153C211.903 55.4089 211.315 55.2025 210.71 54.9898C210.109 54.7936 209.509 54.5974 208.891 54.3952C206.923 53.4463 206.219 52.8115 205.213 50.8676C205.015 49.0958 204.926 47.4824 204.934 45.7121C204.927 45.2176 204.919 44.7231 204.912 44.2137C204.88 42.1046 204.872 39.9956 204.862 37.8864C204.851 36.3439 204.829 34.8018 204.805 33.2594C204.807 32.7828 204.81 32.3061 204.812 31.815C204.779 29.2999 204.779 29.2999 203.791 27.0393C201.797 25.678 199.802 25.847 197.471 25.8673C196.964 25.8637 196.458 25.8601 195.937 25.8564C194.262 25.8473 192.588 25.8533 190.914 25.8603C189.751 25.8589 188.589 25.8569 187.426 25.8543C184.989 25.8513 182.551 25.8557 180.114 25.8653C176.988 25.8771 173.862 25.8703 170.736 25.858C168.335 25.8505 165.934 25.8529 163.533 25.8582C162.38 25.8596 161.228 25.8579 160.075 25.8531C158.465 25.8479 156.855 25.8559 155.244 25.8673C154.767 25.8632 154.289 25.859 153.797 25.8547C151.859 25.8804 150.548 25.9305 148.923 27.04C147.705 28.9557 147.914 31.0379 147.934 33.2353C147.922 34.2462 147.91 35.257 147.898 36.2679C147.891 37.857 147.888 39.4459 147.889 41.0349C147.887 42.5719 147.868 44.1081 147.848 45.645C147.854 46.1167 147.859 46.5884 147.865 47.0745C147.829 49.421 147.539 50.8058 146.32 52.8291C144.639 54.4104 143.535 54.9826 141.337 55.6232C140.668 55.8285 139.999 56.0339 139.31 56.2455C138.242 56.5592 138.242 56.5592 137.153 56.8792C128.849 59.4697 120.435 62.4996 113.15 67.3566C110.787 67.9048 109.901 68.068 107.653 67.3566C104.787 65.1314 102.375 62.5035 99.9241 59.8421C98.9158 58.7664 97.9036 57.695 96.8853 56.6288C95.9654 55.6629 95.0577 54.6853 94.1507 53.7072C92.241 51.9162 92.241 51.9162 89.7902 51.5546C87.0382 52.9826 85.0125 54.7811 82.8225 56.9595C82.3208 57.4559 82.3208 57.4559 81.809 57.9624C80.7122 59.0497 79.6205 60.142 78.5292 61.2349C77.7657 61.9957 77.0021 62.7564 76.2383 63.5169C74.6421 65.108 73.0486 66.7016 71.4568 68.2971C69.4165 70.3414 67.3685 72.3777 65.3182 74.4121C63.7409 75.9792 62.1684 77.5511 60.5973 79.1244C59.844 79.8774 59.089 80.6287 58.3324 81.3784C57.2765 82.4258 56.2274 83.4795 55.1798 84.5352C54.5814 85.1331 53.983 85.731 53.3665 86.3471C52.0558 87.905 51.4679 88.7076 51.3158 90.716C52.5862 93.4475 54.3911 95.2701 56.5841 97.2993C57.1974 97.8834 57.8107 98.4674 58.4426 99.0692C59.7319 100.285 61.0291 101.493 62.334 102.692C67.5423 107.697 67.5423 107.697 67.7082 110.758C67.0508 113.687 65.9562 115.966 64.4126 118.498C60.4367 125.455 57.9397 132.897 55.3765 140.463C55.0669 141.345 55.0669 141.345 54.7511 142.244C54.5548 142.844 54.3586 143.445 54.1564 144.063C53.2075 146.031 52.5727 146.735 50.6288 147.741C48.857 147.939 47.2436 148.027 45.4733 148.02C44.7316 148.031 44.7316 148.031 43.9749 148.042C41.8659 148.074 39.7569 148.082 37.6476 148.092C36.1051 148.103 34.563 148.125 33.0207 148.148C32.544 148.146 32.0673 148.144 31.5762 148.142C29.0611 148.175 29.0611 148.175 26.8005 149.163C25.4392 151.157 25.6082 153.152 25.6286 155.483C25.6232 156.243 25.6232 156.243 25.6176 157.017C25.6086 158.692 25.6146 160.365 25.6215 162.04C25.6201 163.202 25.6181 164.365 25.6156 165.528C25.6125 167.965 25.6169 170.402 25.6266 172.84C25.6383 175.966 25.6316 179.091 25.6192 182.217C25.6118 184.619 25.6141 187.02 25.6195 189.421C25.6208 190.574 25.6191 191.726 25.6144 192.879C25.6091 194.489 25.6171 196.099 25.6286 197.709C25.6244 198.187 25.6202 198.665 25.6159 199.157C25.6416 201.095 25.6918 202.406 26.8012 204.031C28.7169 205.248 30.7991 205.04 32.9965 205.02C34.0074 205.032 35.0183 205.044 36.0292 205.056C37.6182 205.063 39.2071 205.066 40.7962 205.064C42.3332 205.067 43.8694 205.086 45.4062 205.106C45.8779 205.1 46.3497 205.095 46.8357 205.089C49.1822 205.125 50.567 205.415 52.5903 206.634C54.1717 208.315 54.7439 209.419 55.3844 211.617C55.5898 212.286 55.7951 212.955 56.0067 213.644C56.2158 214.356 56.425 215.067 56.6404 215.801C59.231 224.104 62.2608 232.519 67.1178 239.804C67.6661 242.167 67.8292 243.052 67.1178 245.301C64.8927 248.167 62.2648 250.579 59.6033 253.03C58.5277 254.038 57.4562 255.05 56.3901 256.069C55.4241 256.988 54.4465 257.896 53.4684 258.803C51.6774 260.713 51.6774 260.713 51.3158 263.164C52.7438 265.916 54.5423 267.941 56.7208 270.131C57.0517 270.466 57.3827 270.8 57.7236 271.145C58.811 272.242 59.9033 273.333 60.9962 274.425C61.757 275.188 62.5176 275.952 63.2781 276.716C64.8692 278.312 66.4629 279.905 68.0583 281.497C70.1026 283.537 72.139 285.585 74.1733 287.636C75.7404 289.213 77.3123 290.785 78.8856 292.357C79.6386 293.11 80.39 293.865 81.1396 294.621C82.187 295.677 83.2408 296.726 84.2964 297.774C84.8943 298.372 85.4923 298.971 86.1083 299.587C87.6662 300.898 88.4688 301.486 90.4773 301.638C93.2087 300.368 95.0313 298.563 97.0605 296.37C97.6446 295.756 98.2287 295.143 98.8305 294.511C100.046 293.222 101.254 291.925 102.454 290.62C107.458 285.412 107.458 285.412 110.52 285.246C113.448 285.903 115.727 286.998 118.26 288.541C125.216 292.517 132.658 295.014 140.224 297.577C140.812 297.784 141.4 297.99 142.005 298.203C142.606 298.399 143.206 298.595 143.824 298.797C145.792 299.746 146.496 300.381 147.502 302.325C147.7 304.097 147.789 305.71 147.781 307.481C147.788 307.975 147.796 308.469 147.803 308.979C147.835 311.088 147.843 313.197 147.853 315.306C147.864 316.849 147.886 318.391 147.91 319.933C147.908 320.41 147.906 320.887 147.903 321.378C147.936 323.893 147.936 323.893 148.924 326.153C150.918 327.515 152.913 327.346 155.244 327.325C155.751 327.329 156.257 327.332 156.779 327.336C158.453 327.345 160.127 327.339 161.801 327.332C162.964 327.334 164.126 327.336 165.289 327.338C167.727 327.341 170.164 327.337 172.601 327.327C175.727 327.316 178.853 327.322 181.979 327.335C184.38 327.342 186.781 327.34 189.182 327.334C190.335 327.333 191.488 327.335 192.64 327.339C194.251 327.345 195.86 327.337 197.471 327.325C198.187 327.332 198.187 327.332 198.918 327.338C200.856 327.312 202.167 327.262 203.792 326.153C205.01 324.237 204.801 322.155 204.781 319.957C204.793 318.946 204.805 317.936 204.817 316.925C204.824 315.336 204.827 313.747 204.826 312.158C204.828 310.621 204.847 309.085 204.867 307.548C204.859 306.84 204.859 306.84 204.85 306.118C204.886 303.772 205.176 302.387 206.396 300.364C208.076 298.782 209.18 298.21 211.378 297.569C212.047 297.364 212.716 297.159 213.405 296.947C214.117 296.738 214.829 296.529 215.562 296.313C223.866 293.723 232.28 290.693 239.565 285.836C241.928 285.288 242.814 285.125 245.062 285.836C247.929 288.061 250.34 290.689 252.791 293.351C253.799 294.426 254.811 295.498 255.83 296.564C256.75 297.53 257.657 298.507 258.564 299.485C260.474 301.276 260.474 301.276 262.925 301.638C265.677 300.21 267.703 298.412 269.893 296.233C270.227 295.902 270.561 295.571 270.906 295.23C272.003 294.143 273.095 293.051 274.186 291.958C274.949 291.197 275.713 290.436 276.477 289.676C278.073 288.085 279.667 286.491 281.258 284.896C283.299 282.851 285.347 280.815 287.397 278.781C288.974 277.213 290.547 275.642 292.118 274.068C292.871 273.315 293.626 272.564 294.383 271.814C295.439 270.767 296.488 269.713 297.535 268.657C298.134 268.06 298.732 267.462 299.349 266.846C300.659 265.288 301.247 264.485 301.399 262.477C300.129 259.759 298.309 257.882 296.161 255.821C292.529 252.324 292.529 252.324 292.296 249.122C292.468 246.675 292.468 246.675 293.241 245.386C295.09 244.277 296.497 244.013 298.651 243.926C303.949 246.58 309.158 251.675 311.49 257.152C312.864 261.423 312.857 265.127 311.095 269.26C308.107 274.974 302.35 279.512 297.833 284.046C297.471 284.41 297.109 284.774 296.736 285.148C294.826 287.068 292.915 288.986 291.002 290.902C289.034 292.873 287.073 294.851 285.114 296.83C283.596 298.361 282.074 299.886 280.55 301.411C279.825 302.138 279.102 302.867 278.38 303.598C277.371 304.619 276.356 305.633 275.338 306.645C274.764 307.222 274.19 307.799 273.598 308.394C270.325 311.192 267.045 312.425 262.839 312.845C255.893 312.285 251.658 308.811 247.037 303.871C246.511 303.326 245.985 302.782 245.443 302.22C244.161 300.89 242.889 299.551 241.627 298.203C238.509 299.168 235.622 300.427 232.695 301.853C220.178 307.821 220.178 307.821 215.519 307.821C215.537 308.396 215.555 308.971 215.573 309.563C215.632 311.719 215.675 313.875 215.708 316.032C215.733 317.415 215.777 318.798 215.821 320.18C215.887 325.432 215.728 329.259 212.084 333.242C208.659 336.732 205.49 338.192 200.585 338.253C200.079 338.252 199.573 338.251 199.052 338.251C198.511 338.255 197.97 338.26 197.412 338.265C195.628 338.278 193.844 338.281 192.06 338.282C190.815 338.286 189.57 338.291 188.325 338.296C185.716 338.304 183.108 338.307 180.499 338.306C177.165 338.306 173.832 338.324 170.499 338.348C167.927 338.363 165.356 338.366 162.784 338.366C161.555 338.367 160.327 338.373 159.098 338.384C157.375 338.397 155.653 338.393 153.93 338.385C153.428 338.393 152.927 338.4 152.41 338.408C148.098 338.356 144.551 336.939 141.302 334.079C140.996 333.69 140.689 333.3 140.374 332.898C140.057 332.509 139.74 332.119 139.413 331.718C137.385 328.772 137.03 326.733 137.062 323.119C137.069 321.784 137.069 321.784 137.075 320.422C137.087 319.485 137.098 318.548 137.11 317.612C137.117 316.664 137.123 315.717 137.129 314.77C137.145 312.453 137.168 310.137 137.196 307.821C135.905 307.576 135.905 307.576 134.588 307.325C130.637 306.446 127.007 304.96 123.284 303.399C122.619 303.127 121.955 302.856 121.271 302.576C116.22 300.485 116.22 300.485 114.138 299.053C112.54 298.003 112.54 298.003 111.016 298.618C109.665 299.613 108.568 300.632 107.433 301.869C97.9092 311.982 97.9092 311.982 90.0479 312.931C80.802 311.733 75.2001 304.341 68.9079 298.071C68.3622 297.529 68.3622 297.529 67.8055 296.975C65.8857 295.065 63.9679 293.154 62.0517 291.241C60.0805 289.273 58.103 287.312 56.124 285.353C54.5934 283.835 53.0674 282.312 51.5426 280.789C50.8154 280.064 50.0865 279.34 49.3559 278.619C48.3351 277.61 47.3211 276.594 46.3085 275.577C45.4431 274.716 45.4431 274.716 44.5603 273.837C41.7618 270.564 40.5291 267.284 40.1085 263.078C40.6686 256.132 44.1427 251.896 49.083 247.276C49.6276 246.75 50.1723 246.224 50.7335 245.682C52.0637 244.4 53.4025 243.128 54.7511 241.865C53.7863 238.748 52.527 235.86 51.1011 232.934C45.1325 220.417 45.1325 220.417 45.1325 215.758C44.2703 215.785 44.2703 215.785 43.3907 215.812C41.2345 215.871 39.0786 215.914 36.9218 215.946C35.5389 215.972 34.1563 216.016 32.7738 216.06C27.5219 216.126 23.6945 215.967 19.7119 212.323C16.2219 208.898 14.7622 205.729 14.7011 200.823C14.7017 200.318 14.7024 199.812 14.703 199.291C14.6984 198.75 14.6938 198.208 14.689 197.651C14.676 195.867 14.6733 194.083 14.6718 192.299C14.6674 191.054 14.6628 189.809 14.6579 188.564C14.6497 185.955 14.6472 183.347 14.648 180.738C14.6481 177.404 14.6294 174.071 14.6057 170.738C14.5904 168.166 14.5876 165.594 14.5884 163.023C14.5867 161.794 14.5807 160.566 14.57 159.337C14.5565 157.614 14.5606 155.892 14.5688 154.169C14.5611 153.667 14.5534 153.165 14.5454 152.649C14.5976 148.337 16.0145 144.79 18.8746 141.541C19.2642 141.235 19.6539 140.928 20.0554 140.612C20.6399 140.137 20.6399 140.137 21.2363 139.652C24.1818 137.623 26.2207 137.269 29.835 137.301C30.7251 137.305 31.6152 137.31 32.5322 137.314C33.4688 137.326 34.4055 137.337 35.3421 137.349C36.2895 137.356 37.2368 137.362 38.1842 137.368C40.5004 137.384 42.8164 137.407 45.1325 137.435C45.2963 136.574 45.4601 135.713 45.629 134.826C46.5083 130.876 47.9937 127.246 49.5553 123.522C49.9625 122.526 49.9625 122.526 50.3779 121.509C52.4686 116.458 52.4686 116.458 53.9005 114.377C54.9509 112.779 54.9509 112.779 54.3361 111.255C53.3405 109.904 52.3216 108.807 51.085 107.672C40.5754 97.7764 40.5754 97.7764 39.9796 89.986C40.9744 82.1527 46.0905 77.5904 51.4608 72.3001C52.2948 71.4672 53.1282 70.6338 53.961 69.7998C55.7009 68.061 57.4465 66.3282 59.1967 64.5997C61.4346 62.3891 63.6602 60.1665 65.8819 57.9396C67.599 56.2204 69.3213 54.5064 71.0453 52.7942C71.8678 51.9765 72.689 51.1575 73.5088 50.3371C74.656 49.1911 75.8097 48.0521 76.9655 46.9147C77.2997 46.5785 77.6339 46.2423 77.9783 45.8959C81.4855 42.4743 85.0758 40.8273 89.8761 40.3472C96.8222 40.9074 101.057 44.3815 105.678 49.3217C106.204 49.8664 106.73 50.4111 107.272 50.9722C108.554 52.3024 109.826 53.6413 111.089 54.9898C114.206 54.0251 117.093 52.7657 120.02 51.3399C132.537 45.3712 132.537 45.3712 137.196 45.3712C137.178 44.7965 137.16 44.2217 137.142 43.6295C137.083 41.4732 137.04 39.3174 137.007 37.1606C136.982 35.7776 136.938 34.395 136.894 33.0125C136.828 27.7607 136.987 23.9333 140.631 19.9507C144.557 15.9502 148.169 14.935 153.663 14.9418Z" fill="url(#paint0_linear_157_11280)"/>
<path d="M313.466 123.562C326.684 135.446 336.364 150.962 337.813 169.039C338.822 189.023 334.22 207.457 320.637 222.628C320.088 223.242 319.539 223.856 318.973 224.488C307.099 237.047 290.302 244.714 272.987 245.464C251.947 245.951 234.46 238.924 219.169 224.432C215.358 220.491 211.987 216.078 210.023 210.948C209.643 210.953 209.263 210.957 208.871 210.962C199.598 211.068 190.325 211.147 181.051 211.198C176.566 211.223 172.082 211.257 167.597 211.311C163.267 211.364 158.938 211.392 154.607 211.405C152.958 211.414 151.308 211.431 149.658 211.457C147.342 211.492 145.028 211.497 142.712 211.494C142.034 211.512 141.356 211.529 140.657 211.547C135.42 211.493 132.72 209.649 128.952 206.139C128.114 205.425 127.275 204.713 126.432 204.005C125.625 203.301 124.819 202.595 124.014 201.888C123.118 201.106 122.221 200.324 121.325 199.542C120.655 198.958 120.655 198.958 119.972 198.361C117.922 196.577 115.859 194.809 113.794 193.042C113.406 192.71 113.019 192.378 112.619 192.036C110.526 190.244 108.431 188.453 106.336 186.663C105.896 186.286 105.455 185.909 105.001 185.521C104.155 184.797 103.308 184.074 102.461 183.351C98.0663 179.592 98.0663 179.592 97.7158 176.803C97.8109 173.317 99.4339 171.594 101.771 169.168C102.536 168.327 103.3 167.486 104.063 166.645C104.442 166.235 104.821 165.826 105.211 165.404C106.679 163.791 108.048 162.107 109.414 160.408C111.691 157.607 113.997 154.833 116.328 152.077C116.624 151.727 116.92 151.376 117.226 151.014C117.81 150.326 118.4 149.642 118.998 148.965C120.052 147.745 120.052 147.745 120.965 146.343C122.604 144.093 123.884 142.506 126.627 141.746C128.835 141.568 130.982 141.564 133.196 141.62C134.028 141.619 134.86 141.619 135.716 141.618C137.986 141.621 140.252 141.648 142.52 141.687C144.895 141.721 147.27 141.724 149.645 141.731C154.137 141.748 158.628 141.793 163.12 141.848C168.236 141.91 173.351 141.94 178.467 141.968C188.986 142.025 199.505 142.122 210.023 142.244C210.224 141.716 210.425 141.189 210.632 140.645C216.345 126.931 231.283 117.613 244.375 112.014C267.483 103.195 294.538 107.654 313.466 123.562ZM224.451 138.809C221.697 142.433 219.233 146.229 216.923 150.148C216.206 151.176 216.206 151.176 214.832 151.863C213.717 151.916 212.6 151.924 211.484 151.911C210.776 151.905 210.068 151.899 209.339 151.893C208.559 151.883 207.779 151.872 206.976 151.862C205.278 151.846 203.58 151.831 201.881 151.816C200.525 151.803 200.525 151.803 199.141 151.79C196.313 151.764 193.486 151.753 190.658 151.745C190.18 151.744 189.703 151.743 189.211 151.741C187.24 151.736 185.269 151.732 183.298 151.728C177.709 151.717 172.121 151.691 166.532 151.62C162.093 151.564 157.654 151.54 153.214 151.553C150.866 151.558 148.521 151.548 146.174 151.499C135.962 150.806 135.962 150.806 126.88 154.466C124.867 156.597 123.511 158.932 122.082 161.481C121.044 162.85 119.941 164.13 118.818 165.432C116.191 168.656 113.622 171.923 111.089 175.222C111.977 177.214 112.851 178.497 114.513 179.903C114.925 180.255 115.336 180.606 115.76 180.969C116.202 181.34 116.645 181.711 117.101 182.093C117.788 182.677 117.788 182.677 118.489 183.274C119.442 184.085 120.397 184.895 121.354 185.703C122.692 186.837 124.022 187.979 125.348 189.127C126.163 189.831 126.978 190.535 127.793 191.239C128.334 191.707 128.334 191.707 128.886 192.185C129.61 192.807 130.346 193.417 131.092 194.014C132.387 195.146 132.387 195.146 133.524 196.526C136.977 200.176 139.891 200.982 144.79 201.24C148.65 201.323 152.504 201.286 156.364 201.233C158.042 201.231 159.72 201.232 161.398 201.236C165.8 201.24 170.201 201.214 174.603 201.178C181.662 201.125 188.721 201.109 195.781 201.11C198.246 201.104 200.71 201.08 203.175 201.055C204.68 201.05 206.186 201.046 207.692 201.042C208.721 201.024 208.721 201.024 209.771 201.005C214.407 201.017 214.407 201.017 216.587 202.62C217.68 204.224 218.708 205.835 219.685 207.513C227.941 220.726 240.926 230.01 256.055 233.621C271.291 237.091 286.12 234.183 299.599 226.514C313.309 217.851 322.408 204.922 326.321 189.288C329.474 174.22 327.024 158.984 319.048 145.808C316.48 142.007 313.545 138.64 310.331 135.374C309.547 134.577 309.547 134.577 308.748 133.763C298.149 123.616 283.677 118.321 269.109 117.94C251.981 118.388 235.708 125.757 224.451 138.809Z" fill="url(#paint1_linear_157_11280)"/>
<path d="M237.505 99.6476C238.131 100.112 238.758 100.576 239.403 101.054C240.94 102.396 240.94 102.396 241.67 104.757C241.627 107.205 241.627 107.205 240.64 109.223C238.611 110.856 237.364 110.95 234.8 110.878C232.419 110.479 231.049 109.154 229.261 107.591C212.375 93.6527 189.647 87.8056 168.028 89.8143C150.196 91.7536 133.896 98.5587 120.021 109.953C119.387 110.474 118.753 110.995 118.099 111.531C100.978 126.331 91.189 148.142 89.2946 170.459C87.6568 193.688 95.5346 216.51 110.617 234.179C125.94 251.489 147.75 261.949 170.776 263.679C191.609 264.875 214.272 258.698 230.248 244.914C232.296 243.211 233.696 242.172 236.389 241.994C238.879 242.552 238.879 242.552 240.64 243.969C241.627 245.988 241.627 245.988 241.885 248.263C240.403 252.238 237.49 253.938 234.07 256.293C233.365 256.79 232.66 257.287 231.934 257.799C219.097 266.594 204.214 272.371 188.725 274.156C188.119 274.232 187.514 274.307 186.89 274.384C161.125 277.177 135.202 269.573 114.93 253.505C114.105 252.834 113.283 252.161 112.464 251.484C112.099 251.183 111.734 250.881 111.358 250.571C106.543 246.53 102.528 242.046 98.7227 237.056C98.0119 236.131 98.0119 236.131 97.2868 235.188C81.7293 214.405 75.4567 188.192 78.8843 162.555C81.7089 143.612 89.5323 126.405 102.158 112.014C102.898 111.138 102.898 111.138 103.653 110.243C107.358 105.952 111.412 102.414 115.899 98.9605C116.444 98.5177 116.99 98.0749 117.552 97.6187C152.118 70.7098 203.835 72.3036 237.505 99.6476Z" fill="url(#paint2_linear_157_11280)"/>
<path d="M138.777 156.575C139.549 156.571 140.322 156.567 141.118 156.563C141.97 156.563 142.821 156.562 143.699 156.561C144.592 156.558 145.486 156.554 146.407 156.551C148.863 156.542 151.318 156.537 153.774 156.534C155.308 156.532 156.842 156.529 158.375 156.526C163.172 156.517 167.969 156.51 172.766 156.508C178.306 156.505 183.846 156.493 189.387 156.473C193.667 156.458 197.947 156.451 202.228 156.45C204.785 156.449 207.343 156.445 209.9 156.433C212.753 156.419 215.605 156.422 218.457 156.427C219.731 156.417 219.731 156.417 221.03 156.408C221.806 156.412 222.582 156.415 223.382 156.419C224.057 156.418 224.732 156.417 225.427 156.416C227.52 156.718 228.447 157.257 229.947 158.733C230.735 161.394 230.952 162.853 229.779 165.396C226.705 167.964 223.455 167.385 219.58 167.289C218.729 167.282 217.879 167.274 217.002 167.267C215.153 167.25 213.304 167.227 211.455 167.195C208.523 167.145 205.591 167.128 202.659 167.116C194.321 167.08 185.983 167.011 177.646 166.886C173.041 166.817 168.436 166.781 163.83 166.779C161.396 166.777 158.965 166.758 156.531 166.698C144.862 165.95 144.862 165.95 134.867 170.889C133.798 172.085 132.845 173.308 131.906 174.607C130.326 176.596 130.326 176.596 128.51 177.247C126.456 177.293 125.242 176.923 123.455 175.909C122.086 174.228 122.082 173.191 122.057 171.016C122.645 167.276 125.582 165.076 128.222 162.598C128.731 162.101 129.241 161.604 129.766 161.092C134.426 156.588 134.426 156.588 138.777 156.575Z" fill="url(#paint3_linear_157_11280)"/>
<path d="M310.087 160.053C314.549 163.843 317.975 167.845 318.575 173.848C319.003 180.156 317.798 185.029 313.637 189.908C309.468 194.233 304.919 196.575 298.866 196.692C292.89 196.604 287.773 194.619 283.536 190.337C279.278 184.478 278.096 179.682 278.727 172.474C280.026 167.224 282.612 162.825 287.116 159.761C294.291 155.577 303.163 155.021 310.087 160.053ZM290.836 170.499C289.304 173.209 288.825 175.55 289.033 178.657C289.91 181.793 291.6 183.588 294.4 185.184C297.215 186.383 299.12 186.498 302.086 185.528C304.286 184.013 306.374 182.448 307.583 180.031C308.005 177.11 308.221 174.338 306.783 171.688C304.86 169.345 303.043 167.692 300.025 166.978C296.263 166.978 293.653 167.978 290.836 170.499Z" fill="url(#paint4_linear_157_11280)"/>
<defs>
<linearGradient id="paint0_linear_157_11280" x1="14.5454" y1="176.596" x2="355.681" y2="241.111" gradientUnits="userSpaceOnUse">
<stop offset="0.295" stop-color="#4B1790"/>
<stop offset="0.865" stop-color="#D17BDF"/>
</linearGradient>
<linearGradient id="paint1_linear_157_11280" x1="97.7158" y1="176.52" x2="350.206" y2="266.814" gradientUnits="userSpaceOnUse">
<stop offset="0.295" stop-color="#4B1790"/>
<stop offset="0.865" stop-color="#D17BDF"/>
</linearGradient>
<linearGradient id="paint2_linear_157_11280" x1="77.9736" y1="176.609" x2="266.754" y2="208.913" gradientUnits="userSpaceOnUse">
<stop offset="0.295" stop-color="#4B1790"/>
<stop offset="0.865" stop-color="#D17BDF"/>
</linearGradient>
<linearGradient id="paint3_linear_157_11280" x1="122.057" y1="166.829" x2="182.089" y2="231.02" gradientUnits="userSpaceOnUse">
<stop offset="0.295" stop-color="#4B1790"/>
<stop offset="0.865" stop-color="#D17BDF"/>
</linearGradient>
<linearGradient id="paint4_linear_157_11280" x1="278.568" y1="176.571" x2="324.182" y2="185.902" gradientUnits="userSpaceOnUse">
<stop offset="0.295" stop-color="#4B1790"/>
<stop offset="0.865" stop-color="#D17BDF"/>
</linearGradient>
</defs>
</svg>
