<svg width="208" height="208" viewBox="0 0 208 208" fill="none" xmlns="http://www.w3.org/2000/svg">
<g id="Simplification">
<path id="Vector" d="M13.5963 1.11101C14.1895 1.1076 14.1895 1.1076 14.7947 1.10412C16.1137 1.09833 17.4323 1.1029 18.7512 1.10749C19.6994 1.10552 20.6475 1.10292 21.5957 1.09976C23.8998 1.09329 26.2038 1.09467 28.5079 1.0989C30.3812 1.1022 32.2545 1.10264 34.1279 1.10105C34.3949 1.10083 34.662 1.10061 34.9371 1.10038C35.4798 1.09991 36.0224 1.09944 36.565 1.09896C41.6478 1.09481 46.7306 1.09957 51.8135 1.10741C56.1706 1.11392 60.5278 1.11279 64.8849 1.10607C69.9501 1.09827 75.0153 1.09521 80.0805 1.09968C80.6211 1.10014 81.1616 1.1006 81.7022 1.10105C81.9681 1.10128 82.2341 1.1015 82.5081 1.10173C84.3782 1.10299 86.2483 1.10087 88.1184 1.09744C90.6375 1.09292 93.1564 1.09616 95.6755 1.10457C96.5994 1.10649 97.5233 1.10595 98.4471 1.10273C99.7095 1.09874 100.971 1.10375 102.234 1.11101C102.598 1.10776 102.963 1.10451 103.338 1.10116C106.763 1.13926 109.348 2.26507 111.852 4.5752C114.023 6.97689 114.756 9.43349 114.749 12.6136C114.749 13.051 114.749 13.4883 114.749 13.9389C114.747 14.4075 114.745 14.8761 114.744 15.3589C114.743 15.8462 114.742 16.3335 114.742 16.8208C114.741 18.0991 114.737 19.3774 114.733 20.6557C114.729 21.9618 114.727 23.268 114.726 24.5741C114.722 27.1337 114.715 29.6933 114.708 32.2528C114.93 32.3579 115.152 32.4629 115.381 32.5712C116.785 33.2975 117.966 34.369 119.195 35.3542C120.144 36.0027 120.144 36.0027 121.05 35.7141C121.375 35.5334 121.701 35.3527 122.036 35.1664C122.52 34.923 123.006 34.6819 123.493 34.4423C123.765 34.3059 124.038 34.1696 124.318 34.0291C128.102 32.1614 131.827 30.9171 135.959 30.0677C136.39 29.9785 136.822 29.8893 137.266 29.7973C139.876 29.3501 142.499 29.2386 145.142 29.1799C145.474 29.1673 145.806 29.1547 146.148 29.1418C147.707 29.132 148.52 29.1462 149.801 30.0847C150.768 31.3624 151.72 32.6417 152.631 33.96C153.02 34.516 153.41 35.0718 153.8 35.6274C154 35.9126 154.2 36.1978 154.406 36.4916C155.38 37.8732 156.375 39.2402 157.371 40.6066C157.569 40.8781 157.766 41.1495 157.97 41.4292C158.371 41.9802 158.773 42.5311 159.174 43.0819C160.17 44.4485 161.163 45.8168 162.157 47.185C162.554 47.7313 162.951 48.2776 163.348 48.8239C165.73 52.1016 168.111 55.3794 170.493 58.6572C170.689 58.9279 170.886 59.1985 171.089 59.4774C171.484 60.0213 171.879 60.5652 172.274 61.1091C173.503 62.8007 174.733 64.4913 175.964 66.1812C176.566 67.0089 177.167 67.8378 177.767 68.667C178.399 69.5412 179.038 70.4091 179.684 71.2733C179.916 71.5869 180.147 71.9005 180.386 72.2236C180.577 72.4771 180.767 72.7306 180.964 72.9918C181.528 74.0157 181.729 74.7877 181.76 75.9566C181.022 76.9033 180.563 77.354 179.375 77.6168C179.033 77.6281 178.69 77.6394 178.338 77.651C177.952 77.6697 177.566 77.6883 177.169 77.7076C176.757 77.7232 176.345 77.7388 175.92 77.7549C168.317 78.194 160.869 79.7182 154.646 84.3332C155.049 84.3426 155.452 84.352 155.867 84.3616C161.341 84.5472 165.401 85.6863 169.339 89.6909C171.105 91.8068 172.284 94.3586 172.275 97.126C172.275 97.4175 172.275 97.7091 172.275 98.0095C172.273 98.3206 172.271 98.6318 172.269 98.9523C172.268 99.4343 172.268 99.4343 172.267 99.9259C172.265 100.95 172.261 101.974 172.256 102.998C172.254 103.694 172.253 104.389 172.251 105.084C172.247 106.786 172.241 108.489 172.233 110.191C172.554 110.184 172.875 110.176 173.205 110.169C173.629 110.163 174.053 110.157 174.49 110.151C174.909 110.144 175.328 110.137 175.76 110.129C179.066 110.295 181.966 112.091 184.187 114.448C187.938 118.885 187.626 124.811 187.156 130.299C186.595 133.633 184.815 136.533 182.126 138.599C179.636 140.073 177.611 140.838 174.706 140.807C174.312 140.803 173.917 140.8 173.51 140.797C173.059 140.79 173.059 140.79 172.6 140.784C172.604 141.127 172.607 141.47 172.611 141.824C172.624 143.115 172.633 144.407 172.64 145.699C172.644 146.254 172.649 146.81 172.655 147.365C172.72 153.163 172.365 158.256 168.21 162.701C164.702 165.844 161.227 166.388 156.678 166.36C156.224 166.361 155.77 166.361 155.302 166.361C154.063 166.36 152.824 166.357 151.585 166.352C150.287 166.347 148.99 166.347 147.693 166.346C145.239 166.344 142.785 166.338 140.331 166.33C137.536 166.322 134.742 166.318 131.947 166.314C126.201 166.307 120.454 166.294 114.708 166.278C114.715 166.623 114.723 166.968 114.731 167.323C114.756 168.62 114.774 169.916 114.788 171.213C114.796 171.771 114.806 172.329 114.818 172.887C114.918 177.356 114.542 180.865 111.334 184.237C108.599 186.796 105.966 187.146 102.373 187.139C101.98 187.142 101.586 187.144 101.18 187.146C99.8604 187.152 98.5407 187.153 97.221 187.154C96.2748 187.158 95.3287 187.161 94.3825 187.165C91.8115 187.175 89.2405 187.18 86.6696 187.183C85.0628 187.185 83.456 187.188 81.8493 187.191C77.3966 187.2 72.944 187.208 68.4913 187.21C68.0641 187.21 68.0641 187.21 67.6283 187.211C67.3429 187.211 67.0574 187.211 66.7634 187.211C66.185 187.211 65.6066 187.212 65.0283 187.212C64.7414 187.212 64.4545 187.212 64.1589 187.213C59.5133 187.215 54.8677 187.228 50.2221 187.245C45.4473 187.262 40.6725 187.271 35.8977 187.272C33.2189 187.273 30.5402 187.277 27.8615 187.29C25.3406 187.303 22.8199 187.304 20.299 187.298C19.3756 187.297 18.4522 187.3 17.5287 187.307C8.09865 187.377 8.09865 187.377 4.4629 184.261C3.86583 183.641 3.42614 183.02 2.95434 182.303C2.82124 182.102 2.68813 181.901 2.551 181.694C0.958941 178.769 1.28324 175.443 1.29768 172.217C1.29546 171.517 1.29261 170.817 1.28918 170.118C1.28165 168.198 1.28325 166.279 1.28639 164.36C1.28819 162.289 1.28159 160.217 1.2761 158.146C1.26676 154.09 1.26544 150.033 1.26716 145.977C1.26846 142.679 1.26718 139.382 1.26406 136.084C1.26363 135.615 1.26319 135.146 1.26274 134.662C1.26185 133.709 1.26096 132.755 1.26007 131.802C1.25437 125.4 1.25149 118.999 1.25444 112.597C1.25455 112.347 1.25467 112.097 1.25479 111.839C1.25538 110.571 1.256 109.302 1.25663 108.034C1.25676 107.782 1.25688 107.53 1.25701 107.271C1.25726 106.761 1.25752 106.252 1.25778 105.743C1.2617 97.8179 1.25589 89.8933 1.24236 81.9687C1.22717 73.0609 1.21935 64.1533 1.22227 55.2455C1.22367 50.5307 1.22184 45.8159 1.21148 41.101C1.20275 37.0871 1.20172 33.0732 1.2106 29.0593C1.21491 27.0118 1.21571 24.9645 1.20693 22.9171C1.19898 21.0414 1.20124 19.1659 1.21152 17.2902C1.21346 16.6131 1.21172 15.9359 1.20585 15.2588C1.17207 11.0704 1.41061 7.59756 4.28193 4.24312C6.96816 1.72657 10.0112 1.07904 13.5963 1.11101ZM7.03059 8.23852C5.8387 9.87622 5.83241 11.1993 5.8364 13.1447C5.83553 13.428 5.83467 13.7114 5.83378 14.0033C5.83133 14.9606 5.8315 15.918 5.83165 16.8753C5.83044 17.5655 5.82908 18.2556 5.82757 18.9458C5.82389 20.8485 5.82253 22.7512 5.82156 24.654C5.82014 26.7037 5.81663 28.7534 5.81342 30.803C5.80618 35.7558 5.80249 40.7086 5.79923 45.6615C5.79763 47.9922 5.79566 50.3229 5.79374 52.6537C5.78751 60.3987 5.78219 68.1437 5.77954 75.8887C5.77937 76.3896 5.7792 76.8906 5.77902 77.3915C5.77893 77.6399 5.77885 77.8884 5.77876 78.1443C5.77832 79.403 5.77787 80.6617 5.77742 81.9204C5.77734 82.1702 5.77725 82.4199 5.77716 82.6773C5.77426 90.7778 5.76568 98.8782 5.75377 106.979C5.74121 115.541 5.73398 124.103 5.73278 132.665C5.73198 137.333 5.72876 142.002 5.71942 146.67C5.71148 150.645 5.70851 154.619 5.71208 158.594C5.71375 160.623 5.71302 162.651 5.70593 164.68C5.6995 166.537 5.69981 168.393 5.70553 170.25C5.70641 170.922 5.70479 171.594 5.70046 172.267C5.69495 173.18 5.69845 174.092 5.70421 175.005C5.69859 175.398 5.69859 175.398 5.69286 175.798C5.72312 177.992 6.44847 179.503 7.93658 181.116C9.40485 182.245 10.4164 182.711 12.2569 182.718C12.5877 182.72 12.9184 182.722 13.2591 182.724C13.6229 182.724 13.9867 182.725 14.3616 182.725C14.7477 182.727 15.1338 182.729 15.5317 182.731C16.832 182.737 18.1323 182.74 19.4327 182.743C20.3625 182.746 21.2922 182.75 22.222 182.754C25.017 182.764 27.8119 182.771 30.6069 182.777C31.3965 182.779 32.186 182.781 32.9756 182.783C37.8797 182.794 42.7839 182.804 47.6881 182.81C48.824 182.811 49.9599 182.813 51.0958 182.814C51.3781 182.815 51.6604 182.815 51.9513 182.815C56.5231 182.822 61.0948 182.836 65.6665 182.855C70.3614 182.874 75.0563 182.884 79.7512 182.887C82.3867 182.889 85.0222 182.894 87.6577 182.909C90.1376 182.923 92.6174 182.925 95.0974 182.921C96.0071 182.921 96.9168 182.924 97.8265 182.932C99.0698 182.942 100.312 182.939 101.556 182.932C101.915 182.938 102.274 182.944 102.643 182.95C105.23 182.915 106.889 182.166 108.845 180.482C110.271 178.621 110.356 176.965 110.347 174.671C110.346 174.431 110.346 174.191 110.345 173.943C110.343 173.178 110.338 172.414 110.334 171.65C110.332 171.13 110.33 170.61 110.329 170.09C110.325 168.82 110.318 167.549 110.311 166.278C108.376 166.278 106.442 166.278 104.448 166.278C104.426 166.896 104.404 167.514 104.381 168.151C104.35 168.961 104.319 169.77 104.288 170.58C104.274 170.988 104.259 171.395 104.244 171.815C104.229 172.206 104.214 172.597 104.198 173C104.185 173.36 104.171 173.721 104.157 174.092C104.082 175.019 104.082 175.019 103.716 176.111C102.878 176.527 102.417 176.521 101.487 176.522C101.172 176.523 100.857 176.525 100.532 176.526C100.184 176.525 99.8363 176.525 99.4777 176.524C99.1095 176.525 98.7413 176.526 98.362 176.527C97.1204 176.529 95.8787 176.529 94.6371 176.528C93.7501 176.529 92.8632 176.531 91.9762 176.532C89.8125 176.535 87.6488 176.536 85.4851 176.536C83.7271 176.536 81.9692 176.537 80.2112 176.538C75.2314 176.541 70.2516 176.543 65.2717 176.543C65.0031 176.543 64.7345 176.543 64.4577 176.543C64.1888 176.543 63.9198 176.543 63.6427 176.543C59.2812 176.543 54.9198 176.546 50.5583 176.551C46.0842 176.556 41.61 176.559 37.1358 176.559C34.6222 176.559 32.1087 176.56 29.5951 176.563C27.2325 176.567 24.8699 176.567 22.5073 176.564C21.6379 176.564 20.7684 176.565 19.899 176.567C18.7168 176.57 17.5346 176.568 16.3523 176.565C16.0043 176.567 15.6562 176.569 15.2976 176.571C14.9826 176.569 14.6676 176.568 14.3431 176.566C14.0699 176.566 13.7968 176.566 13.5154 176.566C12.8473 176.475 12.8473 176.475 12.1145 175.747C12.0423 174.855 12.0163 174.004 12.0222 173.111C12.0206 172.697 12.0206 172.697 12.019 172.275C12.0163 171.34 12.0189 170.405 12.0214 169.47C12.0206 168.797 12.0194 168.124 12.0179 167.451C12.0149 165.593 12.0164 163.736 12.0187 161.879C12.0203 159.879 12.0178 157.879 12.0157 155.879C12.0125 151.958 12.0132 148.037 12.0153 144.116C12.017 140.931 12.0172 137.745 12.0164 134.56C12.0163 134.107 12.0162 133.655 12.0161 133.189C12.0158 132.27 12.0156 131.35 12.0153 130.431C12.0133 122.049 12.0154 113.666 12.0193 105.284C12.0227 97.6263 12.0224 89.9686 12.0189 82.3109C12.015 73.7142 12.0134 65.1174 12.0157 56.5207C12.0159 55.6048 12.0162 54.689 12.0164 53.7731C12.0165 53.3224 12.0166 52.8717 12.0167 52.4074C12.0174 49.2241 12.0163 46.0409 12.0146 42.8576C12.0125 38.9808 12.0131 35.104 12.017 31.2272C12.0189 29.2474 12.0196 27.2676 12.0172 25.2878C12.0151 23.4781 12.0162 21.6684 12.0202 19.8587C12.021 19.2014 12.0205 18.544 12.0188 17.8867C12.0166 16.9984 12.0188 16.1102 12.0222 15.2219C12.0205 14.9622 12.0188 14.7026 12.017 14.4351C12.0308 12.6693 12.0308 12.6693 12.8473 11.8577C13.8526 11.7481 13.8526 11.7481 15.1491 11.723C15.3851 11.7177 15.6211 11.7123 15.8643 11.7068C16.6467 11.6905 17.4291 11.6803 18.2117 11.6714C18.4791 11.668 18.7465 11.6645 19.022 11.661C20.4381 11.6437 21.8541 11.6314 23.2703 11.6227C24.7311 11.6127 26.1909 11.5838 27.6514 11.5508C28.7761 11.529 29.9006 11.5218 31.0255 11.5184C31.5637 11.5142 32.1019 11.5044 32.6399 11.4889C36.8164 11.3758 36.8164 11.3758 38.164 12.4957C38.7536 13.3497 39.174 14.1888 39.5948 15.1355C39.9418 15.7524 40.2928 16.3672 40.6482 16.9793C40.9092 17.4565 41.1693 17.9342 41.4268 18.4133C45.6755 18.5232 49.9239 18.6072 54.1737 18.6586C56.1473 18.6833 58.12 18.7167 60.0931 18.7705C61.9985 18.8221 63.903 18.8503 65.8091 18.8625C66.5349 18.8712 67.2608 18.8883 67.9862 18.9139C71.6717 19.1947 71.6717 19.1947 74.994 17.9553C76.116 16.6865 76.7423 15.2574 77.3345 13.6787C77.4769 13.3277 77.6193 12.9767 77.766 12.615C77.8654 12.3651 77.9649 12.1152 78.0673 11.8577C81.2969 11.8324 84.5264 11.813 87.7561 11.8011C89.2557 11.7954 90.7552 11.7877 92.2548 11.7753C93.7016 11.7635 95.1484 11.7569 96.5953 11.7541C97.1476 11.7521 97.7 11.7481 98.2523 11.7422C99.0252 11.7343 99.7979 11.7332 100.571 11.7337C101.011 11.7313 101.451 11.7289 101.905 11.7264C102.983 11.8577 102.983 11.8577 103.679 12.3436C104.332 13.3271 104.143 14.2167 104.076 15.3731C104.059 15.8622 104.043 16.3513 104.03 16.8405C104.022 17.0944 104.015 17.3483 104.007 17.6099C103.788 22.0888 103.788 22.0888 105.679 25.959C107.781 27.7684 107.781 27.7684 110.311 28.6109C110.348 26.1228 110.374 23.6347 110.391 21.1464C110.399 20.3007 110.409 19.4551 110.421 18.6095C110.439 17.3907 110.448 16.1723 110.454 14.9534C110.462 14.5781 110.469 14.2028 110.477 13.8161C110.478 11.5092 110.289 9.71163 108.845 7.85156C106.555 5.8128 104.574 5.34865 101.566 5.39379C101.177 5.3909 100.789 5.388 100.388 5.38502C99.0928 5.37804 97.798 5.3866 96.5025 5.39518C95.5713 5.39341 94.64 5.3907 93.7087 5.38712C91.4459 5.38099 89.1834 5.385 86.9206 5.39387C84.2838 5.40382 81.6471 5.4026 79.0102 5.40106C74.305 5.39874 69.5998 5.40722 64.8946 5.4215C60.3318 5.43535 55.7691 5.4405 51.2063 5.43644C46.2332 5.43202 41.2601 5.43216 36.2869 5.44043C35.7565 5.44131 35.226 5.44219 34.6955 5.44307C34.4346 5.44351 34.1736 5.44395 33.9047 5.4444C32.0678 5.44722 30.231 5.44694 28.3941 5.44556C25.9213 5.44385 23.4487 5.45009 20.976 5.46162C20.0683 5.46472 19.1607 5.46533 18.253 5.46331C17.0145 5.46096 15.7763 5.46757 14.5378 5.47648C14.1783 5.47373 13.8188 5.47098 13.4483 5.46814C10.8253 5.50154 8.71853 6.06898 7.03059 8.23852ZM16.1449 15.8639C16.1449 67.5436 16.1449 119.223 16.1449 172.469C43.8341 172.469 71.5233 172.469 100.052 172.469C100.052 170.426 100.052 168.383 100.052 166.278C99.5043 166.276 98.957 166.275 98.3931 166.274C93.2286 166.26 88.0642 166.239 82.8997 166.211C80.2448 166.196 77.5899 166.185 74.935 166.179C72.6196 166.174 70.3043 166.164 67.9889 166.149C66.7641 166.14 65.5395 166.135 64.3147 166.135C62.9438 166.134 61.5732 166.124 60.2024 166.112C59.801 166.114 59.3996 166.116 58.986 166.118C55.2065 166.067 51.8783 164.949 49.1213 162.294C46.7746 159.825 45.0508 157.001 45.0417 153.521C45.0401 153.231 45.0384 152.94 45.0367 152.642C45.0368 152.325 45.0369 152.008 45.0369 151.682C45.0356 151.344 45.0342 151.006 45.0329 150.658C45.0288 149.522 45.0274 148.387 45.026 147.252C45.0237 146.439 45.0213 145.626 45.0187 144.813C45.011 142.141 45.0072 139.468 45.0036 136.796C45.0021 135.876 45.0006 134.956 44.999 134.037C44.9929 130.21 44.9875 126.384 44.9848 122.558C44.9841 121.565 44.9834 120.573 44.9827 119.58C44.9825 119.334 44.9824 119.087 44.9822 118.833C44.9791 114.839 44.9699 110.844 44.958 106.85C44.9458 102.747 44.9394 98.643 44.9381 94.5393C44.9372 92.2364 44.9339 89.9335 44.9247 87.6306C44.9162 85.4637 44.9146 83.2968 44.9184 81.1298C44.9186 80.3354 44.9163 79.541 44.9112 78.7466C44.9047 77.66 44.9073 76.5738 44.9122 75.4872C44.9081 75.1747 44.9041 74.8621 44.9 74.5401C44.9303 71.7005 45.8737 69.4299 47.6557 67.2159C47.6557 66.9755 47.6557 66.7351 47.6557 66.4875C47.8446 66.3973 48.0336 66.3072 48.2282 66.2143C49.1888 65.7247 50.109 65.1843 51.0335 64.6309C52.2343 64.0263 53.3976 63.8913 54.7308 63.8633C55.0388 63.856 55.3468 63.8488 55.6641 63.8413C56.1577 63.8322 56.1577 63.8322 56.6612 63.8229C57.1705 63.8115 57.1705 63.8115 57.69 63.7999C58.7726 63.7761 59.8552 63.7547 60.9379 63.7332C61.6726 63.7175 62.4073 63.7016 63.142 63.6856C64.9416 63.6466 66.7411 63.6097 68.5408 63.5739C68.6552 63.1227 68.7696 62.6716 68.8875 62.2067C68.9518 61.9529 69.0162 61.6992 69.0825 61.4377C69.2632 60.7027 69.4293 59.9662 69.5884 59.2263C72.2742 46.9019 78.6843 36.6511 89.4258 29.7035C92.8056 27.6285 96.2868 26.2034 100.052 24.9689C100.052 21.9642 100.052 18.9596 100.052 15.8639C97.3952 15.738 94.7494 15.6296 92.0924 15.5638C91.1904 15.5364 90.2887 15.4992 89.3876 15.4518C84.3763 15.1881 88.3266 15.3176 81.3649 15.4518C80.0242 16.9537 78.6169 20.0522 77.7009 22.0553C76.6727 22.3446 75.7591 22.4657 74.6918 22.4682C74.2341 22.4705 74.2341 22.4705 73.7672 22.4729C73.2698 22.4726 73.2698 22.4726 72.7623 22.4724C72.4106 22.4736 72.059 22.4748 71.6966 22.4761C70.534 22.4796 69.3714 22.4803 68.2087 22.4807C67.401 22.4818 66.5934 22.4831 65.7857 22.4843C64.0929 22.4865 62.4001 22.4872 60.7073 22.487C58.5362 22.4869 56.3653 22.4919 54.1943 22.4982C52.5265 22.5022 50.8587 22.503 49.1909 22.5028C48.3903 22.5032 47.5897 22.5048 46.7892 22.5076C45.6708 22.5112 44.5525 22.5102 43.4342 22.508C43.1026 22.51 42.7709 22.5121 42.4293 22.5142C42.1242 22.5126 41.819 22.5111 41.5047 22.5095C41.2404 22.5097 40.9762 22.5099 40.704 22.5101C39.9612 22.4195 39.9612 22.4195 38.4956 21.6911C37.4074 19.7681 36.3191 17.8452 35.1979 15.8639C28.9104 15.8639 22.6229 15.8639 16.1449 15.8639ZM84.3763 38.6832C72.7751 50.784 71.9496 68.9546 70.0064 84.6974C72.8016 84.8738 75.5954 84.9943 78.395 85.0775C79.3454 85.1122 80.2955 85.1593 81.2446 85.2194C86.3466 85.7372 86.3466 85.7372 90.9618 84.0733C92.3296 82.4556 93.1267 80.624 93.8576 78.6552C94.3073 77.4647 94.8866 76.3827 95.4829 75.2581C95.8486 74.4984 96.2112 73.7373 96.5707 72.9748C96.8666 72.3562 96.8666 72.3562 97.1685 71.7252C98.6708 68.5735 100.129 65.4019 101.584 62.2286C105.453 53.813 109.652 45.9271 116.54 39.5368C116.023 37.9968 114.886 37.4022 113.609 36.4866C113.076 36.0981 112.544 35.7093 112.013 35.3201C111.735 35.1175 111.457 34.9149 111.171 34.7062C109.462 33.449 107.781 32.1541 106.097 30.8652C105.725 30.5817 105.725 30.5817 105.346 30.2924C105.128 30.1257 104.91 29.959 104.686 29.7872C99.4199 25.879 88.2442 35.0114 84.3763 38.6832ZM139.933 33.8019C132.515 34.7461 125.413 37.4022 119.837 42.4504C119.488 42.764 119.138 43.0776 118.778 43.4007C110.667 50.9323 106.081 62.0263 101.598 71.8951C100.154 75.0539 98.6032 78.1535 97.0131 81.2416C96.8354 81.5886 96.6578 81.9356 96.4748 82.2931C96.3163 82.5998 96.1577 82.9066 95.9944 83.2226C95.6044 83.9431 95.6044 83.9431 95.6547 84.6974C101.096 84.6974 106.537 84.6974 112.143 84.6974C112.264 83.2552 112.385 81.8129 112.509 80.327C113.928 76.3585 115.978 73.7866 119.837 71.9504C122.852 70.7553 126.471 70.6845 129.524 71.8139C132.556 73.248 134.833 75.1058 136.326 78.1418C137.085 80.3537 137.448 82.3642 137.425 84.6974C138.944 84.7828 140.462 84.834 141.982 84.8795C142.409 84.9039 142.835 84.9283 143.275 84.9535C145.587 85.0053 147.005 84.9102 148.76 83.3331C149.259 82.8194 149.756 82.3032 150.249 81.7838C157.387 76.1338 166.345 74.2505 175.164 73.043C173.74 70.8891 172.271 68.7761 170.745 66.6923C170.324 66.1162 169.904 65.54 169.484 64.9638C169.271 64.6728 169.059 64.3818 168.84 64.082C167.831 62.7003 166.826 61.316 165.821 59.9319C165.424 59.3856 165.027 58.8393 164.63 58.293C157.485 48.4597 157.485 48.4597 156.89 47.6394C156.494 47.0957 156.099 46.5521 155.704 46.0085C154.472 44.3133 153.242 42.6161 152.015 40.9166C151.606 40.3524 151.194 39.79 150.779 39.2297C149.959 38.1212 149.181 37.0408 148.487 35.8479C147.911 34.8978 147.517 34.3206 146.585 33.7096C144.321 33.2883 142.194 33.5376 139.933 33.8019ZM49.8613 70.9489C48.5373 73.2954 48.9346 76.2681 49.0068 78.8702C49.0446 80.7932 49.0824 82.7161 49.1213 84.6974C54.5624 84.6974 60.0035 84.6974 65.6095 84.6974C66.5715 79.5982 66.5715 79.5982 67.327 74.4771C67.3745 74.1252 67.422 73.7733 67.4709 73.4108C67.5155 73.0674 67.5602 72.724 67.6061 72.3701C67.6452 72.0696 67.6842 71.7691 67.7245 71.4595C67.826 70.2849 67.8208 69.1226 67.808 67.9443C65.8788 67.899 63.9499 67.8661 62.0203 67.8442C61.3649 67.8351 60.7096 67.8227 60.0544 67.8069C59.1084 67.7846 58.1628 67.7744 57.2166 67.7664C56.7824 67.7523 56.7824 67.7523 56.3395 67.738C53.5964 67.7366 51.6187 68.8743 49.8613 70.9489ZM118.005 78.506C116.716 80.2789 116.285 81.7863 116.173 83.969C116.294 84.2094 116.415 84.4497 116.54 84.6974C121.981 84.6974 127.422 84.6974 133.028 84.6974C133.028 81.5973 132.921 79.9937 130.903 77.7833C128.826 75.8436 126.811 75.029 123.909 75.113C121.507 75.4705 119.529 76.645 118.005 78.506ZM49.1213 89.0678C49.0871 97.5111 49.0612 105.954 49.0454 114.398C49.0378 118.318 49.0275 122.239 49.0108 126.159C48.9961 129.577 48.9867 132.994 48.9834 136.412C48.9815 138.221 48.977 140.03 48.9664 141.839C48.9564 143.544 48.9533 145.248 48.9555 146.952C48.9551 147.576 48.9522 148.2 48.9466 148.824C48.9111 152.96 49.1752 156.334 52.1141 159.515C55.3506 162.272 59.0128 162.326 63.0538 162.32C63.6591 162.322 63.6591 162.322 64.2768 162.323C65.6274 162.325 66.978 162.325 68.3287 162.325C69.2978 162.326 70.2669 162.327 71.2359 162.328C73.5941 162.331 75.9523 162.332 78.3105 162.332C80.228 162.333 82.1456 162.333 84.0631 162.335C89.5039 162.338 94.9446 162.339 100.385 162.339C100.679 162.339 100.972 162.339 101.274 162.339C101.567 162.339 101.86 162.339 102.163 162.339C106.918 162.339 111.673 162.342 116.428 162.348C121.315 162.353 126.201 162.355 131.088 162.355C133.83 162.355 136.571 162.356 139.313 162.36C141.648 162.363 143.982 162.364 146.317 162.361C147.507 162.36 148.697 162.361 149.887 162.363C151.179 162.366 152.472 162.364 153.764 162.362C154.323 162.364 154.323 162.364 154.893 162.367C158.82 162.349 162.233 161.9 165.17 159.126C167.368 156.737 168.006 154.514 167.944 151.347C167.942 151.043 167.941 150.74 167.939 150.427C167.933 149.466 167.919 148.505 167.905 147.544C167.9 146.889 167.895 146.234 167.89 145.579C167.878 143.98 167.859 142.382 167.836 140.784C167.486 140.783 167.137 140.781 166.776 140.78C163.466 140.766 160.157 140.745 156.847 140.717C155.146 140.703 153.445 140.691 151.744 140.685C150.1 140.68 148.456 140.667 146.812 140.65C146.187 140.644 145.562 140.641 144.937 140.641C140.426 140.637 136.722 140.32 133.304 137.115C130.356 133.897 129.96 130.586 129.961 126.371C129.959 125.586 129.946 124.801 129.932 124.017C129.898 119.95 130.543 116.776 133.422 113.744C135.984 111.424 138.668 110.45 142.13 110.439C142.409 110.436 142.688 110.432 142.976 110.428C143.892 110.417 144.807 110.411 145.723 110.405C146.361 110.398 146.999 110.391 147.636 110.383C149.309 110.365 150.983 110.35 152.656 110.337C154.366 110.322 156.075 110.303 157.785 110.285C161.135 110.25 164.486 110.219 167.836 110.191C167.882 108.287 167.915 106.383 167.937 104.478C167.946 103.832 167.959 103.186 167.975 102.539C168.139 96.7908 168.139 96.7908 165.286 91.9374C162.426 89.1471 159.405 88.9076 155.575 88.9364C155.119 88.9354 154.663 88.9345 154.193 88.9335C152.934 88.9321 151.675 88.9355 150.416 88.941C149.055 88.9457 147.695 88.9441 146.335 88.9432C143.981 88.9427 141.626 88.9461 139.271 88.9522C135.867 88.9611 132.463 88.964 129.059 88.9653C123.535 88.9677 118.011 88.975 112.488 88.9853C107.123 88.9954 101.758 89.0031 96.3934 89.0077C96.0626 89.008 95.7317 89.0083 95.3908 89.0086C93.731 89.01 92.0712 89.0114 90.4114 89.0128C76.648 89.0241 62.8847 89.0433 49.1213 89.0678ZM135.41 117.748C133.11 121.235 133.307 126.231 133.99 130.222C134.585 132.402 136.004 134.201 137.86 135.48C139.125 136.179 140.068 136.459 141.493 136.467C141.799 136.47 142.104 136.472 142.419 136.475C142.92 136.476 142.92 136.476 143.431 136.478C143.784 136.48 144.137 136.483 144.501 136.485C145.67 136.492 146.84 136.497 148.009 136.5C148.409 136.502 148.808 136.503 149.22 136.505C151.335 136.512 153.451 136.518 155.566 136.521C157.749 136.525 159.932 136.538 162.114 136.552C163.794 136.562 165.475 136.565 167.155 136.566C167.959 136.568 168.764 136.572 169.568 136.579C170.696 136.588 171.823 136.587 172.951 136.585C173.282 136.589 173.612 136.594 173.952 136.599C176.46 136.578 178.387 135.964 180.303 134.321C180.466 134.118 180.63 133.914 180.798 133.705C180.967 133.502 181.136 133.3 181.31 133.092C182.857 130.737 182.627 128.272 182.63 125.556C182.639 125.102 182.648 124.648 182.657 124.181C182.667 121.176 182.499 118.982 180.307 116.738C180.069 116.576 179.83 116.413 179.584 116.246C179.347 116.078 179.109 115.91 178.864 115.737C176.824 114.551 175.133 114.452 172.818 114.45C172.473 114.447 172.128 114.444 171.773 114.441C170.635 114.432 169.497 114.429 168.359 114.426C167.565 114.423 166.771 114.42 165.978 114.417C164.314 114.411 162.65 114.408 160.985 114.407C158.859 114.405 156.733 114.391 154.607 114.374C152.967 114.363 151.328 114.361 149.688 114.36C148.904 114.359 148.121 114.354 147.337 114.347C140.7 114.169 140.7 114.169 135.41 117.748Z" fill="url(#paint0_linear_157_7325)"/>
<path id="Vector_2" d="M71.7685 111.14C72.2439 111.138 72.2439 111.138 72.7289 111.136C73.7751 111.132 74.8213 111.135 75.8675 111.137C76.5953 111.137 77.3231 111.136 78.0508 111.135C79.5755 111.134 81.1002 111.136 82.6249 111.139C84.5792 111.144 86.5333 111.141 88.4876 111.137C89.9902 111.134 91.4928 111.135 92.9954 111.137C93.716 111.137 94.4366 111.136 95.1572 111.135C96.1642 111.133 97.1712 111.136 98.1783 111.14C98.6249 111.138 98.6249 111.138 99.0805 111.135C100.566 111.148 101.718 111.19 102.958 112.053C104.583 114.206 104.378 116.305 104.372 118.898C104.384 119.331 104.395 119.765 104.407 120.211C104.416 123.764 104.416 123.764 103.198 125.265C101.556 126.726 100.389 126.664 98.2764 126.667C97.8022 126.67 97.8022 126.67 97.3184 126.673C96.2697 126.679 95.221 126.682 94.1724 126.684C93.4444 126.687 92.7165 126.689 91.9885 126.691C90.4607 126.696 88.9329 126.698 87.405 126.699C85.4481 126.701 83.4912 126.711 81.5342 126.723C80.0299 126.73 78.5255 126.732 77.0212 126.733C76.2998 126.734 75.5784 126.737 74.857 126.743C73.847 126.75 72.8372 126.749 71.8272 126.746C71.5296 126.75 71.2321 126.754 70.9255 126.758C69.1373 126.743 68.0118 126.481 66.5849 125.39C65.2712 123.515 65.6438 121.141 65.6503 118.949C65.6438 118.51 65.6373 118.072 65.6306 117.62C65.6303 117.196 65.6301 116.773 65.6298 116.336C65.6286 115.951 65.6274 115.565 65.6261 115.168C65.8075 113.849 66.1861 113.111 66.989 112.053C68.4672 111.025 70.0368 111.131 71.7685 111.14ZM93.7588 115.727C93.2331 115.736 92.7074 115.744 92.1658 115.752C91.6001 115.761 91.0344 115.77 90.4688 115.779C89.8838 115.788 89.2989 115.797 88.714 115.806C87.1826 115.83 85.6512 115.854 84.1198 115.878C82.5538 115.902 80.9879 115.927 79.4219 115.951C76.3553 115.998 73.2888 116.046 70.2222 116.094C70.3555 117.962 70.4889 119.829 70.6263 121.752C80.0954 121.752 89.5644 121.752 99.3204 121.752C99.3204 119.752 99.3204 117.751 99.3204 115.69C97.465 115.69 95.6136 115.699 93.7588 115.727Z" fill="url(#paint1_linear_157_7325)"/>
<path id="Vector_3" d="M188.586 135.266C189.933 136.891 189.992 137.827 189.849 139.939C189.183 141.403 188.462 142.432 187.02 143.172C184.854 143.378 183.527 143.358 181.766 141.96C180.621 140.242 180.648 138.722 180.958 136.706C181.6 135.427 182.436 134.552 183.736 133.902C185.752 133.843 187.011 133.931 188.586 135.266Z" fill="url(#paint2_linear_157_7325)"/>
</g>
<defs>
<linearGradient id="paint0_linear_157_7325" x1="1.20215" y1="94.2098" x2="213.035" y2="137.707" gradientUnits="userSpaceOnUse">
<stop offset="0.295" stop-color="#4B1790"/>
<stop offset="0.865" stop-color="#D17BDF"/>
</linearGradient>
<linearGradient id="paint1_linear_157_7325" x1="65.5967" y1="118.945" x2="102.107" y2="137.567" gradientUnits="userSpaceOnUse">
<stop offset="0.295" stop-color="#4B1790"/>
<stop offset="0.865" stop-color="#D17BDF"/>
</linearGradient>
<linearGradient id="paint2_linear_157_7325" x1="180.774" y1="138.578" x2="191.18" y2="140.657" gradientUnits="userSpaceOnUse">
<stop offset="0.295" stop-color="#4B1790"/>
<stop offset="0.865" stop-color="#D17BDF"/>
</linearGradient>
</defs>
</svg>
